<svg xmlns="http://www.w3.org/2000/svg" width="190" height="182" viewBox="0 0 190 182">
  <g id="그룹_2456" data-name="그룹 2456" transform="translate(-92.135 -512.882)">
    <g id="freepik--Floor--inject-145" transform="translate(93.691 582.471)">
      <ellipse id="freepik--floor--inject-145-2" data-name="freepik--floor--inject-145" cx="94.222" cy="56.206" rx="94.222" ry="56.206" transform="translate(0)" fill="#f5f5f5"/>
    </g>
    <g id="freepik--Shadows--inject-145" transform="translate(101.075 590.968)">
      <path id="freepik--Shadow--inject-145" d="M102.428,313.567l47.4,27.374a7.763,7.763,0,0,0,7.035,0L248.83,287.85c1.944-1.123,1.944-2.94,0-4.063l-47.4-27.37a7.763,7.763,0,0,0-7.035,0l-91.965,53.1C100.484,310.628,100.484,312.448,102.428,313.567Z" transform="translate(-73.383 -243.24)" fill="#e0e0e0"/>
      <path id="freepik--shadow--inject-145-2" data-name="freepik--shadow--inject-145" d="M97.772,299.924l-38.4-22.18c-1.908-1.1-1.908-2.884,0-3.983l83.711-48.327a7.628,7.628,0,0,1,6.9,0l38.408,22.176c1.9,1.1,1.9,2.88,0,3.983l-83.711,48.331A7.636,7.636,0,0,1,97.772,299.924Z" transform="translate(-46.971 -224.61)" fill="#e0e0e0"/>
      <path id="freepik--shadow--inject-145-3" data-name="freepik--shadow--inject-145" d="M50.373,362.569c4.569,2.665,4.569,6.991,0,9.656s-11.97,2.669-16.539,0-4.569-6.991,0-9.656S45.808,359.9,50.373,362.569Z" transform="translate(-30.407 -306.411)" fill="#e0e0e0"/>
    </g>
    <g id="freepik--Pictures--inject-145" transform="translate(106.836 512.882)">
      <g id="freepik--Picture--inject-145" transform="translate(123.145 0.143)">
        <g id="freepik--Frame--inject-145">
          <path id="패스_5104" data-name="패스 5104" d="M373.979,81.38l-.721.43L358.5,73.286l.717-.426Z" transform="translate(-357.142 -54.967)" fill="#fafafa"/>
          <path id="패스_5105" data-name="패스 5105" d="M360.3,50.659l14.041,8.1v-14.7L360.3,35.96Z" transform="translate(-358.225 -32.765)" fill="#fff"/>
          <path id="패스_5106" data-name="패스 5106" d="M355.09,47.682l17.491,10.09V39.086L355.09,29Zm1.358-16.332,14.758,8.52V55.406L356.448,46.9Z" transform="translate(-355.09 -28.578)" fill="#f0f0f0"/>
          <path id="패스_5107" data-name="패스 5107" d="M358.5,50.447l.717-.426v-14.7L358.5,34.9Z" transform="translate(-357.142 -32.128)" fill="#e0e0e0"/>
          <path id="패스_5108" data-name="패스 5108" d="M355.09,28.358l.729-.418,17.475,10.09-.729.418Z" transform="translate(-355.09 -27.94)" fill="#fafafa"/>
          <path id="패스_5109" data-name="패스 5109" d="M399.689,53.27l-.729.418V72.374l.729-.418Z" transform="translate(-381.485 -43.18)" fill="#e0e0e0"/>
        </g>
        <g id="freepik--Family--inject-145" transform="translate(3.079 8.127)">
          <path id="패스_5110" data-name="패스 5110" d="M372.99,69.286l-.566-6.322-.116-.064v6s-1.876-1.115-1.932-1.115-.366-1.593-.526-2.123a4.451,4.451,0,0,0-.37-1.016,2.1,2.1,0,0,0-.737-.8l-1.008-.582c-.506-.295-.86-.191-1.068.307-.183.438-.617,1.717-.617,1.717l-1.964-1.135.562-4.067L364.565,60c-.183.6-.761,3.983-.761,3.983l-.984-.562s.9-5.1,1.064-5.664a.924.924,0,0,1,.43-.649c.279-.108.761.155,1.1.362.478.283.96.538,1.438.833a3.54,3.54,0,0,1,.546.462c.084.08.131.119.167,0a1.955,1.955,0,0,1,.12-.271c.315-.661.825-.8,1.534-.4.8.438,1.88,1.079,2.661,1.538a3.187,3.187,0,0,1,1.446,1.928c.263.928.8,8.4.8,8.4Zm-5.716-7.911a2.271,2.271,0,0,0,.912,1.8c.546.323.972.028.98-.673a2.275,2.275,0,0,0-.916-1.816C367.708,60.355,367.273,60.638,367.273,61.375Z" transform="translate(-362.82 -53.604)" fill="#f0f0f0"/>
          <path id="패스_5111" data-name="패스 5111" d="M379.806,54.528a3.187,3.187,0,0,1-1.326-2.569c0-.968.617-1.406,1.346-.972a3.187,3.187,0,0,1,1.323,2.589C381.141,54.532,380.539,54.958,379.806,54.528Z" transform="translate(-372.242 -49.833)" fill="#f0f0f0"/>
          <path id="패스_5112" data-name="패스 5112" d="M370.371,51.047c0,1-.586,1.446-1.326,1.02a3.187,3.187,0,0,1-1.334-2.549c0-1,.594-1.442,1.342-1.008A3.163,3.163,0,0,1,370.371,51.047Z" transform="translate(-365.762 -48.343)" fill="#f0f0f0"/>
          <path id="패스_5113" data-name="패스 5113" d="M373.23,77.014v.9l-.37-.215s.227-.518.339-.709Z" transform="translate(-368.861 -65.579)" fill="#f0f0f0"/>
          <path id="패스_5114" data-name="패스 5114" d="M379,80.95v-.9h.032c.112.323.343,1.107.343,1.107Z" transform="translate(-372.555 -67.42)" fill="#f0f0f0"/>
        </g>
      </g>
      <g id="freepik--picture--inject-145-2" data-name="freepik--picture--inject-145" transform="translate(149.829 20.18)">
        <g id="freepik--frame--inject-145-2" data-name="freepik--frame--inject-145">
          <path id="패스_5115" data-name="패스 5115" d="M441.2,131.674l-.721.43L425.72,123.58l.717-.43Z" transform="translate(-424.362 -105.261)" fill="#fafafa"/>
          <path id="패스_5116" data-name="패스 5116" d="M427.52,100.949l14.042,8.106v-14.7l-14.042-8.1Z" transform="translate(-425.445 -83.059)" fill="#fff"/>
          <path id="패스_5117" data-name="패스 5117" d="M422.31,97.976l17.475,10.09V89.38L422.31,79.29Zm1.358-16.332,14.739,8.52V105.7l-14.739-8.524Z" transform="translate(-422.31 -78.872)" fill="#f0f0f0"/>
          <path id="패스_5118" data-name="패스 5118" d="M425.72,100.741l.717-.43v-14.7l-.717-.422Z" transform="translate(-424.362 -82.422)" fill="#e0e0e0"/>
          <path id="패스_5119" data-name="패스 5119" d="M422.31,78.658l.729-.418,17.475,10.09-.729.418Z" transform="translate(-422.31 -78.24)" fill="#fafafa"/>
          <path id="패스_5120" data-name="패스 5120" d="M466.909,103.57l-.729.418v18.686l.729-.418Z" transform="translate(-448.705 -93.48)" fill="#e0e0e0"/>
        </g>
        <g id="freepik--Land--inject-145" transform="translate(2.625 9.158)">
          <path id="패스_5121" data-name="패스 5121" d="M428.9,109.523,441.846,117V113.26l-3.239-7.473-2.016,1.868.725,3.131-4.469-9.556-3.948,4.557Z" transform="translate(-428.9 -101.23)" fill="#f0f0f0"/>
          <path id="패스_5122" data-name="패스 5122" d="M447.07,103.412a2.123,2.123,0,0,1,.956,1.657c0,.613-.43.86-.956.554a2.111,2.111,0,0,1-.96-1.657C446.11,103.356,446.54,103.105,447.07,103.412Z" transform="translate(-439.255 -102.464)" fill="#f0f0f0"/>
        </g>
      </g>
      <g id="freepik--picture--inject-145-3" data-name="freepik--picture--inject-145" transform="translate(27.089)">
        <g id="freepik--frame--inject-145-3" data-name="freepik--frame--inject-145">
          <path id="패스_5123" data-name="패스 5123" d="M116.54,81.01l.721.43,14.758-8.524-.717-.426Z" transform="translate(-115.174 -54.601)" fill="#fafafa"/>
          <path id="패스_5124" data-name="패스 5124" d="M132.391,50.289l-14.041,8.1v-14.7l14.041-8.1Z" transform="translate(-116.263 -32.399)" fill="#fff"/>
          <path id="패스_5125" data-name="패스 5125" d="M132.415,28.63,114.94,38.736V57.422l17.475-10.09Zm-1.358,17.9L116.3,55.068V39.533l14.758-8.552Z" transform="translate(-114.211 -28.212)" fill="#f0f0f0"/>
          <path id="패스_5126" data-name="패스 5126" d="M154.317,50.077l-.717-.426v-14.7l.717-.422Z" transform="translate(-137.471 -31.762)" fill="#e0e0e0"/>
          <path id="패스_5127" data-name="패스 5127" d="M131.314,28l-.729-.418L113.11,37.67l.729.414Z" transform="translate(-113.11 -27.58)" fill="#fafafa"/>
          <path id="패스_5128" data-name="패스 5128" d="M113.11,52.91l.729.414V72.01l-.729-.418Z" transform="translate(-113.11 -42.82)" fill="#e0e0e0"/>
        </g>
        <g id="freepik--Text--inject-145" transform="translate(4.843 7.86)">
          <path id="패스_5129" data-name="패스 5129" d="M126.018,57.919a1.016,1.016,0,0,1-.374.629c-.235.135-.374-.056-.374-.355a1.032,1.032,0,0,1,.4-.84.287.287,0,0,1,.116-.04A4.963,4.963,0,0,1,125.493,56a2.444,2.444,0,0,1,.852-1.932c.319-.183.534,0,.534.438a2.139,2.139,0,0,1-.721,1.573c-.1.056-.183,0-.183-.207a.124.124,0,0,1,.028-.092.065.065,0,0,0,.072,0,1.558,1.558,0,0,0,.522-1.036c0-.215-.084-.351-.263-.247a1.671,1.671,0,0,0-.554,1.354c0,.558.283.9.295,1.593.151.139.283.327.43.243a.955.955,0,0,0,.255-.657v-.1a.084.084,0,0,1,.044-.064c.127-.072.2,0,.2.135a1.37,1.37,0,0,1-.462,1.1C126.333,58.2,126.166,58.059,126.018,57.919Zm-.494.108c0,.1.044.179.127.131a.57.57,0,0,0,.167-.4.159.159,0,0,0-.163,0,.331.331,0,0,0-.131.267Z" transform="translate(-125.269 -51.332)" fill="#f0f0f0"/>
          <path id="패스_5130" data-name="패스 5130" d="M131.408,57.519a1.091,1.091,0,0,1-.434.8.4.4,0,0,1-.175.064,1.083,1.083,0,0,1-.43.645c-.363.211-.522-.171-.522-.725a2.888,2.888,0,0,1,.363-1.514c.1-.052.167.2.072.347a2.6,2.6,0,0,0-.163.98c0,.462.12.625.259.546a.562.562,0,0,0,.211-.335,1.048,1.048,0,0,1-.259-.833.98.98,0,0,1,.291-.8c.167-.1.3.215.3.753a3.735,3.735,0,0,1-.048.625.219.219,0,0,0,.072-.032.709.709,0,0,0,.259-.546C131.217,57.343,131.456,57.2,131.408,57.519Zm-.753.4v-.263c0-.374,0-.645-.088-.6s-.06.123-.06.295a1.036,1.036,0,0,0,.147.582Z" transform="translate(-128.022 -52.947)" fill="#f0f0f0"/>
          <path id="패스_5131" data-name="패스 5131" d="M133.26,55.29a1.331,1.331,0,0,0,0-.167.191.191,0,0,1,.092-.147c.119-.072.2,0,.2.131v1.482c0,.108,0,.163.08.127A1.659,1.659,0,0,0,134,55.481c0-.446-.1-.506-.147-.534s-.048,0-.048,0a.589.589,0,0,1,.147-.355c.143-.084.319.295.319.769a2.152,2.152,0,0,1-.693,1.765c-.231.131-.3-.068-.3-.366Z" transform="translate(-130.077 -51.686)" fill="#f0f0f0"/>
          <path id="패스_5132" data-name="패스 5132" d="M136.4,54.8c.048.159.147.259.335.151a1.259,1.259,0,0,0,.434-.948c.032-.267.235-.271.219-.072a1.815,1.815,0,0,1-.693,1.406c-.327.187-.637-.036-.637-.725a2.061,2.061,0,0,1,.55-1.542c.2-.116.323.04.323.37A2.143,2.143,0,0,1,136.4,54.8Zm-.044-.279a1.549,1.549,0,0,0,.295-.912c0-.123-.028-.179-.076-.151-.175.1-.231.741-.223.968C136.355,54.459,136.359,54.491,136.359,54.523Z" transform="translate(-131.762 -50.756)" fill="#f0f0f0"/>
          <path id="패스_5133" data-name="패스 5133" d="M142.459,51.357c-.191.108-.3-.064-.3-.347v-1.1c0-.171,0-.311-.068-.275a2.334,2.334,0,0,0-.323,1.1v.8c0,.108,0,.239-.1.3s-.171.06-.171-.143v-1.41c0-.171,0-.311-.068-.275a2.287,2.287,0,0,0-.323,1.1v.8c0,.1,0,.235-.1.295s-.171.06-.171-.143v-1.9a.191.191,0,0,1,.092-.147c.119-.068.2,0,.2.131v.231a1.331,1.331,0,0,1,.378-.749c.215-.123.279.112.283.355a1.267,1.267,0,0,1,.378-.733c.231-.135.287.135.287.4v1.143c0,.048,0,.255.092.2a1.63,1.63,0,0,0,.239-.733.311.311,0,0,1,.088-.219c.056-.032.127.052.127.155a.2.2,0,0,1,0,.04C142.889,50.6,142.766,51.177,142.459,51.357Z" transform="translate(-134.632 -48.442)" fill="#f0f0f0"/>
          <path id="패스_5134" data-name="패스 5134" d="M146.982,48.132c.056-.032.127.048.127.155a.4.4,0,0,1,0,.056,4.816,4.816,0,0,1-.526,1.526v.956c0,.582-.187.892-.37,1s-.347-.084-.347-.434a2.932,2.932,0,0,1,.442-1.414v-.705a1.068,1.068,0,0,1-.351.586c-.243.135-.4-.1-.4-.578a8.9,8.9,0,0,1,.131-1.315c.024-.108,0-.207.187-.315s.076.179.06.271a7.122,7.122,0,0,0-.1,1.175c0,.3.06.422.163.362a1.8,1.8,0,0,0,.295-.916v-.888a1.433,1.433,0,0,0,0-.167.187.187,0,0,1,.1-.147c.116-.068.191,0,.191.131v1.936a4.341,4.341,0,0,0,.319-1.06C146.93,48.22,146.93,48.152,146.982,48.132Zm-.673,2.852v-.609a1.9,1.9,0,0,0-.2.837c0,.171.036.283.1.251S146.309,51.088,146.309,50.985Z" transform="translate(-137.477 -47.313)" fill="#f0f0f0"/>
          <path id="패스_5135" data-name="패스 5135" d="M126.481,74.05c-.092.052-.235-.08-.235-.187s.024-.04.06-.064a.716.716,0,0,0,.1-.454v-.868l-.187.108c-.076.044-.127-.084-.127-.2a.167.167,0,0,1,.052-.143l.263-.151V70.309a1.84,1.84,0,0,0-.84,1.669.8.8,0,0,0,.2.633c.04-.04.052,0,.052.048a.637.637,0,0,1-.171.426.048.048,0,0,1-.052,0c-.108-.056-.319-.358-.319-.944a2.581,2.581,0,0,1,1.307-2.39c.2-.116.737-.4.8-.462a.4.4,0,0,0,.1-.1c.024,0,.048.068.048.151a.486.486,0,0,1-.163.4l-.693.4v1.8l.446-.259c.112-.191.052.359-.032.4l-.4.239v.936C126.68,73.739,126.6,73.982,126.481,74.05Z" transform="translate(-125.27 -60.476)" fill="#f0f0f0"/>
          <path id="패스_5136" data-name="패스 5136" d="M131.645,73.655a.247.247,0,0,1,.088-.215c.036-.02.123.048.123.155v.04c-.064.4-.207.98-.514,1.155a.179.179,0,0,1-.275-.064.844.844,0,0,1-.311.4c-.279.163-.426-.119-.426-.586a2.4,2.4,0,0,1,.852-1.992c.1-.056.167,0,.167.139s0,.131-.048.151a.861.861,0,0,0-.1.048,1.785,1.785,0,0,0-.594,1.5c0,.287.08.4.207.335a.661.661,0,0,0,.2-.4V73.313a.183.183,0,0,1,.092-.147c.116-.068.191,0,.191.131V74.2c0,.123.036.235.123.187A1.7,1.7,0,0,0,131.645,73.655Z" transform="translate(-128.314 -62.483)" fill="#f0f0f0"/>
          <path id="패스_5137" data-name="패스 5137" d="M135.3,72.093c-.191.112-.3-.064-.3-.343V70.627c0-.171,0-.311-.068-.275a2.291,2.291,0,0,0-.323,1.1v.8c0,.1,0,.235-.1.295s-.171.06-.171-.143V71.006c0-.171,0-.315-.072-.279a2.338,2.338,0,0,0-.323,1.1v.8c0,.1,0,.235-.1.295s-.171.06-.171-.143V71.041a1.331,1.331,0,0,0,0-.167.187.187,0,0,1,.1-.147c.119-.072.191,0,.191.131v.231a1.3,1.3,0,0,1,.4-.749c.215-.123.275.112.283.355a1.267,1.267,0,0,1,.359-.749c.235-.135.287.139.287.4v1.143c0,.052,0,.255.1.2a1.565,1.565,0,0,0,.239-.733.247.247,0,0,1,.088-.215c.036-.02.123.048.123.155a.232.232,0,0,1,0,.04C135.745,71.34,135.606,71.938,135.3,72.093Z" transform="translate(-130.324 -60.909)" fill="#f0f0f0"/>
          <path id="패스_5138" data-name="패스 5138" d="M138.49,66.331a.57.57,0,0,1,.215-.462c.127-.072.219,0,.219.211a.562.562,0,0,1-.231.462C138.589,66.61,138.49,66.515,138.49,66.331Zm.3,2.354c0,.052,0,.255.1.2a1.565,1.565,0,0,0,.239-.733c.04-.362.235-.215.207,0-.064.4-.2.98-.514,1.155-.187.112-.3-.064-.3-.343V67.491a1.244,1.244,0,0,0,0-.167.2.2,0,0,1,.1-.151c.116-.068.191,0,.191.131Z" transform="translate(-133.223 -58.461)" fill="#f0f0f0"/>
          <path id="패스_5139" data-name="패스 5139" d="M141.1,66.306a2.038,2.038,0,0,1-.566,1.2c-.327.2-.426-.048-.426-.486V64.493a1.123,1.123,0,0,1,.327-.9c.319-.183.319.4.319.705a9.5,9.5,0,0,1-.37,2.223v.319c0,.223.056.351.187.275a1.455,1.455,0,0,0,.323-.8C140.928,65.975,141.123,66.127,141.1,66.306Zm-.717-.518a7.871,7.871,0,0,0,.151-1.35c0-.366-.04-.51-.1-.474s-.052.163-.052.251Z" transform="translate(-134.192 -57.09)" fill="#f0f0f0"/>
          <path id="패스_5140" data-name="패스 5140" d="M143.362,66.852c.056-.032.123.048.123.155a.4.4,0,0,1,0,.056,4.891,4.891,0,0,1-.522,1.53v.952c0,.582-.191.892-.374,1s-.343-.084-.343-.434a2.944,2.944,0,0,1,.442-1.418v-.681a1.024,1.024,0,0,1-.351.586c-.239.139-.4-.1-.4-.578a9.253,9.253,0,0,1,.127-1.315c.024-.108,0-.2.191-.315s.072.179.056.271a7.172,7.172,0,0,0-.1,1.2c0,.3.06.422.167.362a1.756,1.756,0,0,0,.291-.916v-1.1a.183.183,0,0,1,.092-.147c.12-.068.2,0,.2.131v1.936a4.53,4.53,0,0,0,.315-1.06C143.294,66.94,143.326,66.872,143.362,66.852Zm-.677,2.852v-.59a1.872,1.872,0,0,0-.191.833c0,.171.036.283.092.251A1.233,1.233,0,0,0,142.685,69.7Z" transform="translate(-135.299 -58.576)" fill="#f0f0f0"/>
        </g>
      </g>
      <g id="freepik--picture--inject-145-4" data-name="freepik--picture--inject-145" transform="translate(0 15.695)">
        <g id="freepik--frame--inject-145-4" data-name="freepik--frame--inject-145">
          <path id="패스_5141" data-name="패스 5141" d="M48.3,120.41l.721.43,14.759-8.524-.717-.426Z" transform="translate(-46.934 -94.001)" fill="#fafafa"/>
          <path id="패스_5142" data-name="패스 5142" d="M64.151,89.689l-14.041,8.1v-14.7l14.041-8.1Z" transform="translate(-48.023 -71.799)" fill="#fff"/>
          <path id="패스_5143" data-name="패스 5143" d="M64.175,68,46.7,78.1V96.784l17.475-10.09ZM62.817,85.925,48.078,94.45V78.915l14.739-8.552Z" transform="translate(-45.971 -67.594)" fill="#f0f0f0"/>
          <path id="패스_5144" data-name="패스 5144" d="M86.077,89.477l-.717-.426v-14.7l.717-.422Z" transform="translate(-69.231 -71.162)" fill="#e0e0e0"/>
          <path id="패스_5145" data-name="패스 5145" d="M63.074,67.4l-.729-.418L44.87,77.07l.729.414Z" transform="translate(-44.87 -66.98)" fill="#fafafa"/>
          <path id="패스_5146" data-name="패스 5146" d="M44.87,92.31l.729.414V111.41l-.729-.418Z" transform="translate(-44.87 -82.22)" fill="#e0e0e0"/>
        </g>
        <g id="freepik--Paws--inject-145" transform="translate(3.483 11.295)">
          <path id="패스_5147" data-name="패스 5147" d="M57.06,105.018a5.884,5.884,0,0,1,.307-1.836c.4-1.076,1.219-1.793,1.82-1.546a2.669,2.669,0,0,1,.773.558,1.076,1.076,0,0,1,.06,1.083,1.669,1.669,0,0,1-.884.96.681.681,0,0,1-.215.028c-.143,0-.255.116-.362.315s-.223.4-.335.574a1.083,1.083,0,0,1-.661.534C57.231,105.783,57.056,105.54,57.06,105.018Z" transform="translate(-55.687 -99.097)" fill="#f0f0f0"/>
          <path id="패스_5148" data-name="패스 5148" d="M60.027,95.389a.359.359,0,0,1,.458.068,1.471,1.471,0,0,1,.056,1.43c-.2.466-.526.729-.8.633-.37-.127-.478-.86-.219-1.5A1.2,1.2,0,0,1,60.027,95.389Z" transform="translate(-57.085 -95.335)" fill="#f0f0f0"/>
          <path id="패스_5149" data-name="패스 5149" d="M56.641,99.98a1.546,1.546,0,0,1-.335,1.032c-.247.307-.482.347-.681.235-.279-.159-.4-.5-.315-1.036s.478-1.044.84-1S56.625,99.558,56.641,99.98Z" transform="translate(-54.619 -97.668)" fill="#f0f0f0"/>
          <path id="패스_5150" data-name="패스 5150" d="M64.247,96.849a2.087,2.087,0,0,1-.355,1.2c-.275.4-.6.466-.745.159a1.777,1.777,0,0,1,.287-1.518c.283-.4.605-.454.741-.131a2.093,2.093,0,0,1,.072.295Z" transform="translate(-59.313 -95.942)" fill="#f0f0f0"/>
          <path id="패스_5151" data-name="패스 5151" d="M54.875,106.109a1.091,1.091,0,0,1-.625,1.052c-.343.108-.625-.179-.633-.637a1.107,1.107,0,0,1,.645-1.079C54.6,105.348,54.875,105.655,54.875,106.109Z" transform="translate(-53.614 -101.406)" fill="#f0f0f0"/>
          <path id="패스_5152" data-name="패스 5152" d="M74.274,106.157c-.024.167-.028.327-.068.49a1.562,1.562,0,0,1-.522.92c-.339.247-.649.311-.833.02s-.307-.267-.6-.036-.657.37-.88.084a.988.988,0,0,1-.032-.968,6.537,6.537,0,0,1,1.012-1.769c.765-.884,1.593-.825,1.781.155C74.2,105.412,74.23,105.8,74.274,106.157Z" transform="translate(-64.213 -100.713)" fill="#f0f0f0"/>
          <path id="패스_5153" data-name="패스 5153" d="M73.876,99.575a2.219,2.219,0,0,1,.227-.948,1.072,1.072,0,0,1,.609-.645c.235-.06.366.112.426.4a1.888,1.888,0,0,1-.127,1.079,1.259,1.259,0,0,1-.689.825c-.251.056-.438-.163-.462-.55A.958.958,0,0,0,73.876,99.575Z" transform="translate(-65.795 -96.92)" fill="#f0f0f0"/>
          <path id="패스_5154" data-name="패스 5154" d="M77.65,99.654a2.35,2.35,0,0,1,.617-1.514c.311-.323.637-.271.725.119a2.243,2.243,0,0,1-.494,1.689C78.064,100.447,77.65,100.312,77.65,99.654Z" transform="translate(-68.076 -96.896)" fill="#f0f0f0"/>
          <path id="패스_5155" data-name="패스 5155" d="M79.7,104.43c-.374.215-.605-.044-.514-.578a1.856,1.856,0,0,1,.852-1.275c.323-.131.51.119.438.582A1.936,1.936,0,0,1,79.7,104.43Z" transform="translate(-68.99 -99.671)" fill="#f0f0f0"/>
          <path id="패스_5156" data-name="패스 5156" d="M71.659,103.47a1.824,1.824,0,0,1-.175.8c-.211.446-.542.645-.765.47a1.412,1.412,0,0,1-.024-1.406c.207-.43.558-.633.769-.446a.8.8,0,0,1,.2.586Z" transform="translate(-63.79 -99.835)" fill="#f0f0f0"/>
        </g>
      </g>
    </g>
    <path id="패스_5157" data-name="패스 5157" d="M249.6,279.209l-46.5-26.844a7.628,7.628,0,0,0-6.9,0l-90.184,52.067a2.421,2.421,0,0,0-1.426,1.992v1.044a2.421,2.421,0,0,0,1.426,1.992l46.5,26.844a7.628,7.628,0,0,0,6.9,0L249.6,284.236a2.413,2.413,0,0,0,1.426-1.992V281.2A2.429,2.429,0,0,0,249.6,279.209Z" transform="translate(25.515 350.155)" fill="#3e86cd"/>
    <path id="패스_5158" data-name="패스 5158" d="M249.6,284.236a2.413,2.413,0,0,0,1.426-1.992V281.2Z" transform="translate(25.515 350.155)" fill="#3e86cd" opacity="0.3"/>
    <path id="패스_5159" data-name="패스 5159" d="M106.013,308.415l46.5,26.844a7.6,7.6,0,0,0,6.9,0l90.184-52.067c1.9-1.1,1.9-2.884,0-3.983l-46.5-26.844a7.628,7.628,0,0,0-6.9,0l-90.184,52.067C104.109,305.531,104.109,307.316,106.013,308.415Z" transform="translate(25.518 350.155)" fill="#4a95df"/>
    <path id="패스_5160" data-name="패스 5160" d="M218.478,272.407l38.153,22.04-77.752,44.877L140.726,317.3l77.752-44.889m0-.837L139.28,317.3l39.6,22.861,79.2-45.71-39.6-22.865Z" transform="translate(4.643 338.104)" fill="#fafafa"/>
    <path id="패스_5161" data-name="패스 5161" d="M233.542,287.429l28.437,16.416-66.794,38.567-28.437-16.42,66.794-38.563m0-.8-68.192,39.36,29.836,17.224,68.192-39.372L233.542,286.62Z" transform="translate(-10.924 329.049)" fill="#fafafa"/>
    <path id="freepik--shadow--inject-145-4" data-name="freepik--shadow--inject-145" d="M218.3,264.9,198.274,253.35l-.227.116-90.184,52.055-.2.131L127.689,317.2a7.636,7.636,0,0,0,6.9,0L218.3,268.885C220.207,267.782,220.207,266,218.3,264.9Z" transform="translate(24.003 349.066)" opacity="0.15"/>
    <g id="freepik--Couch--inject-145" transform="translate(110.712 539.127)">
      <path id="패스_5162" data-name="패스 5162" d="M148.4,387.33H142.42l.96,5.844h0a1.08,1.08,0,0,0,.582.717,3.187,3.187,0,0,0,2.884,0,1.079,1.079,0,0,0,.586-.717h0Z" transform="translate(-107.438 -270.672)" fill="#fafafa"/>
      <ellipse id="타원_35" data-name="타원 35" cx="2.996" cy="1.729" rx="2.996" ry="1.729" transform="translate(34.978 114.774)" fill="#fafafa"/>
      <path id="패스_5163" data-name="패스 5163" d="M72.185,343H66.21l.956,5.82h0a1.064,1.064,0,0,0,.578.717,3.187,3.187,0,0,0,2.888,0,1.064,1.064,0,0,0,.578-.717h0Z" transform="translate(-61.585 -244)" fill="#fafafa"/>
      <path id="패스_5164" data-name="패스 5164" d="M67.073,338.772a1.29,1.29,0,0,0,0,2.446,4.668,4.668,0,0,0,4.234,0c1.183-.665,1.183-1.769-.012-2.446A4.692,4.692,0,0,0,67.073,338.772Z" transform="translate(-61.576 -241.078)" fill="#fafafa"/>
      <path id="패스_5165" data-name="패스 5165" d="M186.869,136v27.711a6.4,6.4,0,0,1-2.9,5.011l-.837.484-.04.02a6.515,6.515,0,0,1-3.617.619L104.651,211.23a6.429,6.429,0,0,1-2.86,4.8h-.028l-.833.484a1.141,1.141,0,0,1-.219.111.837.837,0,0,1-.119.06h-.036a6.616,6.616,0,0,1-4.489.206,4.672,4.672,0,0,1-.5-.187.16.16,0,0,1-.08-.036c-.12-.052-.235-.111-.343-.171l-37.651-21.64a6.381,6.381,0,0,1-2.892-4.995V146.979a6.4,6.4,0,0,1,2.9-5L140.53,94.158a6.392,6.392,0,0,1,5.788,0l2.358,1.35a7.67,7.67,0,0,1,3.334,4.971l2.275,13.448L183.973,131a6.4,6.4,0,0,1,2.9,5Z" transform="translate(-54.6 -93.466)" fill="#37474f"/>
      <path id="패스_5166" data-name="패스 5166" d="M148.718,95.52l-2.358-1.362a6.413,6.413,0,0,0-5.788,0L57.534,142.134c-.171.1-.355.227-.3.183a6.616,6.616,0,0,0-2.565,4.342c.211-1.478,1.414-2.012,2.86-1.2l2.358,1.362a6.373,6.373,0,0,0,5.788,0l83.042-47.968C150.315,97.938,150.315,96.444,148.718,95.52Z" transform="translate(-54.642 -93.467)" fill="#455a64"/>
      <path id="패스_5167" data-name="패스 5167" d="M327.435,167.144v27.8a6.425,6.425,0,0,1-2.9,5.027l-.837.486-.04.02a6.15,6.15,0,0,1-3.39.641,5.664,5.664,0,0,1-2.358-.661l-26.788-15.487a6.425,6.425,0,0,1-2.9-5.015V152.17a6.405,6.405,0,0,1,2.9-5.015L294.85,145l29.688,17.129a6.425,6.425,0,0,1,2.9,5.015Z" transform="translate(-195.166 -124.593)" fill="#263238"/>
      <path id="패스_5168" data-name="패스 5168" d="M297.413,145l-3.728,2.155c-1.593.92-1.593,2.422,0,3.342l26.792,15.468a6.421,6.421,0,0,1,2.888,5v27.808c0,1.836,1.3,2.589,2.892,1.669l.837-.482a6.425,6.425,0,0,0,2.892-5.011v-27.8a6.425,6.425,0,0,0-2.884-5.019Z" transform="translate(-197.729 -124.592)" fill="#455a64"/>
      <path id="패스_5169" data-name="패스 5169" d="M368.724,200.118v27.808c0,1.836,1.3,2.589,2.892,1.669l.837-.482a6.425,6.425,0,0,0,2.892-5.011V196.3a5.947,5.947,0,0,0-.848-2.848l-6.616,3.8a5.911,5.911,0,0,1,.844,2.864Z" transform="translate(-243.088 -153.804)" fill="#37474f"/>
      <path id="패스_5170" data-name="패스 5170" d="M208.535,250.962a6.979,6.979,0,0,1-1.06,1.593,12.682,12.682,0,0,1-2.721,1.9c-10.162,5.879-56.927,32.891-67.124,38.766a3.187,3.187,0,0,1-2.892,0l-9.4-5.433-18.826-10.875a5.433,5.433,0,0,1,0-9.608l10.679-6.166,8.146-4.7L173.6,228.559a6.421,6.421,0,0,1,5.788,0l26.788,15.472a6.225,6.225,0,0,1,2.9,4.808A5.179,5.179,0,0,1,208.535,250.962Z" transform="translate(-84.093 -174.731)" fill="#263238"/>
      <path id="패스_5171" data-name="패스 5171" d="M186.86,314.851l69.968-40.428c.8-.458,1.45-.088,1.45.837v2.928a3.187,3.187,0,0,1-1.45,2.506L186.86,321.117c-.8.462-1.45.088-1.45-.833v-2.928a3.187,3.187,0,0,1,1.45-2.506Z" transform="translate(-133.303 -202.623)" fill="#37474f"/>
      <path id="패스_5172" data-name="패스 5172" d="M173.592,192.554,106.516,231.3a6.373,6.373,0,0,0-2.9,5.015v5.856a6.4,6.4,0,0,0,2.9,5.011l26.792,15.468a6.374,6.374,0,0,0,5.788,0L206.173,223.9a6.373,6.373,0,0,0,2.9-5.011v-5.868a6.373,6.373,0,0,0-2.9-5.011L179.38,192.546A6.373,6.373,0,0,0,173.592,192.554Z" transform="translate(-84.093 -153.063)" fill="#37474f"/>
      <path id="패스_5173" data-name="패스 5173" d="M136.2,310.678v12.548a5.9,5.9,0,0,1-2.9-.7l-26.792-15.464a6.4,6.4,0,0,1-2.9-5.015v-5.856a6.477,6.477,0,0,1,2.6-4.824c-1.3.928-1.2,2.29.295,3.155l26.792,15.464a5.92,5.92,0,0,0,2.9.689Z" transform="translate(-84.093 -212.937)" fill="#263238"/>
      <path id="패스_5174" data-name="패스 5174" d="M141.665,250.121l67.076-38.751c1.593-.924,1.593-2.418,0-3.342L181.949,192.56a6.374,6.374,0,0,0-5.788,0l-67.076,38.751c-1.593.924-1.593,2.422,0,3.342l26.792,15.468A6.373,6.373,0,0,0,141.665,250.121Z" transform="translate(-86.662 -152.909)" fill="#455a64"/>
    </g>
    <g id="freepik--Bottom--inject-145" transform="translate(189.617 577.394)">
      <path id="패스_5175" data-name="패스 5175" d="M335.9,283.168s-2.729,6.688-2.868,9.325c-.143,2.749-.8,3.661-.343,6.652.1.649.442,1.956.53,2.486a.8.8,0,0,1-.709.972c-1.2.247-3.187-1.992-4.115-4.43a72.1,72.1,0,0,1-2.362-8.6,3.753,3.753,0,0,1,.378-1.924,6.038,6.038,0,0,1,.546-1c.4-1.2.586-3.47.916-5.043Z" transform="translate(-297.077 -244.931)" fill="#ffa8a7"/>
      <path id="패스_5176" data-name="패스 5176" d="M319.708,307.9a2.855,2.855,0,0,0-.319.9c-.028.546,1.2,2.354,1.7,3.011a4.382,4.382,0,0,1,.892,3.127,7.611,7.611,0,0,0,1.836,4.892,12.1,12.1,0,0,0,6,3.924c2.9.892,3.916-.562,3.916-.562s.9-1.394.359-1.968S319.708,307.9,319.708,307.9Z" transform="translate(-293.083 -260.749)" fill="#263238"/>
      <path id="패스_5177" data-name="패스 5177" d="M323.448,294.269c-.088,0-.243-.028-.47.247-.084.1-.613,1.406-1.052,2.091s-1.593,1.992-1.737,3.091c.673,2.147,2.685,3.641,2.988,5.664s.335,4.382,3.45,6.859,6.318,2.737,7.469,2.079,1.048-1.888-.558-4.238c-1.7-2.49-2.852-7.891-2.852-7.9-.211-.94-.028-2.525-.964-3.107a3.522,3.522,0,0,0-1.5-.4,2.544,2.544,0,0,0-1.733.223,1.992,1.992,0,0,0-.725,1.334,11.629,11.629,0,0,1-.271,1.534c-.048.159-.143.335-.307.359-.247.036-.4-.275-.43-.522l-.745-3.892-.366-1.9A3.842,3.842,0,0,1,323.448,294.269Z" transform="translate(-293.565 -252.547)" fill="#37474f"/>
      <path id="패스_5178" data-name="패스 5178" d="M347.942,306.14s1.35,8.158,2.856,11.321a26.281,26.281,0,0,0,4.346,7.09c.45.518,1.478,1.49,1.848,1.912a.8.8,0,0,1-.088,1.255c-.92.88-4.824,1.091-7.015-.55s-4.183-5.139-5.485-6.457c-.49-.5-.952-1-1.394-1.542s-.307-1.012-.343-1.593c0-.283.02-1.048.02-1.048-.3-1.374-1.107-3.529-1.538-4.868Z" transform="translate(-306.176 -259.69)" fill="#ffa8a7"/>
      <path id="패스_5179" data-name="패스 5179" d="M343.069,347.69a2.988,2.988,0,0,0,.1,1c.219.53,2.195,1.685,2.952,2.091a4.613,4.613,0,0,1,2.239,2.557,7.959,7.959,0,0,0,3.928,3.812,12.64,12.64,0,0,0,7.425,1.024c3.139-.45,3.458-2.279,3.458-2.279s.223-1.725-.542-2.024S343.069,347.69,343.069,347.69Z" transform="translate(-307.326 -284.689)" fill="#263238"/>
      <path id="패스_5180" data-name="패스 5180" d="M343.546,331.14c-.084.04-.243.084-.335.442-.036.139.048,1.593-.064,2.45s-.617,2.585-.259,3.7c1.593,1.733,4.167,2.247,5.358,4.027s2.275,3.983,6.33,4.951,7.2-.235,7.995-1.37.147-2.255-2.422-3.76c-2.725-1.593-6.222-6.194-6.226-6.2a19.524,19.524,0,0,1-1.311-2.04c-.243-.426-.207-.84-.825-.924a2.278,2.278,0,0,0-.892.112,17.261,17.261,0,0,0-1.717.558,1.2,1.2,0,0,0-.709.5,1.271,1.271,0,0,0,.032.9l.9,3.1a8.97,8.97,0,0,1-2.693-3.127,8.619,8.619,0,0,0-1.518-1.856,4.18,4.18,0,0,0-.932-.621c-.124-.06-.454-.112-.538-.207s-.052-.255-.088-.271A1.446,1.446,0,0,1,343.546,331.14Z" transform="translate(-307.146 -274.731)" fill="#455a64"/>
      <path id="패스_5181" data-name="패스 5181" d="M308.385,189.53c3.342,2.45,14.99,9.162,19.718,13.544,1.366,1.263,1.816,2.928,1.482,6.557-.458,4.923-4.326,21.706-4.326,21.706-.534.948-1.47-.848-1.47-.848l-18.459-23.43Z" transform="translate(-284.624 -189.53)" fill="#4a95df"/>
      <path id="패스_5182" data-name="패스 5182" d="M308.385,189.53c3.342,2.45,14.99,9.162,19.718,13.544,1.366,1.263,1.816,2.928,1.482,6.557-.458,4.923-4.326,21.706-4.326,21.706-.534.948-1.47-.848-1.47-.848l-18.459-23.43Z" transform="translate(-284.624 -189.53)" opacity="0.3"/>
      <path id="패스_5183" data-name="패스 5183" d="M326.085,232.415c-4.27-3.585-18.065-25.334-18.065-25.334h0c1.876-1.593,2.844-7.09,2.844-7.09.745,2.123-.04,5.326-.617,6.5,1.083.94,7.222,5.975,11.484,9.361a6.094,6.094,0,0,1,2.529,3.82A117.064,117.064,0,0,1,326.085,232.415Z" transform="translate(-286.243 -195.823)" opacity="0.3"/>
      <path id="패스_5184" data-name="패스 5184" d="M277.111,189.53h0l-23.761,5.258c1.163,4.382,1.494,6.612,2.7,8.911s2.557,4.78,8.74,7.8c5.947,2.928,13.217,5.943,14.671,6.636,1.1.522,1.617,2.713,2.111,5.553a33.621,33.621,0,0,0,3.513,11.552c2.884,6.122,3.474,7.445,3.474,7.445s4.465.462,7.429-2.143c0,0-4.043-20.993-4.9-24.769-.482-2.111-.494-3.227-3.111-5.545-2.247-1.992-12.281-9.58-12.281-9.58S279.688,195.294,277.111,189.53Z" transform="translate(-253.35 -189.53)" fill="#4a95df"/>
      <path id="패스_5185" data-name="패스 5185" d="M277.111,189.53h0l-23.761,5.258c1.163,4.382,1.494,6.612,2.7,8.911s2.557,4.78,8.74,7.8c5.947,2.928,13.217,5.943,14.671,6.636,1.1.522,1.617,2.713,2.111,5.553a33.621,33.621,0,0,0,3.513,11.552c2.884,6.122,3.474,7.445,3.474,7.445s4.465.462,7.429-2.143c0,0-4.043-20.993-4.9-24.769-.482-2.111-.494-3.227-3.111-5.545-2.247-1.992-12.281-9.58-12.281-9.58S279.688,195.294,277.111,189.53Z" transform="translate(-253.35 -189.53)" opacity="0.3"/>
    </g>
    <g id="freepik--Top--inject-145" transform="translate(186.854 522.658)">
      <path id="패스_5186" data-name="패스 5186" d="M318.249,135.622c-.072-.287-.163-.594-.279-.916-.068-.191-.139-.4-.219-.594-.056-.127-.112-.271-.175-.422l-.2-.47c-.06-.135-.12-.271-.183-.4-.128-.275-.263-.554-.4-.84-.072-.143-.143-.287-.219-.43s-.147-.291-.227-.438c-.151-.291-.311-.586-.474-.88l-.263-.466c-2.131-3.784-4.971-7.967-6.672-10.536-1.956-2.972-3.115-3.9-6.855-3.693,0,0,.271,4.848,1.016,10.683l2.788,5.087,3.625,6.6-3.43,2.685h0a15.172,15.172,0,0,0,1.856,3.828q.1.131.191.251a4.608,4.608,0,0,0,.8.8l.131.1.131.088a1.5,1.5,0,0,0,.135.08l.135.072.135.06.139.052.139.044.143.036.223.032h.4a2.471,2.471,0,0,0,.283-.048h.048l.135-.04a1.593,1.593,0,0,0,.179-.064l.072-.028a3.277,3.277,0,0,0,.319-.151h0c.231-.127.458-.251.673-.4a5.521,5.521,0,0,1,.55-.311l.076-.044.6-.359.4-.247.119-.076h0C319.368,141.008,319.177,139.323,318.249,135.622Z" transform="translate(-279.87 -90.26)" fill="#ffa8a7"/>
      <path id="패스_5187" data-name="패스 5187" d="M322.344,156.675a8.5,8.5,0,0,1-2.263,7.712l-.143,1.374h0l-.119.076-.4.247-.6.359-.076.044c-.179.1-.358.207-.55.311s-.442.251-.673.4h0a3.264,3.264,0,0,1-.319.151h-.112l-.139.052-.135.04h-.048a2.468,2.468,0,0,1-.283.048h-.418l-.223-.032-.143-.036-.139-.044-.139-.052-.135-.06-.135-.072a1.509,1.509,0,0,1-.135-.08l-.131-.088-.131-.1c-1.1-.86-2.044-2.625-2.836-4.9l3.43-2.685-3.625-6.6,9.672-1.494.263.466c.163.295.323.59.474.88.08.147.155.295.227.438s.147.287.219.43c.143.287.279.566.4.84.064.135.124.271.183.4l.2.47c.064.151.12.295.175.422.08.2.151.4.219.594a4.211,4.211,0,0,1-1.41.486Z" transform="translate(-285.67 -111.763)" fill="#f28f8f"/>
      <path id="패스_5188" data-name="패스 5188" d="M302.67,115.132a6.417,6.417,0,0,1,6.095,2.5,72.236,72.236,0,0,1,7.927,13.217,19.5,19.5,0,0,1-9.19,4.74l-4.832-10.265Z" transform="translate(-280.225 -90.016)" fill="#4a95df"/>
      <path id="패스_5189" data-name="패스 5189" d="M251.772,117.105c-.4,2.071-4.322,21.749.151,36.424,8.058.948,22.207-2.749,24.331-8.082,0,0-1.43-5.063-2.051-7.537.131-4.059,0-11.807-.08-14.2-.163-4.748-.9-8.425-3.262-8.763a64.131,64.131,0,0,0-7.6-.068,52.309,52.309,0,0,0-11.492,2.231Z" transform="translate(-248.415 -89.819)" fill="#fafafa"/>
      <path id="패스_5190" data-name="패스 5190" d="M267.122,73.82c-.064-1.016,1.753-4.143,2.525-6.585,1.3-4.083,1.267-7.7-2.446-9.1a9.663,9.663,0,0,0-8.2-3.764c-5.748.06-9.958,5.1-7.752,11.5Z" transform="translate(-248.927 -53.473)" fill="#37474f"/>
      <path id="패스_5191" data-name="패스 5191" d="M266.209,77.079c.749-.032.972-1.119,1.462-1.721a2.219,2.219,0,0,1,3.45.275c1.131,1.486.2,3.744-.924,4.653-1.406,1.143-2.211.139-2.211.139l.231,8.007s1.908,3.3-1.51,3.952c-4.218.8-5.975-1.593-6.7-3.107l-.219-2.816a15.253,15.253,0,0,1-3.517.155,3.911,3.911,0,0,1-3.529-2.92A30.115,30.115,0,0,1,252.781,70c1.311.94,7.238,2.553,12.42.462C265.17,73.7,265.476,77.114,266.209,77.079Z" transform="translate(-249.723 -62.878)" fill="#ffa8a7"/>
      <path id="패스_5192" data-name="패스 5192" d="M271.6,104.5a14.412,14.412,0,0,0,4.262-1.593,7.918,7.918,0,0,0,1.972-2.92,10.662,10.662,0,0,1-1.334,3.438c-1.446,1.8-4.8,2.083-4.8,2.083Z" transform="translate(-261.531 -80.922)" fill="#f28f8f"/>
      <path id="패스_5193" data-name="패스 5193" d="M271.249,87.1a.8.8,0,0,0,.817.8.829.829,0,1,0-.817-.8Z" transform="translate(-261.32 -72.649)" fill="#263238"/>
      <path id="패스_5194" data-name="패스 5194" d="M273.12,80.607l1.761.829a1.02,1.02,0,0,0-.482-1.326.956.956,0,0,0-1.279.5Z" transform="translate(-262.446 -68.908)" fill="#263238"/>
      <path id="패스_5195" data-name="패스 5195" d="M254.565,80.025l1.9-.486a.94.94,0,0,0-1.159-.725A1.032,1.032,0,0,0,254.565,80.025Z" transform="translate(-251.268 -68.163)" fill="#263238"/>
      <path id="패스_5196" data-name="패스 5196" d="M255.73,86.036a.8.8,0,1,0,.245-.575A.8.8,0,0,0,255.73,86.036Z" transform="translate(-251.983 -72.046)" fill="#263238"/>
      <path id="패스_5197" data-name="패스 5197" d="M269.09,98.3l-3.37,1.231a1.884,1.884,0,0,0,2.366,1.091,1.753,1.753,0,0,0,1-2.322Z" transform="translate(-257.993 -79.905)" fill="#b16668"/>
      <path id="패스_5198" data-name="패스 5198" d="M270.861,100.318a1.53,1.53,0,0,1,.558.084,1.721,1.721,0,0,1-1.115,1.434,1.773,1.773,0,0,1-.9.076h0a1.522,1.522,0,0,1,1.454-1.593Z" transform="translate(-260.211 -81.119)" fill="#f28f8f"/>
      <path id="패스_5199" data-name="패스 5199" d="M248.772,60.087c-2.04-.729-2.127-1.713-2.1-2.183a.976.976,0,0,1,.884-.936,4.079,4.079,0,0,1-1.052-1.2,1.4,1.4,0,0,1,.072-1.506,1.454,1.454,0,0,1,.98-.454,6.875,6.875,0,0,1,1.107.032c1.936.123,3.489-.733,5.286-1.243a12.974,12.974,0,0,1,5.477-.331c3.143.462,5.075,2.753,5.155,4.5a6.428,6.428,0,0,1-2.788,2.924l-.1.08a10.831,10.831,0,0,1-3.645,1.892,11.325,11.325,0,0,1-2.709.574c-1.139.108-3.665.052-4.565-.952-.37-.4.06-.86.351-.94a8.624,8.624,0,0,1-2.1-.191A1.6,1.6,0,0,1,248.772,60.087Z" transform="translate(-246.323 -52.121)" fill="#37474f"/>
      <path id="패스_5200" data-name="패스 5200" d="M261.873,89.324l-2.733-.183a11.986,11.986,0,0,1,2.733-4.7Z" transform="translate(-254.034 -71.566)" fill="#f28f8f"/>
    </g>
    <g id="freepik--Babie--inject-145" transform="translate(192.204 552.973)">
      <path id="패스_5201" data-name="패스 5201" d="M289.986,156.406c.645.988,1.223,4.617-2.39,8.293s-8.214,6.724-14.982,7.055-13.492-2.617-12.8-7.17,6.628-5.648,9.3-6.668,6.553-6.111,11.616-5.923S289.986,156.406,289.986,156.406Z" transform="translate(-259.766 -142.522)" fill="#ba68c8"/>
      <path id="패스_5202" data-name="패스 5202" d="M289.986,156.406c.645.988,1.223,4.617-2.39,8.293s-8.214,6.724-14.982,7.055-13.492-2.617-12.8-7.17,6.628-5.648,9.3-6.668,6.553-6.111,11.616-5.923S289.986,156.406,289.986,156.406Z" transform="translate(-259.766 -142.522)" fill="#fff" opacity="0.7"/>
      <path id="패스_5203" data-name="패스 5203" d="M290.052,158.61a18.252,18.252,0,0,0-4.167-2.96c-3.115.514-5.951,1.318-5.131,2.494,1.685,2.39,4.884,2.1,6.218,2.39s.474,2.529-.12,4.382-4.179,3.075-4.445,2.713.167-1.593.458-2.713a1,1,0,0,0-.8-1.3s-2.788,4.33-5.334,4.732-9.815-1.358-11.277-2.3-1.2-3.127,0-4.621c-2.506.968-5.091,2.462-5.533,5.378-.693,4.557,6.031,7.5,12.8,7.17a21.617,21.617,0,0,0,14.982-7.055C291.3,163.238,290.7,159.6,290.052,158.61Z" transform="translate(-259.832 -144.725)" opacity="0.05"/>
      <path id="패스_5204" data-name="패스 5204" d="M318.825,135.247a3.187,3.187,0,0,1-3.187,3.187,2.628,2.628,0,0,1-2.414-2.35,4.219,4.219,0,0,1,.271-2.067,2.753,2.753,0,0,1,1.215-1.518,2.39,2.39,0,0,1,1.123-.4,2.761,2.761,0,0,1,1.414.4,3.231,3.231,0,0,1,1.577,2.749Z" transform="translate(-291.912 -130.556)" fill="#455a64"/>
      <path id="패스_5205" data-name="패스 5205" d="M322.065,140.15c0,1.912-.446,3.215-1.9,4.23a9.347,9.347,0,0,1-4.665,2.083c-2.9.279-5.469-.733-6.684-3.075a3.585,3.585,0,0,1-.275-2.569,8.742,8.742,0,0,1,1.111-2.028c.394-.661.566-1.426.928-2.111a5.852,5.852,0,0,1,1.311-1.637,5.008,5.008,0,0,1,1.717-1.107,6.187,6.187,0,0,1,1.992-.307,6.373,6.373,0,0,1,6.461,6.521Z" transform="translate(-289.041 -131.476)" fill="#b16668"/>
      <path id="패스_5206" data-name="패스 5206" d="M325.46,150.39c0,.108-.155-.211-.546-.466a1.219,1.219,0,0,0-.8-.187,1.6,1.6,0,0,0-.2.04c-.108.032-.1-.116.1-.251a.964.964,0,0,1,.4-.155.94.94,0,0,1,1.04.817A.867.867,0,0,1,325.46,150.39Z" transform="translate(-298.323 -140.944)" fill="#263238"/>
      <path id="패스_5207" data-name="패스 5207" d="M315.832,145.564c-.02.1-.116-.2-.438-.474a1.1,1.1,0,0,0-.705-.255,1.365,1.365,0,0,0-.183,0c-.1,0-.072-.112.123-.215a.821.821,0,0,1,.4-.092.8.8,0,0,1,.84.84.917.917,0,0,1-.036.2Z" transform="translate(-292.667 -138.033)" fill="#263238"/>
      <path id="패스_5208" data-name="패스 5208" d="M317.087,151.019c-.347-.12-.856.183-.55.418s1.171.693,1.2.478a1.219,1.219,0,0,0-.645-.9Z" transform="translate(-293.866 -141.923)" fill="#9a4a4d"/>
      <path id="패스_5209" data-name="패스 5209" d="M315.76,155.9l1.4.3a.717.717,0,0,1-1.4-.3Z" transform="translate(-293.452 -144.876)" fill="#9a4a4d"/>
      <path id="패스_5210" data-name="패스 5210" d="M328.835,137.5a5.119,5.119,0,0,1-2.82,4.577,6.848,6.848,0,0,1-1.546.5h-.02a4.074,4.074,0,0,1-.482.048h-.048a.914.914,0,0,1-.143,0,1.779,1.779,0,0,1-.227,0,3.749,3.749,0,0,0,.8-1.789c.279.458,1.195.215,1.518-.155a1.5,1.5,0,0,0,.45-1.51.988.988,0,0,0-1.414-.418c-.219.167-.367.466-.641.5a.374.374,0,0,1-.207-.04.566.566,0,0,1-.3-.422,1.2,1.2,0,0,1,.187-.717,2.932,2.932,0,0,0,.3-.689c.143-.717-.486-1.458-.231-2.143.1-.271.331-.57.163-.8a.593.593,0,0,0-.331-.187c-1.06-.307-2.171-.4-3.211-.761l-.08-.032a3.5,3.5,0,0,1-2.3-2.075,4.31,4.31,0,0,1-.135-.8,2.92,2.92,0,0,1,0-.912,2.346,2.346,0,0,1,.641-1.283.45.45,0,0,1,.45-.163c.175.072.2.3.247.486a1.267,1.267,0,0,0,.554.769c.052-.175.068-.359.112-.534a1.147,1.147,0,0,1,.211-.5.55.55,0,0,1,.478-.211c.223.032.251.187.327.351a3.573,3.573,0,0,0,.211.331,2.681,2.681,0,0,0,.737.8c.88.59,3.585.331,5.178,2.159a3.107,3.107,0,0,1,.582,2.669v.02l.076.072h0A5.091,5.091,0,0,1,328.835,137.5Z" transform="translate(-294.851 -128.224)" fill="#455a64"/>
      <path id="패스_5211" data-name="패스 5211" d="M326.041,154.7a1.569,1.569,0,1,1-1.538-1.247A1.415,1.415,0,0,1,326.041,154.7Z" transform="translate(-297.793 -143.402)" fill="#f28f8f" opacity="0.4"/>
      <path id="패스_5212" data-name="패스 5212" d="M310.471,147.678a1.406,1.406,0,1,1-.446-1.82A1.33,1.33,0,0,1,310.471,147.678Z" transform="translate(-288.68 -138.686)" fill="#f28f8f" opacity="0.4"/>
    </g>
    <g id="freepik--Arm--inject-145" transform="translate(183.619 549.944)">
      <path id="패스_5213" data-name="패스 5213" d="M245.277,121.17c-3.047.47-5.505,1.968-6.035,8.15a152.558,152.558,0,0,0,0,20.017c.259,2.338,1.2,4.195,4.258,4.816a73.754,73.754,0,0,0,20.6.307c3.5-.522,7.632-2.159,9.381-3.983a12.681,12.681,0,0,0,1.565-4.31,7.738,7.738,0,0,1-5.66,1.892.9.9,0,0,1-.745-.49,1.227,1.227,0,0,1,.08-.9c.4-1.052,1.131-2.051,1.016-3.215a.757.757,0,0,0-.311-.6.685.685,0,0,0-.649.036c-.693.359-.964,1.247-1.546,1.737a9.07,9.07,0,0,0-1.82,2.322c-.3.506-.4,1.111-.9,1.458a3.684,3.684,0,0,1-1.844.43c-2.956.183-14.161-2.259-14.161-2.259l.446-13.994S251.257,123.05,245.277,121.17Z" transform="translate(-238.619 -120.951)" fill="#ffa8a7"/>
      <path id="패스_5214" data-name="패스 5214" d="M244.777,120.62c-1.884.466-4.322,1.064-5.513,4.573s-1.1,7.29-1.083,10.644.163,9.835.163,9.835,5.975,1.434,9.783-.872l.888-13.44S250.724,122.739,244.777,120.62Z" transform="translate(-238.173 -120.62)" fill="#4a95df"/>
    </g>
    <g id="freepik--characters--inject-145" transform="translate(134.006 546.222)">
      <g id="freepik--bottom--inject-145-2" data-name="freepik--bottom--inject-145" transform="translate(8.607 56.385)">
        <path id="패스_5215" data-name="패스 5215" d="M247.719,377.75c-.478,0-.47.8-.713,1.852a5.262,5.262,0,0,0,0,3.107c.45,1.291,2.529,1.466,3.625,3.159s2.689,4.744,6.373,5.625,6.569-.283,7.29-1.374.123-2.159-2.223-3.585c-2.494-1.506-3.187-1.948-3.187-1.948Z" transform="translate(-202.268 -328.388)" fill="#263238"/>
        <path id="패스_5216" data-name="패스 5216" d="M251.394,361.73a55.77,55.77,0,0,0,2.143,6.373,26.2,26.2,0,0,0,4.577,6.577c.4.45,1.33,1.283,1.661,1.645a.713.713,0,0,1-.048,1.1c-.8.8-3.844.984-5.8-.4s-3.661-4.569-4.836-5.7c-.438-.426-1.295-.94-1.693-1.4a2.227,2.227,0,0,1-.673-1.235,10.691,10.691,0,0,0-.566-2.47c-.534-1.554-.657-1.944-1.06-3.111Z" transform="translate(-201.263 -318.749)" fill="#b16668"/>
        <path id="패스_5217" data-name="패스 5217" d="M137.61,255.782l10.7,3.478c1.334,3.772,2.9,7.246,8.2,10.178,4.382,2.43,12.687,6.194,13.942,6.859s1.478,1.908,1.844,4.183c.4,2.446.49,4.557,3.8,10.448,2.976,5.294,4.716,8.712,4.716,8.712a7.57,7.57,0,0,0,6.346-1.936s-4.6-21.972-5.505-25.259a8.612,8.612,0,0,0-2.884-4.876c-5.975-5.2-19.889-13.739-19.889-13.739Z" transform="translate(-136.59 -253.83)" fill="#263238"/>
        <path id="패스_5218" data-name="패스 5218" d="M186.883,272.327a8.763,8.763,0,0,0,.8-4.457s-.649,3.079-2.589,4.545l8.365,9.676,3.88,1.84C197.327,283.262,189.934,274.638,186.883,272.327Z" transform="translate(-165.157 -262.277)"/>
        <path id="패스_5219" data-name="패스 5219" d="M212.511,395.379c-.478-.036-.709.9-1.016,1.928a5.282,5.282,0,0,0-.2,3.1c.374,1.318,2.629,1.729,3.621,3.485s2.39,4.892,6.051,5.975,6.573.1,7.357-.94.251-2.147-2.012-3.7c-2.39-1.645-3.075-2.131-3.075-2.131Z" transform="translate(-180.839 -338.993)" fill="#263238"/>
        <path id="패스_5220" data-name="패스 5220" d="M214.195,369.87s1.514,8.425,2.414,10.791a26.1,26.1,0,0,0,4.187,6.832c.4.474,1.251,1.358,1.562,1.741a.717.717,0,0,1-.116,1.1c-.837.745-4.274.8-6.142-.709s-3.238-4.927-4.27-6.19c-.609-.753-1.1-1.159-1.466-1.645s-.645-.765-.629-1.275a7.748,7.748,0,0,0-.442-2.39c-.51-1.558-2.306-5.9-2.641-7.094Z" transform="translate(-178.129 -323.647)" fill="#b16668"/>
        <path id="패스_5221" data-name="패스 5221" d="M136.07,255.794c-.868,3.7-1.554,4.991-.442,8.831s4.7,7.457,9.811,10.7c4.234,2.677,8.154,5.214,10.755,6.772,1.215.725,1.88,2.844,2.223,5.238a31.99,31.99,0,0,0,3.27,10.723c2.585,5.485,3.677,8.337,3.677,8.337a9.355,9.355,0,0,0,6.62-2.1s-3.35-20.714-3.983-24.072c-.494-2.7-1.052-3.585-1.649-4.382-3.187-4.147-11.882-12.309-11.882-12.309s1.757-5.995,2.852-9.676Z" transform="translate(-135.05 -253.842)" fill="#263238"/>
      </g>
      <path id="freepik--arm--inject-145-2" data-name="freepik--arm--inject-145" d="M208.211,186.238c-1.163,1.554-3.155,2.669-3.764,2.6a12.054,12.054,0,0,0,.821-1.936c.116-.852-.422-1.382-.737-1.37s-.458.884-1.131,1.593a8.764,8.764,0,0,0-1.96,2.856c-.2.466-.478,1.147-.94,1.374-2.314,1.147-7.7,3.848-11.448,4.537-1.016-2.749-2.733-6.927-3.888-10.325-1.673-4.931-4.226-6.537-9.042-6.134l-.211,4.844c1.745,4.222,6.557,14.6,8.094,16.81,1.932,2.788,3.585,2.553,6.027,1.757a51.253,51.253,0,0,0,10.691-5.246c2.31-1.414,4.242-2.151,5.808-3.083,4.163-2.482,6.222-5.075,6.186-6.218C212.617,185.107,209.761,184.175,208.211,186.238Z" transform="translate(-151.027 -152.646)" fill="#b16668"/>
      <g id="freepik--Kid--inject-145" transform="translate(41.835 11.574)">
        <path id="패스_5222" data-name="패스 5222" d="M254.2,274.319c2.709,1.565,11.926-3.422,15.571-5.509s4.4-4.382,1.713-6.039-11.154.825-14.631,4.039S252.678,273.227,254.2,274.319Z" transform="translate(-239.508 -214.08)" fill="#ba68c8"/>
        <g id="그룹_2454" data-name="그룹 2454" transform="translate(13.931 48.162)" opacity="0.5">
          <path id="패스_5223" data-name="패스 5223" d="M254.2,274.319c2.709,1.565,11.926-3.422,15.571-5.509s4.4-4.382,1.713-6.039-11.154.825-14.631,4.039S252.678,273.227,254.2,274.319Z" transform="translate(-253.439 -262.242)" fill="#fff"/>
        </g>
        <g id="그룹_2455" data-name="그룹 2455" transform="translate(13.931 48.162)" opacity="0.1">
          <path id="패스_5224" data-name="패스 5224" d="M254.2,274.319c2.709,1.565,11.926-3.422,15.571-5.509s4.4-4.382,1.713-6.039-11.154.825-14.631,4.039S252.678,273.227,254.2,274.319Z" transform="translate(-253.439 -262.242)"/>
        </g>
        <path id="패스_5225" data-name="패스 5225" d="M254.992,244c-.343,2.832-.669,6.334,1,9.162,1.247,2.1,2.518,3.1,6.154,4.127,3.27.928,6.186,1.542,6.186,1.542a14.451,14.451,0,0,0,.211,4.748c.4,1.864,1.8,6.975,1.8,6.975s2.788,1.51,4.939-.546c0,0,.474-9.56.378-11.62s.868-4.043-3.41-6.565c-.558-.327-12.09-6.035-12.09-6.035Z" transform="translate(-240.276 -203.105)" fill="#f28f8f"/>
        <path id="패스_5226" data-name="패스 5226" d="M296.988,300.965s.131-2.653.243-5.465a6.1,6.1,0,0,1-2.633,1.151,14.221,14.221,0,0,1-3.808.159c.55,2.151,1.259,4.7,1.259,4.7S294.857,303.021,296.988,300.965Z" transform="translate(-261.981 -234.09)" fill="#f0f0f0"/>
        <path id="패스_5227" data-name="패스 5227" d="M265.748,267.415a7.983,7.983,0,0,0-2.585-2.824l-4.071-3.043-3.912-2.127a8.851,8.851,0,0,0,1.076,2.992c1.247,2.1,2.518,3.1,6.154,4.127C263.625,266.881,264.772,267.176,265.748,267.415Z" transform="translate(-240.555 -212.382)" fill="#b16668"/>
        <path id="패스_5228" data-name="패스 5228" d="M293.173,317.08l13.042,2.86.187.064a1.074,1.074,0,0,1-.514,1.263,8.79,8.79,0,0,1-5.637.976c-2.219-.378-3.8-2.155-4.274-2.514-.84-.629-2.259-.582-2.585-.848A2.843,2.843,0,0,1,293.173,317.08Z" transform="translate(-263.379 -247.074)" fill="#455a64"/>
        <path id="패스_5229" data-name="패스 5229" d="M298.749,305.614a3.186,3.186,0,0,1,.207.908,2.044,2.044,0,0,0,.645.984,10.842,10.842,0,0,0,2.45,1.717,23.276,23.276,0,0,0,2.557,1.151,1.9,1.9,0,0,1,1.091,2.45,5.147,5.147,0,0,1-2.844,1.323,6.869,6.869,0,0,1-4.935-.538c-1.2-.6-1.593-1.3-2.788-1.888-.482-.239-1.884-.339-2.5-1.028a4.2,4.2,0,0,1-.239-2.279,8.024,8.024,0,0,0,.036-1.275c-.024-.434-.2-.653-.191-1.06,0-.088,0-.307.235-.327l.247.562c.3.633,1.414.705,2.1.574-.056-.486-.159-.677.036-.948a2.018,2.018,0,0,1,1.171-.534,7.919,7.919,0,0,1,1.816-.147,1.171,1.171,0,0,1,.765.183A.631.631,0,0,1,298.749,305.614Z" transform="translate(-262.853 -239.958)" fill="#fea42e"/>
        <path id="패스_5231" data-name="패스 5231" d="M315.2,319.894c.486-1.318,0-2.366-1.593-2.856a6.184,6.184,0,0,0-4.848,1.167c-.864.769-1.342,1.7-.821,2.721a7.466,7.466,0,0,0,4.609.4,4.64,4.64,0,0,0,2.653-1.43Z" transform="translate(-272.17 -246.964)" fill="#fafafa"/>
        <path id="패스_5232" data-name="패스 5232" d="M231.127,249.74c-.669,2.828-1.4,6.346-.024,9.385,1.028,2.267,2.569,2.988,5.943,4.565,3.123,1.462,5.931,2.589,5.931,2.589a14.822,14.822,0,0,0-.327,4.84c.179,1.936,1.036,7.278,1.036,7.278s2.677,1.852,5.075,0c0,0,1.569-9.656,1.7-11.747s1.338-4-2.717-7.047L243.7,256.56Z" transform="translate(-225.601 -206.558)" fill="#f28f8f"/>
        <path id="패스_5233" data-name="패스 5233" d="M268.536,308.875s-.653.526-3.139.5a6.186,6.186,0,0,1-3.5-.8c.315,2.306.8,5.234.8,5.234s2.677,1.852,5.075,0C267.76,313.81,268.138,311.488,268.536,308.875Z" transform="translate(-244.599 -241.96)" fill="#f0f0f0"/>
        <path id="패스_5234" data-name="패스 5234" d="M260.181,327l12.1,6.3.171.116c0,.374-.108.8-.844,1.107a9.105,9.105,0,0,1-5.82-.542c-2.091-.964-3.163-3.135-3.541-3.617-.657-.844-2.067-1.175-2.318-1.526A2.838,2.838,0,0,1,260.181,327Z" transform="translate(-243.365 -253.043)" fill="#455a64"/>
        <path id="패스_5235" data-name="패스 5235" d="M267.461,317.976a3.474,3.474,0,0,1-.04.952,2.059,2.059,0,0,0,.374,1.139,10.944,10.944,0,0,0,1.956,2.346,23.2,23.2,0,0,0,2.215,1.816,1.94,1.94,0,0,1,.422,2.7,5.267,5.267,0,0,1-3.155.546,7.019,7.019,0,0,1-4.72-1.844c-1.016-.9-1.227-1.709-2.251-2.605-.4-.362-1.765-.836-2.187-1.677a4.3,4.3,0,0,1,.374-2.31,8.1,8.1,0,0,0,.37-1.243c.1-.434,0-.7.1-1.1.024-.088.084-.3.319-.259l.1.621c.127.705,1.2,1.072,1.92,1.123.072-.494.02-.709.287-.924a2.371,2.371,0,0,1,1.295-.215,8.209,8.209,0,0,1,1.832.339,1.159,1.159,0,0,1,.7.4A.677.677,0,0,1,267.461,317.976Z" transform="translate(-243.472 -246.688)" fill="#fea42e"/>
        <path id="패스_5237" data-name="패스 5237" d="M280.168,337.247c.825-1.171.617-2.334-.829-3.246a6.241,6.241,0,0,0-5.091-.139c-1.04.542-1.773,1.314-1.53,2.462a7.511,7.511,0,0,0,4.438,1.593,4.744,4.744,0,0,0,3.011-.669Z" transform="translate(-251.08 -256.884)" fill="#fafafa"/>
        <path id="패스_5238" data-name="패스 5238" d="M260.83,195.795A5.346,5.346,0,0,1,265,196.962a91.4,91.4,0,0,1,8.441,10.022c1.494,2.342,1.546,3.653-.482,5.537s-6.429,2.788-6.429,2.788Z" transform="translate(-243.955 -174.088)" fill="#f28f8f"/>
        <path id="패스_5239" data-name="패스 5239" d="M285.949,219.149l-2.179-.179v9.253a11.627,11.627,0,0,0,2.418-1.275,21.2,21.2,0,0,0,.578-2.067,1.418,1.418,0,0,0-.347-1.4,23.527,23.527,0,0,0,.462-3.079C286.622,220.034,286.307,219.611,285.949,219.149Z" transform="translate(-257.757 -188.045)" fill="#b16668"/>
        <path id="패스_5240" data-name="패스 5240" d="M225.444,206.942c-.147-2.1-.621-4.469-.645-5.374-.048-1.816-.207-4.465,2.263-4.916s3.856-.621,3.856-.621,5.111-.307,6.126-.323,3.047,0,3.047,0c1.052.693,2.653,3.585,3.653,8.413.335,1.617,1.283,9.6,1.454,14.081-6.724,1.7-13.173,2.39-18.913.506C226.285,218.7,225.691,210.472,225.444,206.942Z" transform="translate(-222.264 -174.046)" fill="#fea42e"/>
        <path id="패스_5242" data-name="패스 5242" d="M229.412,196.315c1.275,2.294,2.518,8.4,2.438,10.448s-3.661,3.314-5.178,3.35c0,0,.131,7.17-.211,11.154s2.047,7.17,5.374,9.317c3.107,1.992,6.122,3.637,6.122,3.637a11.185,11.185,0,0,1,5.011-7.768c6.294-4.011,10-3.983,12.273-3.78,0,0-3.047-1.844-5.047-3.187s-2.6-1.824-2.916-4.139-2.685-16.368-7.2-19.758h-1.685a27.605,27.605,0,0,1,2.577,5.911c.605,2.537-5.943,2.836-6.593,1.151s-1.434-4.493-3-6.676Z" transform="translate(-223.256 -173.979)" fill="#ba68c8"/>
        <path id="패스_5243" data-name="패스 5243" d="M229.412,196.315c1.275,2.294,2.518,8.4,2.438,10.448s-3.661,3.314-5.178,3.35c0,0,.131,7.17-.211,11.154s2.047,7.17,5.374,9.317c3.107,1.992,6.122,3.637,6.122,3.637a11.185,11.185,0,0,1,5.011-7.768c6.294-4.011,10-3.983,12.273-3.78,0,0-3.047-1.844-5.047-3.187s-2.6-1.824-2.916-4.139-2.685-16.368-7.2-19.758h-1.685a27.605,27.605,0,0,1,2.577,5.911c.605,2.537-5.943,2.836-6.593,1.151s-1.434-4.493-3-6.676Z" transform="translate(-223.256 -173.979)" fill="#fff" opacity="0.7"/>
        <path id="패스_5244" data-name="패스 5244" d="M248,222.383a22.984,22.984,0,0,0,7.9-1.593s.964,3.187-.171,4.473c-.94,1.068-4.78,1.785-6.314,1.2S248,222.383,248,222.383Z" transform="translate(-236.232 -189.14)" fill="#ba68c8"/>
        <path id="패스_5245" data-name="패스 5245" d="M226.2,162c1.9,2.183,4.78,2.657,7.5,2.788a12.793,12.793,0,0,0,2.788,0s1.155-1.593,1.593-2.119a9.37,9.37,0,0,0,2.215-4.218,8.627,8.627,0,0,0-.458-4.856,7.666,7.666,0,0,0-2.215-3.187c-2.271-2.37-6.421-2.733-9.162-1.912a8.242,8.242,0,0,0-4.449,3.585,5.39,5.39,0,0,0-.343,5.214c.351.677.868,1.259,1.2,1.956.215.474.331.984.526,1.466A4.781,4.781,0,0,0,226.2,162Z" transform="translate(-221.283 -145.407)" fill="#263238"/>
        <path id="패스_5246" data-name="패스 5246" d="M224,165.4a14.224,14.224,0,0,0-.092,2.087,5.441,5.441,0,0,0,1.5,3.94,5.569,5.569,0,0,0,4.175,1.494h.366l.179,2.079c1.836,2.892,7.815,2.47,6.859-.259l-.108-6.851a1.537,1.537,0,0,0,1.848.4,2.583,2.583,0,0,0,1.374-3.254,1.482,1.482,0,0,0-1.769-.729c-.737.2-1.159,1.2-2.055,1.06-.833-.116-.9-.9-1.155-1.442a5.506,5.506,0,0,0-1.342-2.191,3.625,3.625,0,0,0-1.653-.749,3.5,3.5,0,0,0-3.478,1.255c-1.37-2.633-3.585-1.8-4.127-.092A12.477,12.477,0,0,0,224,165.4Z" transform="translate(-221.738 -152.895)" fill="#f28f8f"/>
        <path id="패스_5247" data-name="패스 5247" d="M241.43,171.357a.773.773,0,1,0,.8-.8A.8.8,0,0,0,241.43,171.357Z" transform="translate(-232.283 -158.919)" fill="#263238"/>
        <path id="패스_5248" data-name="패스 5248" d="M244.084,167.257l-1.394-.526a.745.745,0,1,1,1.394.526Z" transform="translate(-233.041 -156.325)" fill="#263238"/>
        <path id="패스_5249" data-name="패스 5249" d="M228.363,165.764l-1.39.59a.757.757,0,1,1,1.39-.594Z" transform="translate(-223.538 -155.732)" fill="#263238"/>
        <path id="패스_5250" data-name="패스 5250" d="M239.153,180.81l-2.673.924a1.4,1.4,0,0,0,1.777.928A1.482,1.482,0,0,0,239.153,180.81Z" transform="translate(-229.304 -165.086)" fill="#9a4a4d"/>
        <path id="패스_5251" data-name="패스 5251" d="M240.691,182.743a1.064,1.064,0,0,0-1.561.936,1.239,1.239,0,0,0,.721-.024A1.338,1.338,0,0,0,240.691,182.743Z" transform="translate(-230.899 -166.175)" fill="#f28f8f"/>
        <path id="패스_5252" data-name="패스 5252" d="M227.83,170.3a.777.777,0,1,0,.8-.8A.8.8,0,0,0,227.83,170.3Z" transform="translate(-224.1 -158.281)" fill="#263238"/>
        <path id="패스_5253" data-name="패스 5253" d="M233.276,171.13l-.052,3.139-1.944-.43a7.17,7.17,0,0,1,2-2.709Z" transform="translate(-226.176 -159.262)" fill="#b16668"/>
        <path id="패스_5254" data-name="패스 5254" d="M239.08,187.318a8.851,8.851,0,0,0,4.493-1.175,4.422,4.422,0,0,0,1.506-1.633,4.282,4.282,0,0,1-.9,1.832c-1.55,1.729-5.035,1.793-5.035,1.793Z" transform="translate(-230.869 -167.312)" fill="#b16668"/>
        <path id="패스_5255" data-name="패스 5255" d="M262.624,148.011a2.143,2.143,0,0,1-.625,1.96,2.02,2.02,0,0,1-3.4,1.916c-.578-.59-.749-1.474-1.263-2.119a7.668,7.668,0,0,0-.86-.825,1.8,1.8,0,0,1-.685-1.789,1.852,1.852,0,0,1,1.406-1.406,1.932,1.932,0,0,1,1.542.319,2.012,2.012,0,0,1,2.239-.331A3.047,3.047,0,0,1,262.624,148.011Z" transform="translate(-240.902 -143.863)" fill="#263238"/>
        <path id="패스_5256" data-name="패스 5256" d="M224.115,141.342a2.155,2.155,0,0,1,1.872.848,2.024,2.024,0,0,1,1.506,3.6c-.653.506-1.55.57-2.251,1.008a7.568,7.568,0,0,0-.92.773,1.8,1.8,0,0,1-1.856.47,1.844,1.844,0,0,1-1.231-1.562,1.9,1.9,0,0,1,.5-1.49,2.024,2.024,0,0,1-.072-2.267,3.067,3.067,0,0,1,2.454-1.386Z" transform="translate(-220.126 -141.336)" fill="#263238"/>
        <g id="freepik--Dog--inject-145" transform="translate(8.173 20.488)">
          <path id="패스_5257" data-name="패스 5257" d="M263.4,214.135a8.645,8.645,0,0,1-.944-.2,4.976,4.976,0,0,0-1.781-.211,3.33,3.33,0,0,0-1.892.753c-.179.179-.247.6.056.709a.374.374,0,0,0,.159.374.641.641,0,0,0,.482.1c0,.171.271.287.542.247a3.944,3.944,0,0,1,1.167-.127c.829.024.972.339.972.339" transform="translate(-250.802 -205.372)" fill="#455a64"/>
          <path id="패스_5258" data-name="패스 5258" d="M261.112,217.22a.737.737,0,0,0-.852.542,1.661,1.661,0,0,0,.2,0A.645.645,0,0,1,261.112,217.22Z" transform="translate(-251.785 -207.473)" fill="#37474f"/>
          <path id="패스_5259" data-name="패스 5259" d="M259.627,216a.852.852,0,0,0-.8.482.255.255,0,0,0,.135.1.836.836,0,0,1,.661-.582Z" transform="translate(-250.925 -206.746)" fill="#37474f"/>
          <path id="패스_5260" data-name="패스 5260" d="M263.37,209.61l-1.35.378-2.733.757-.243.06-.633.1a9.917,9.917,0,0,0-1.319.223h-.1a1.992,1.992,0,0,0-.51.088,4.026,4.026,0,0,0-.315.259l-.287.287a1.325,1.325,0,0,0-.1.112l-.848,1.482a1.5,1.5,0,0,1-.7.51,1.964,1.964,0,0,0-1.127.7.335.335,0,0,0-.279-.151.47.47,0,0,0-.255-.358.8.8,0,0,0-.546,0c0-.139-.235-.319-.709-.215a7.377,7.377,0,0,0-2.466,1.2c-1.215.769-1.593,1.47-1.593,2.043a1.016,1.016,0,0,0,.514.912s-3.776,3.613,1.4,6.676c5.023,2.976,11.6-.2,13.651-4.967a13.006,13.006,0,0,0,.972-3.964A22.952,22.952,0,0,0,263.37,209.61Z" transform="translate(-243.471 -202.902)" fill="#455a64"/>
          <path id="패스_5261" data-name="패스 5261" d="M240.692,222.85a1.763,1.763,0,0,0-1.414,1.247,4.063,4.063,0,0,0-.247,2.123,4.406,4.406,0,0,0,2.39,3.227,4.852,4.852,0,0,0,1.076.4,2.043,2.043,0,0,0,1.163.076.231.231,0,0,0,.072-.4,1.139,1.139,0,0,0-.514-.127,4.063,4.063,0,0,1-.534-.1,4.78,4.78,0,0,1-1.008-.4,4.063,4.063,0,0,1-1.613-1.522,3.947,3.947,0,0,1-.422-2.808,2.241,2.241,0,0,1,1.083-1.593c.048,0,.036-.127,0-.123Z" transform="translate(-238.985 -210.868)" fill="#37474f"/>
          <path id="패스_5262" data-name="패스 5262" d="M262.461,216.914s.8-.362,1.2.08a.625.625,0,0,1,.6.036.4.4,0,0,1,.171.458.335.335,0,0,1,.287.2.673.673,0,0,1-.1.6,2.358,2.358,0,0,1-1.414,1.155,2.119,2.119,0,0,1,1.052,1.625,3.186,3.186,0,0,1-.235,1.992,7.816,7.816,0,0,0,4.346-2.848c2.3-2.956,1.47-8.174,1.47-8.174l-3.856.649a3,3,0,0,0-1.55,2.139,4.593,4.593,0,0,0-2.215.825.621.621,0,0,1,.088.219.4.4,0,0,1,.279.151.649.649,0,0,1-.116.9Z" transform="translate(-252.959 -204.358)" fill="#e0e0e0"/>
          <path id="패스_5263" data-name="패스 5263" d="M273.838,220.763a3.414,3.414,0,0,0-1.992.514c-.2.159-.327.578-.036.725a.4.4,0,0,0,.112.4.669.669,0,0,0,.474.163c0,.171.235.323.514.319a3.051,3.051,0,0,1,1.195,0,2.012,2.012,0,0,1,.984.538,11.063,11.063,0,0,0,.474-2.215,4.545,4.545,0,0,0-1.725-.442Z" transform="translate(-258.631 -209.609)" opacity="0.1"/>
          <path id="패스_5264" data-name="패스 5264" d="M275.646,220.109a4.6,4.6,0,0,0-1.808-.5,3.354,3.354,0,0,0-1.992.514c-.2.155-.327.578-.036.721a.4.4,0,0,0,.112.4.665.665,0,0,0,.474.159c0,.175.235.327.514.319a3.135,3.135,0,0,1,1.2.02,2.032,2.032,0,0,1,1.107.673l1.271-1.96A4.38,4.38,0,0,1,275.646,220.109Z" transform="translate(-258.631 -208.916)" fill="#455a64"/>
          <path id="패스_5265" data-name="패스 5265" d="M273.88,222.912a.613.613,0,0,0-.617.056.514.514,0,0,0-.223.374,1.408,1.408,0,0,0,.191.02C273.247,223.067,273.57,222.912,273.88,222.912Z" transform="translate(-259.474 -210.87)" fill="#37474f"/>
          <path id="패스_5266" data-name="패스 5266" d="M271.69,222a.3.3,0,0,0,.143.147.637.637,0,0,1,.5-.366A.705.705,0,0,0,271.69,222Z" transform="translate(-258.662 -210.22)" fill="#37474f"/>
          <path id="패스_5267" data-name="패스 5267" d="M278.624,213.127c-.1-1.418-.351-2.585-.466-3.517l-1.35.378-2.733.757-.243.06-.633.1a9.916,9.916,0,0,0-1.318.223h-.1a1.992,1.992,0,0,0-.51.088h0a1.91,1.91,0,0,0-.251.143,4.111,4.111,0,0,0,2.354,1.271,8.15,8.15,0,0,0,3.669-.2,1.458,1.458,0,0,0,1.581.7Z" transform="translate(-258.259 -202.902)" opacity="0.1"/>
          <path id="패스_5268" data-name="패스 5268" d="M271.9,194.083c-.131-.49-.741-.7-1.717-.721a5.061,5.061,0,0,1-2.641-.291c-1.135-.51-2.071-.283-2.39.868a2.415,2.415,0,0,0,1.2,3.039,5.043,5.043,0,0,0,4.107-.506A4.562,4.562,0,0,0,271.9,194.083Z" transform="translate(-254.657 -192.796)" fill="#37474f"/>
          <path id="패스_5269" data-name="패스 5269" d="M268.543,193.555a1.121,1.121,0,0,0,.06-.227,3.614,3.614,0,0,1-1.048-.3c-1.135-.514-2.071-.283-2.39.868a3.319,3.319,0,0,0-.1,1.2,1.9,1.9,0,0,0,.733.255.657.657,0,0,0,.582-.171c.167-.2.1-.53.279-.725s.546-.143.84-.155a1.2,1.2,0,0,0,1.044-.741Z" transform="translate(-254.667 -192.77)" fill="#e0e0e0"/>
          <path id="패스_5270" data-name="패스 5270" d="M276.451,197.918c-.542-1.175-.848-1.434-2.362-1.972a3.774,3.774,0,0,0-3.78.347,3.523,3.523,0,0,0-1.171,1.888,2.048,2.048,0,0,0-1.374.8,3.3,3.3,0,0,0,.239,3.035,4.155,4.155,0,0,0,2.577,1.669c1.948.4,3.517.263,4.5-.721C276.315,201.734,276.849,198.771,276.451,197.918Z" transform="translate(-256.129 -194.473)" fill="#455a64"/>
          <path id="패스_5271" data-name="패스 5271" d="M281.832,202.836a.446.446,0,1,1-.446-.446A.446.446,0,0,1,281.832,202.836Z" transform="translate(-264.228 -198.558)" fill="#263238"/>
          <path id="패스_5272" data-name="패스 5272" d="M273.892,200.746a.446.446,0,1,1-.446-.446A.446.446,0,0,1,273.892,200.746Z" transform="translate(-259.45 -197.3)" fill="#263238"/>
          <path id="패스_5273" data-name="패스 5273" d="M272.4,208.774h0a.108.108,0,0,1-.088-.123l.2-1.032a.1.1,0,0,1,.124-.084.1.1,0,0,1,.084.123l-.2,1.032a.1.1,0,0,1-.124.084Z" transform="translate(-259.033 -201.652)" fill="#263238"/>
          <path id="패스_5274" data-name="패스 5274" d="M272.46,204.555c-.542-.167-.968-.139-1.068.064a1.123,1.123,0,0,0,.251,1.044.912.912,0,0,0,.709.223c.307-.032.8-.231.892-.558S273.045,204.73,272.46,204.555Z" transform="translate(-258.46 -199.795)" fill="#263238"/>
          <path id="패스_5275" data-name="패스 5275" d="M271.748,204.742a.339.339,0,0,0-.135.434c.064.112.171-.3.466-.3a2.267,2.267,0,0,1,.956.323c.183.12.191-.1-.175-.283a1.346,1.346,0,0,0-1.111-.171Z" transform="translate(-258.597 -199.942)" fill="#37474f"/>
          <path id="패스_5276" data-name="패스 5276" d="M272.29,209.977a1.627,1.627,0,0,1-.2,0,1.434,1.434,0,0,1-1.028-.442.105.105,0,0,1,.167-.127,1.311,1.311,0,0,0,.88.359,1.569,1.569,0,0,0,1.2-.335.109.109,0,0,1,.147.159A1.713,1.713,0,0,1,272.29,209.977Z" transform="translate(-258.275 -202.755)" fill="#263238"/>
          <path id="패스_5277" data-name="패스 5277" d="M286.8,198.211a3.443,3.443,0,0,1,2.155.924c.366.57,1.534,2.47,1.2,4.25a2.693,2.693,0,0,1-2.768,2.282c-.976-.1-1.573-.55-1.083-1.952s.848-3.378.494-4.322C286.471,198.517,286.133,198.119,286.8,198.211Z" transform="translate(-267.345 -196.035)" fill="#37474f"/>
          <path id="패스_5278" data-name="패스 5278" d="M292.539,204.08a2.581,2.581,0,0,1-.98.848,2.48,2.48,0,0,0-.526.287.506.506,0,0,0-.2.53c.08.239.362.323.6.4s.522.211.526.462c0,.179-.147.331-.159.51a.466.466,0,0,0,.526.442.948.948,0,0,0,.609-.374c.02-.08.04-.163.056-.251A5.114,5.114,0,0,0,292.539,204.08Z" transform="translate(-270.174 -199.575)" fill="#e0e0e0"/>
          <path id="패스_5279" data-name="패스 5279" d="M257.2,224.29c-1.593.7-3.135,1.482-3.426,2.39a.8.8,0,0,0,.49,1.131s-.8-.04-.8-.773S254.131,225.19,257.2,224.29Z" transform="translate(-247.7 -211.734)" fill="#37474f"/>
          <path id="패스_5280" data-name="패스 5280" d="M265.353,225.422c.179-.02.51-.143.538-.362,0-.151-.112-.179-.239-.179a.8.8,0,0,0-.478.175C264.967,225.238,265.094,225.458,265.353,225.422Z" transform="translate(-254.68 -212.089)" fill="#37474f"/>
          <path id="패스_5281" data-name="패스 5281" d="M266.125,226.863c.179,0,.526-.052.594-.263.044-.143-.08-.2-.2-.215a.8.8,0,0,0-.5.084C265.778,226.624,265.866,226.847,266.125,226.863Z" transform="translate(-255.164 -212.988)" fill="#37474f"/>
          <path id="패스_5282" data-name="패스 5282" d="M263.372,224.827c.167,0,.482-.088.526-.283s-.088-.175-.2-.187a.741.741,0,0,0-.458.12C263.033,224.612,263.133,224.835,263.372,224.827Z" transform="translate(-253.511 -211.774)" fill="#37474f"/>
          <path id="패스_5283" data-name="패스 5283" d="M260.661,226.168c-.191-.175-.47-.339-1.307-.1s-1.131.629-.928.8c.295.255.8-.147.669.45-.064.339.4.59,1.143,0S260.868,226.368,260.661,226.168Z" transform="translate(-250.645 -212.732)" fill="#37474f"/>
          <path id="패스_5284" data-name="패스 5284" d="M259.743,221.742c.179-.024.51-.143.534-.362.02-.151-.108-.179-.235-.179a.8.8,0,0,0-.478.175C259.357,221.555,259.484,221.774,259.743,221.742Z" transform="translate(-251.304 -209.875)" fill="#37474f"/>
          <path id="패스_5285" data-name="패스 5285" d="M260.505,223.183c.183,0,.53-.052.594-.263.048-.143-.076-.2-.2-.215a.8.8,0,0,0-.5.084C260.155,222.928,260.25,223.167,260.505,223.183Z" transform="translate(-251.784 -210.774)" fill="#37474f"/>
          <path id="패스_5286" data-name="패스 5286" d="M257.756,221.148c.171,0,.486-.088.53-.283s-.088-.175-.2-.187a.737.737,0,0,0-.454.119C257.421,220.94,257.517,221.156,257.756,221.148Z" transform="translate(-250.133 -209.56)" fill="#37474f"/>
          <path id="패스_5287" data-name="패스 5287" d="M255.047,222.487c-.187-.179-.466-.339-1.3-.1s-1.131.629-.928.8c.295.255.8-.147.669.45-.064.339.4.59,1.143,0S255.243,222.686,255.047,222.487Z" transform="translate(-247.27 -210.517)" fill="#37474f"/>
          <path id="패스_5288" data-name="패스 5288" d="M264.169,228.9c-.271-.052-.418.08-.709.3s-.637.49-.884.693a5.976,5.976,0,0,1-1.613.956,5.8,5.8,0,0,1-1.418.362,6.429,6.429,0,0,1-1.462.068.713.713,0,0,1-.566-.263.757.757,0,0,1,.024-.629,7.471,7.471,0,0,0,.374-1.235c.064-.363.1-1.119-.235-1.374a.4.4,0,0,0-.45.024,2.533,2.533,0,0,0-.4.506,14.968,14.968,0,0,0-1.1,1.593,2.159,2.159,0,0,0-.749-.988c1-.737.94-1.2.94-1.2a3.8,3.8,0,0,1-1.812,1.163,2.151,2.151,0,0,1,1.2,1.832,5.252,5.252,0,0,1-.633,1.06,4.011,4.011,0,0,1-1.828,1.2,46.205,46.205,0,0,1-5.111.582,6.274,6.274,0,0,0,2.223,2.012c5.023,2.976,11.6-.2,13.651-4.967a12.382,12.382,0,0,0,.586-1.689Z" transform="translate(-244.246 -213.798)" opacity="0.1"/>
        </g>
        <path id="freepik--arm--inject-145-3" data-name="freepik--arm--inject-145" d="M242.014,218.283a13.217,13.217,0,0,0,2.757-1.737,4.824,4.824,0,0,0,1.123-1.079,8.328,8.328,0,0,0,.8-1.41,4.223,4.223,0,0,0,.359-2.012c0-.207-.1-.458-.3-.494-.275-.052-.442.307-.6.474a6.8,6.8,0,0,1-.681.673,5.975,5.975,0,0,1-1.613.952,5.8,5.8,0,0,1-1.418.362,6.415,6.415,0,0,1-1.462.068.705.705,0,0,1-.562-.259.757.757,0,0,1,.024-.629,8.053,8.053,0,0,0,.374-1.239c.06-.358.1-1.115-.239-1.374a.4.4,0,0,0-.446.028,2.416,2.416,0,0,0-.4.5,13.356,13.356,0,0,0-1.2,1.725,10.892,10.892,0,0,1-.972,1.741c-.466.574-1.2.86-2.617.908a51.342,51.342,0,0,1-8.843-1.139l-.833-8.552s-.8-6.194-2.39-7.421a4.21,4.21,0,0,0-4.382,3.876c-.247,1.944,1.119,12.58,1.992,15.213s1.848,2.709,5.1,3.115C228.3,220.9,235.967,220.928,242.014,218.283Z" transform="translate(-218.466 -175.651)" fill="#f28f8f"/>
      </g>
      <g id="freepik--top--inject-145-2" data-name="freepik--top--inject-145">
        <path id="패스_5289" data-name="패스 5289" d="M138.1,206.181a6.042,6.042,0,0,0,.55-3.4c-.279-1.171-1.482-8.927-1.482-8.927s2.251-3.677,2.521-5.629.211-3.306-.737-6.744l3.983-.8a25.773,25.773,0,0,1,6.684-1l2.569-.143s5.975,5.644,6.871,8.158a8.792,8.792,0,0,1-1.111,8.27c-.036,1.944,0,5.513.1,7.059s1.418,5.505,1.645,6.927c-.876,2.02-4.78,5.577-14,5-7.365-.462-9.56-3.72-9.56-3.72a44.642,44.642,0,0,1,1.972-5.047Z" transform="translate(-127.093 -152.748)" fill="#4a95df"/>
        <path id="패스_5290" data-name="패스 5290" d="M159.243,218.023s-1.84,2.223-5.708,1.51a5.46,5.46,0,0,1-4.581-3.653s-.295,3.764,4.33,4.6C157.837,221.3,159.243,218.023,159.243,218.023Z" transform="translate(-134.807 -174.612)" opacity="0.1"/>
        <path id="패스_5291" data-name="패스 5291" d="M149.512,132.145a28.831,28.831,0,0,1,2.956-2.5c1.4-.9,3.485,0,4.943.315a5.529,5.529,0,0,0,3.693-.179,2.519,2.519,0,0,0,1.35-3.115,2.988,2.988,0,0,0,.912-5.545,2.852,2.852,0,0,0-2.856-4.884,3.338,3.338,0,0,0-1.139-3.187,4.387,4.387,0,0,0-4.434-.335c-.745.315-1.382.8-2.139,1.1-1.573.609-3.274.358-4.888.86a10.664,10.664,0,0,0-4.155,2.422,11.447,11.447,0,0,0-3.521,7.373,10.293,10.293,0,0,0,1.43,6.067c1.1,1.761,2.633,2.788,3.657,4.557C146.577,134.037,148.254,133.217,149.512,132.145Z" transform="translate(-129.545 -112.28)" fill="#263238"/>
        <path id="패스_5292" data-name="패스 5292" d="M144.351,138.415a1.746,1.746,0,0,1,2.725-.06c.223.3.37.649.562.968a1.665,1.665,0,0,0,.8.749.9.9,0,0,0,.637-.02.466.466,0,0,0,.311-.486c.024-.482-.048-.98,0-1.462,2.032-.709,1.992-1.462,2.267-3.25a4.552,4.552,0,0,1,6.031-.263c1.319-2.514,2.729-2.187,3.338-1.4a9.959,9.959,0,0,1,.9,2.924,19.439,19.439,0,0,1,.319,4.609c-.295,5.975-2.279,7.417-3.266,7.815s-2.183.1-3.983-.251l-.02,3.585c1.852,3.585,3.334,9.042,3.246,12.588-2.868-5.493-7.381-8.449-9.508-10.448a8.062,8.062,0,0,1-1.287-1.5l.048-9.9a1.839,1.839,0,0,1-2.649-.06A2.972,2.972,0,0,1,144.351,138.415Z" transform="translate(-131.653 -124.517)" fill="#b16668"/>
        <path id="패스_5293" data-name="패스 5293" d="M162.831,165.5a12.258,12.258,0,0,1-4.382-1.916,5.445,5.445,0,0,1-1.689-2.39s.123,2.31,1.279,3.358,4.78,2.267,4.78,2.267Z" transform="translate(-139.505 -141.707)" fill="#9a4a4d"/>
        <path id="패스_5294" data-name="패스 5294" d="M170.212,149.862a.829.829,0,1,1-.936-.749A.856.856,0,0,1,170.212,149.862Z" transform="translate(-146.603 -134.439)" fill="#263238"/>
        <path id="패스_5295" data-name="패스 5295" d="M185.234,148.24a.761.761,0,0,1-.641.872.725.725,0,0,1-.852-.677.753.753,0,1,1,1.494-.2Z" transform="translate(-155.734 -133.521)" fill="#263238"/>
        <path id="패스_5296" data-name="패스 5296" d="M177.1,146.57l.566,5,2.565-.964Z" transform="translate(-151.743 -132.911)" fill="#9a4a4d"/>
        <path id="패스_5297" data-name="패스 5297" d="M168.665,143.708l-1.876.848a1.079,1.079,0,0,1,.53-1.4,1.008,1.008,0,0,1,1.346.55Z" transform="translate(-145.487 -130.806)" fill="#263238"/>
        <path id="패스_5298" data-name="패스 5298" d="M169.852,160.64l2.7.932a1.494,1.494,0,0,1-1.864.9,1.394,1.394,0,0,1-.833-1.828Z" transform="translate(-147.323 -141.376)" fill="#9a4a4d"/>
        <path id="패스_5299" data-name="패스 5299" d="M169.969,162.219a1.394,1.394,0,0,1,1.315,1.271,1.358,1.358,0,0,1-1.454-1.251C169.9,162.239,169.922,162.215,169.969,162.219Z" transform="translate(-147.369 -142.326)" fill="#f28f8f"/>
        <path id="패스_5300" data-name="패스 5300" d="M185.262,143.061l-1.892-.844a1,1,0,0,1,1.338-.55,1.087,1.087,0,0,1,.554,1.394Z" transform="translate(-155.515 -129.908)" fill="#263238"/>
        <path id="패스_5301" data-name="패스 5301" d="M145.433,162.444a3.107,3.107,0,0,1-1.593-5.78,4.522,4.522,0,0,0,.37.291,2.677,2.677,0,1,0,1.2-.291.215.215,0,0,1-.215-.215.219.219,0,0,1,.215-.219,3.107,3.107,0,0,1,0,6.214Z" transform="translate(-130.815 -138.723)" fill="#4a95df"/>
        <path id="패스_5302" data-name="패스 5302" d="M160.983,292.65c.084,1.318.466,4.716-.135,7.078-.673,2.645-.068,6.079,4.852,7.365,5.437,1.422,8.556-1.279,11.217-2.127,2.757-.88,2.043-3.131-.135-2.788-2.625.418-6.724,3.493-10.564,2.3-3.585-1.119-2.952-3.724-2.6-5.178a9.433,9.433,0,0,0,.215-3.139Z" transform="translate(-141.828 -220.801)" fill="#e0e0e0"/>
        <path id="패스_5303" data-name="패스 5303" d="M205.739,231.1c-.769-.924-2.788-1.661-3.848-.769-.605.506.721,2.948.721,2.948S204.934,232.53,205.739,231.1Z" transform="translate(-166.563 -183.064)" fill="#e0e0e0"/>
        <path id="패스_5304" data-name="패스 5304" d="M194.04,253.667c-.2-.127-.227.8-.223.837a3.438,3.438,0,0,0,.4,1.076,6.17,6.17,0,0,1,.514,2.577,4.633,4.633,0,0,1-1.346,3.207,7.306,7.306,0,0,1-4.127,1.593,22.71,22.71,0,0,0-2.92.5,3.919,3.919,0,0,0-1.358.542,2.613,2.613,0,0,0-.653,1.1c-.319.837-.5,2.442-2.593,2.757s-4.613-2.725-4.613-2.725-.617-5.139,3.386-8.365S189.666,250.811,194.04,253.667Z" transform="translate(-151.733 -196.625)" fill="#fafafa"/>
        <path id="패스_5305" data-name="패스 5305" d="M217.512,262.68a3.7,3.7,0,0,1,1.637.8,4.115,4.115,0,0,1,1.06,1.49,4.382,4.382,0,0,1,.211,1.856,3.505,3.505,0,0,1-.442,1.522,3.187,3.187,0,0,1-1.334,1.223,3.916,3.916,0,0,1-1.777.4,1.853,1.853,0,0,1-.693-.12.845.845,0,0,1-.478-.494,2.47,2.47,0,0,1-.243-.116.589.589,0,0,1-.159-.243c-.068-.223.056-.335.108-.522a.625.625,0,0,1-.092-.653c.147-.45,1.2-.665,1.968-1.613A5.708,5.708,0,0,0,217.512,262.68Z" transform="translate(-174.7 -202.77)" fill="#e0e0e0"/>
        <path id="패스_5306" data-name="패스 5306" d="M219.81,230.492c.558-.856,2.183-1.685,3.187-1.04.562.366-.482,2.872-.482,2.872A7,7,0,0,1,219.81,230.492Z" transform="translate(-177.44 -182.639)" fill="#e0e0e0"/>
        <path id="패스_5307" data-name="패스 5307" d="M221.82,231.5c.924.59,1.9,1.115,1.9,1.115s1.044-2.506.482-2.872C223.82,229.574,222.688,229.913,221.82,231.5Z" transform="translate(-178.649 -182.929)" fill="#ffa8a7"/>
        <path id="패스_5308" data-name="패스 5308" d="M223.99,233.584a1.124,1.124,0,0,1,.231-.291c.056-.159.123-.343.183-.542a2.31,2.31,0,0,0-.9-.207.852.852,0,0,1,.247-.554,1.008,1.008,0,0,0-1.1.8,1.749,1.749,0,0,0,.4.586c.2.1.4.187.538.255a.972.972,0,0,0,.394-.044Z" transform="translate(-179.155 -184.302)" fill="#f28f8f"/>
        <path id="패스_5309" data-name="패스 5309" d="M222.85,233.041a1.032,1.032,0,0,1,1.048-.554.853.853,0,0,0-.247.554s1.008,0,1.227.546a.9.9,0,0,0-.757.514C223.216,234.368,222.85,233.041,222.85,233.041Z" transform="translate(-179.269 -184.599)" fill="#f5f5f5"/>
        <path id="패스_5310" data-name="패스 5310" d="M179.87,304.482c1.311.51,3.585,1.593,4.382,1.812a12.252,12.252,0,0,0,3.585-.1c1.422-.143,2.346-.2,3.091-.247,1.386-.088,1.593-1.446.076-1.944a8.629,8.629,0,0,0-2.864-.311Z" transform="translate(-153.41 -227.439)" fill="#e0e0e0"/>
        <path id="패스_5311" data-name="패스 5311" d="M179.707,231.686a7.385,7.385,0,0,1,3.326.088,3.864,3.864,0,0,1,2.155,1.474,7.88,7.88,0,0,1,.932,2.39c.4,1.49.514,3.031-.665,4.214a4.382,4.382,0,0,1-2.334,1.163,7.912,7.912,0,0,1-2.414-.044,2.1,2.1,0,0,0-1.8.351,3.131,3.131,0,0,0-.876,1.446,4.814,4.814,0,0,0,.235,3.983c1.06,1.713,2.418,2.581,4.892,3.378a22.714,22.714,0,0,1,6.266,2.924c.916.8,1.2,1.5.844,1.968,0,0,.02.852-1,.665a.88.88,0,0,1-.944.494c-.757-.191-1.283-.916-1.972-1.45a5.334,5.334,0,0,0-2.788-1.032c-1.111-.088-5.736-.745-7.776-2.494s-2.709-3.215-4.242-3.709-3.517,1.06-3.983,1.872a4.81,4.81,0,0,0-.359,3.3,9.656,9.656,0,0,1,3.529,1.422c1.8,1.171,2.239,2.764,3.246,3.1s1.824-.211,4.206.1,2.992.9,3.29,1.43-.02,1.267-1.127,1.259a28.323,28.323,0,0,0-3.932-.056c-1.032.175-2.972,1.028-3.8,1.083-1.048.068-7.568,1.151-10.879-2.175a11.576,11.576,0,0,1-3.485-9.771c.307-2.788,3.948-6.883,6.879-8.13,1.709-.725,3.462-1.334,5.178-1.992.944-.359,1.888-.721,2.812-1.127a5.479,5.479,0,0,0,1.828-1.012,26.732,26.732,0,0,0,1.832-3.047,4.7,4.7,0,0,1,2.916-2.067Z" transform="translate(-140.356 -184.032)" fill="#f0f0f0"/>
        <path id="패스_5312" data-name="패스 5312" d="M204.906,232.53a8,8,0,0,1-2.294,1.231s-1.326-2.442-.721-2.948C202.313,230.562,203.679,230.8,204.906,232.53Z" transform="translate(-166.563 -183.546)" fill="#ffa8a7"/>
        <path id="패스_5313" data-name="패스 5313" d="M203.542,233.394a.988.988,0,0,0-.362-.609,1.243,1.243,0,0,1,1.462.7s-.068,1.514-1.155,1.326a1.052,1.052,0,0,0-.709-.478c-.08-.171-.167-.37-.247-.574A2.665,2.665,0,0,1,203.542,233.394Z" transform="translate(-167.043 -184.757)" fill="#f28f8f"/>
        <path id="패스_5314" data-name="패스 5314" d="M216.115,248.052a.98.98,0,0,1-.546-.191.108.108,0,1,1,.135-.167.721.721,0,0,0,.474.143.589.589,0,0,0,.374-.231v-.769a.108.108,0,1,1,.215,0v.8a.108.108,0,0,1-.024.068.8.8,0,0,1-.542.339Z" transform="translate(-174.865 -193.173)" fill="#455a64"/>
        <path id="패스_5315" data-name="패스 5315" d="M218.776,249.226h-.088a.8.8,0,0,1-.542-.339.108.108,0,1,1,.171-.131.609.609,0,0,0,.4.259.729.729,0,0,0,.474-.143.108.108,0,0,1,.147,0,.1.1,0,0,1,0,.151A.968.968,0,0,1,218.776,249.226Z" transform="translate(-176.426 -194.367)" fill="#455a64"/>
        <path id="패스_5316" data-name="패스 5316" d="M217.165,244.86c.717,0,.8.207.717.458a1.255,1.255,0,0,1-.709.574c-.171.024-.8-.319-.829-.594S216.488,244.872,217.165,244.86Z" transform="translate(-175.353 -192.048)" fill="#f28f8f"/>
        <path id="패스_5317" data-name="패스 5317" d="M211.264,240.886a.586.586,0,1,0,.53-.669A.605.605,0,0,0,211.264,240.886Z" transform="translate(-172.296 -189.253)" fill="#455a64"/>
        <path id="패스_5318" data-name="패스 5318" d="M222.231,240.253a.586.586,0,1,1-.637-.574.613.613,0,0,1,.637.574Z" transform="translate(-178.192 -188.931)" fill="#455a64"/>
        <path id="패스_5319" data-name="패스 5319" d="M207.767,244.766h0a.116.116,0,0,0-.02-.163,2.1,2.1,0,0,0-2.39-.4.12.12,0,0,0,.1.211,1.9,1.9,0,0,1,2.135.355.108.108,0,0,0,.171,0Z" transform="translate(-168.715 -191.528)" fill="#455a64"/>
        <path id="패스_5320" data-name="패스 5320" d="M208.428,246.194a.1.1,0,0,0,.024-.032.119.119,0,0,0-.06-.155,1.94,1.94,0,0,0-1.613.044.112.112,0,0,0-.036.155.108.108,0,0,0,.151.048,1.737,1.737,0,0,1,1.406-.04A.1.1,0,0,0,208.428,246.194Z" transform="translate(-169.568 -192.645)" fill="#455a64"/>
        <path id="패스_5321" data-name="패스 5321" d="M208.5,247.489a.12.12,0,0,0,.032-.064.123.123,0,0,0-.1-.135,2.255,2.255,0,0,0-1.968.721.123.123,0,0,0,0,.163.112.112,0,0,0,.159,0h0a2.032,2.032,0,0,1,1.769-.653A.112.112,0,0,0,208.5,247.489Z" transform="translate(-169.397 -193.498)" fill="#455a64"/>
        <path id="패스_5322" data-name="패스 5322" d="M224.183,244.176h0a.127.127,0,0,1,0-.167,2.107,2.107,0,0,1,2.3-.709.119.119,0,0,1-.072.227,1.884,1.884,0,0,0-2.063.637.108.108,0,0,1-.163.012Z" transform="translate(-180.052 -191.05)" fill="#455a64"/>
        <path id="패스_5323" data-name="패스 5323" d="M224.8,245.654l-.024-.028a.12.12,0,0,1,.036-.163,1.992,1.992,0,0,1,1.593-.179.12.12,0,1,1-.088.223,1.733,1.733,0,0,0-1.4.147A.1.1,0,0,1,224.8,245.654Z" transform="translate(-180.415 -192.249)" fill="#455a64"/>
        <path id="패스_5324" data-name="패스 5324" d="M224.283,247.106a.119.119,0,0,1,.04-.207,2.255,2.255,0,0,1,2.043.446.124.124,0,0,1,0,.163.108.108,0,0,1-.155.024h0a2.023,2.023,0,0,0-1.84-.4A.112.112,0,0,1,224.283,247.106Z" transform="translate(-180.104 -193.227)" fill="#455a64"/>
        <path id="패스_5325" data-name="패스 5325" d="M204.657,233.96a1.519,1.519,0,0,0-1.561-1.466,1.016,1.016,0,0,1,.319.637s-1.2.064-1.414.7c0,0,1,.056,1.2.9A1.255,1.255,0,0,0,204.657,233.96Z" transform="translate(-166.724 -184.597)" fill="#f0f0f0"/>
        <path id="패스_5326" data-name="패스 5326" d="M113.948,207.068c1.147-5.3,2.107-9.074,3-12.643,1.709-6.82,2.183-8.967,8.365-10.014,0,0,1.442,1.769,1.235,5.951-.183,3.74-1.076,5.135-1.076,5.135l-3.653,13.169a84.24,84.24,0,0,0,8.692,8.082,40.365,40.365,0,0,0,5.788,2.589c1.291.574,2.49,1.255,3.74,1.9a.677.677,0,0,1,.187.127.4.4,0,0,1,.04.434.757.757,0,0,1-.323.319,2.506,2.506,0,0,1-2.187.108,6.7,6.7,0,0,0-1.82-.605c-.143,0-.295.02-.251.2a1.2,1.2,0,0,0,.191.347,5.031,5.031,0,0,0,1.94,1.151,8.162,8.162,0,0,0,2.135.494,8.844,8.844,0,0,1,1.745.271,1.3,1.3,0,0,1,.514.267c.741.693-.562,1.064-.86,1.478-.155.219-.422.6-.6.8a1.769,1.769,0,0,1-.649.335,8.5,8.5,0,0,0-.876.526,4.087,4.087,0,0,1-2.33.4,13.223,13.223,0,0,1-1.992-.4,8.736,8.736,0,0,1-3.8-1.86,11.273,11.273,0,0,1-1.227-1.35c-.331-.4-.653-.825-1-1.2a22.536,22.536,0,0,0-1.852-1.677,114.694,114.694,0,0,1-11.882-8.4C112.733,211.019,113.442,209.41,113.948,207.068Z" transform="translate(-113.443 -155.678)" fill="#b16668"/>
      </g>
    </g>
    <path id="패스_5327" data-name="패스 5327" d="M98.029,293.2v-27.8a6.425,6.425,0,0,0-2.892-5.011L65.449,243.252,63.178,229.78A7.692,7.692,0,0,0,59.84,224.8l-2.354-1.39c-1.593-.92-2.9-.167-2.9,1.669V268.1a6.421,6.421,0,0,0,2.9,5.011l37.651,21.737C96.726,295.785,98.029,295.032,98.029,293.2Z" transform="translate(56.118 367.318)" fill="#263238"/>
    <path id="패스_5328" data-name="패스 5328" d="M121.055,287.821v27.8a1.477,1.477,0,0,1,0,.187,6.453,6.453,0,0,1-2.86,4.812h-.028l-.833.486a1.139,1.139,0,0,1-.219.112.832.832,0,0,1-.119.06h-.036l-.231.088a6.772,6.772,0,0,1-4.258.12,4.673,4.673,0,0,1-.5-.187c1.39.574,2.466-.207,2.474-1.872v-27.8a6.413,6.413,0,0,0-2.9-5.015l-5.254-3.031L81.85,269.5l3.732-2.159a6.437,6.437,0,0,1,5.788,0l21.542,12.436,5.246,3.027A6.417,6.417,0,0,1,121.055,287.821Z" transform="translate(39.646 341.061)" fill="#455a64"/>
    <path id="패스_5329" data-name="패스 5329" d="M159.914,319.362v27.8c0,1.665-1.083,2.446-2.474,1.872a4.659,4.659,0,0,0,.5.187,6.772,6.772,0,0,0,4.258-.12l.231-.088h.036a.836.836,0,0,0,.12-.06,1.139,1.139,0,0,0,.219-.112l.833-.486h.028a6.453,6.453,0,0,0,2.86-4.812,1.477,1.477,0,0,0,0-.187v-27.8a5.891,5.891,0,0,0-.848-2.848l-6.624,3.828A5.912,5.912,0,0,1,159.914,319.362Z" transform="translate(-5.882 313.351)" fill="#37474f"/>
    <g id="freepik--Hearts--inject-145" transform="translate(127.086 532.2)">
      <path id="freepik--Heart--inject-145" d="M329.4,95.832a2.458,2.458,0,0,0,.159-1.741h0a2.49,2.49,0,0,0-1.291-1.546c-1.127-.55-2.657.227-3.33,1.247a2.876,2.876,0,0,0-1.064-3.39,2.466,2.466,0,0,0-2.012-.068h0a2.45,2.45,0,0,0-1.275,1.2c-.852,1.745.295,3.5,1.1,5.31l.84,1.9,2.02-.506C326.453,97.752,328.536,97.581,329.4,95.832Z" transform="translate(-231.024 -84.545)" fill="#4a95df"/>
      <path id="freepik--heart--inject-145-2" data-name="freepik--heart--inject-145" d="M207.352,78.312a2.45,2.45,0,0,0-.765-1.569h0a2.47,2.47,0,0,0-1.9-.657c-1.247.112-2.155,1.569-2.2,2.788-.267-1.2-1.418-2.466-2.665-2.35a2.454,2.454,0,0,0-1.757.98h0a2.45,2.45,0,0,0-.474,1.681c.175,1.94,2.067,2.848,3.685,3.983l1.7,1.2,1.47-1.478C205.827,81.483,207.528,80.252,207.352,78.312Z" transform="translate(-157.195 -76.076)" fill="#4a95df"/>
      <path id="freepik--heart--inject-145-3" data-name="freepik--heart--inject-145" d="M104.886,146.762a2.458,2.458,0,0,0-1.386-1.06h0a2.47,2.47,0,0,0-1.992.275c-1.064.661-1.2,2.39-.709,3.481-.773-.944-2.39-1.558-3.438-.9a2.466,2.466,0,0,0-1.123,1.669h0a2.466,2.466,0,0,0,.339,1.713c1.028,1.649,3.127,1.593,5.083,1.888l2.032.295.645-1.992C104.946,150.275,105.91,148.411,104.886,146.762Z" transform="translate(-96.204 -117.909)" fill="#4a95df"/>
    </g>
    <g id="freepik--Plant--inject-145" transform="translate(92.135 601.017)">
      <g id="freepik--Pot--inject-145">
        <g id="freepik--pot--inject-145-2" data-name="freepik--pot--inject-145" transform="translate(10.449 29.064)">
          <path id="패스_5087" data-name="패스 5087" d="M38.436,350.038c-3.416-3.525-5.424-17.877-2.093-20.688H53.315c3.33,2.8,1.326,17.147-2.089,20.688-.028.032-.065.061-.093.1l-.118.114c-.1.093-.2.186-.308.28a.626.626,0,0,0-.081.065c-.085.065-.166.13-.26.195a4.845,4.845,0,0,1-.442.288,11.257,11.257,0,0,1-10.182,0h0a4.846,4.846,0,0,1-.442-.288c-.085-.061-.162-.122-.243-.187l-.1-.077c-.105-.089-.2-.179-.3-.268l-.134-.134Z" transform="translate(-34.638 -326.538)" fill="#3e86cd"/>
          <path id="패스_5088" data-name="패스 5088" d="M38.436,350.038c-3.416-3.525-5.424-17.877-2.093-20.688H53.315c3.33,2.8,1.326,17.147-2.089,20.688-.028.032-.065.061-.093.1l-.118.114c-.1.093-.2.186-.308.28a.626.626,0,0,0-.081.065c-.085.065-.166.13-.26.195a4.845,4.845,0,0,1-.442.288,11.257,11.257,0,0,1-10.182,0h0a4.846,4.846,0,0,1-.442-.288c-.085-.061-.162-.122-.243-.187l-.1-.077c-.105-.089-.2-.179-.3-.268l-.134-.134Z" transform="translate(-34.638 -326.538)" opacity="0.3"/>
          <path id="패스_5089" data-name="패스 5089" d="M52.26,324.118c3.87,2.259,3.87,5.922,0,8.182a15.336,15.336,0,0,1-14.015,0c-3.874-2.26-3.87-5.923,0-8.182A15.288,15.288,0,0,1,52.26,324.118Z" transform="translate(-35.056 -322.418)" fill="#4a95df"/>
          <path id="패스_5090" data-name="패스 5090" d="M52.26,324.118c3.87,2.259,3.87,5.922,0,8.182a15.336,15.336,0,0,1-14.015,0c-3.874-2.26-3.87-5.923,0-8.182A15.288,15.288,0,0,1,52.26,324.118Z" transform="translate(-35.061 -322.414)" opacity="0.1"/>
          <path id="패스_5091" data-name="패스 5091" d="M54.261,327.467c2.84,1.659,2.84,4.349,0,6.008a11.261,11.261,0,0,1-10.291,0c-2.84-1.659-2.84-4.349,0-6.008A11.262,11.262,0,0,1,54.261,327.467Z" transform="translate(-38.918 -324.679)" fill="#455a64"/>
          <path id="패스_5092" data-name="패스 5092" d="M44.594,334.5a11.262,11.262,0,0,1,10.291,0,4.71,4.71,0,0,1,1.7,1.578,4.746,4.746,0,0,1-1.7,1.578,11.262,11.262,0,0,1-10.291,0,4.725,4.725,0,0,1-1.7-1.578,4.694,4.694,0,0,1,1.7-1.578Z" transform="translate(-39.542 -328.857)" fill="#f5f5f5"/>
        </g>
        <g id="freepik--Plants--inject-145">
          <path id="패스_5093" data-name="패스 5093" d="M63.848,257.621l-6.8,4.641,6.413-2.434a11.7,11.7,0,0,1-1.266,4.929,32.292,32.292,0,0,0-6.539,4.227l5.643-1.777a27.585,27.585,0,0,1-.929,6.227,36.893,36.893,0,0,1-3.148,6.855,20.811,20.811,0,0,1-1.55,2.288c-.032.049-.069.093-.105.142q-1.57-1.055-3.27-2.053a35.372,35.372,0,0,1-1.5-8.993c-.491-12.575,9.439-19.041,17.187-20.9A22.47,22.47,0,0,0,63.848,257.621Z" transform="translate(-33.781 -250.77)" fill="#4a95df"/>
          <path id="패스_5094" data-name="패스 5094" d="M63.848,257.621l-6.8,4.641,6.413-2.434a11.7,11.7,0,0,1-1.266,4.929,32.292,32.292,0,0,0-6.539,4.227l5.643-1.777a27.585,27.585,0,0,1-.929,6.227,36.893,36.893,0,0,1-3.148,6.855,20.811,20.811,0,0,1-1.55,2.288c-.032.049-.069.093-.105.142q-1.57-1.055-3.27-2.053a35.372,35.372,0,0,1-1.5-8.993c-.491-12.575,9.439-19.041,17.187-20.9A22.47,22.47,0,0,0,63.848,257.621Z" transform="translate(-33.781 -250.77)" opacity="0.2"/>
          <path id="패스_5095" data-name="패스 5095" d="M62.081,268a9.45,9.45,0,0,0-1.765,2.126,19.584,19.584,0,0,0-1.241,2.474,25.5,25.5,0,0,0-1.521,5.314,23.451,23.451,0,0,0,.6,10.92h0a.183.183,0,0,1-.122.227.178.178,0,0,1-.223-.122h0a23.682,23.682,0,0,1-.406-11.062,25.276,25.276,0,0,1,1.623-5.314,18.98,18.98,0,0,1,1.286-2.466A9.4,9.4,0,0,1,62.081,268Z" transform="translate(-37.442 -261.011)" fill="#fafafa"/>
          <path id="패스_5096" data-name="패스 5096" d="M8.88,276.84h0a96.453,96.453,0,0,1,6.438,9.659l6.49,1.253-4.843.694,2.462,4.174,6.385,1.525-5.042.665s1.258,4.949,4.791,7.1c1.951,1.189,2.913,1.391,3.525.844.43-.406.6-2.73,1.01-4.815a16.19,16.19,0,0,0-1.29-9.675,12.927,12.927,0,0,0-1.967-3.087C22.226,279.745,13.322,276.9,8.88,276.84Z" transform="translate(-8.88 -266.265)" fill="#4a95df"/>
          <path id="패스_5097" data-name="패스 5097" d="M8.88,276.84h0a96.453,96.453,0,0,1,6.438,9.659l6.49,1.253-4.843.694,2.462,4.174,6.385,1.525-5.042.665s1.258,4.949,4.791,7.1c1.951,1.189,2.913,1.391,3.525.844.43-.406.6-2.73,1.01-4.815a16.19,16.19,0,0,0-1.29-9.675,12.927,12.927,0,0,0-1.967-3.087C22.226,279.745,13.322,276.9,8.88,276.84Z" transform="translate(-8.88 -266.23)" fill="#fff" opacity="0.3"/>
          <path id="패스_5098" data-name="패스 5098" d="M27.41,290.409h0a19.524,19.524,0,0,1,1.331,5.444h0a58.528,58.528,0,0,1-.032,7.091,1.061,1.061,0,0,0,.365-.211c.43-.406.6-2.73,1.01-4.815a16.1,16.1,0,0,0-1.278-9.655,12.927,12.927,0,0,0-1.967-3.087c-4.612-5.432-13.516-8.271-17.958-8.336,6.787,1.326,13.975,6.085,17.443,11.476a13.722,13.722,0,0,1,1.087,2.093Z" transform="translate(-8.88 -266.265)" opacity="0.1"/>
          <path id="패스_5099" data-name="패스 5099" d="M25.56,282.63a26.6,26.6,0,0,1,8.892,6.551,17.686,17.686,0,0,1,2.969,4.714,16.892,16.892,0,0,1,1.258,5.411.028.028,0,0,1,0,.02h0a21.775,21.775,0,0,0-1.554-5.273,20.45,20.45,0,0,0-2.84-4.673,23.421,23.421,0,0,0-4-3.789,30.529,30.529,0,0,0-4.693-2.917v-.032Z" transform="translate(-18.794 -269.706)" fill="#fafafa"/>
          <path id="패스_5100" data-name="패스 5100" d="M78.407,288.224h0a13.722,13.722,0,0,0-1.647,0,26.136,26.136,0,0,0-6.361,1.168c-.767.235-1.537.511-2.3.811-.381.158-.759.32-1.132.5a18.115,18.115,0,0,0-5.01,3.371,11.312,11.312,0,0,0-1.785,2.235c-.065.105-.134.207-.195.316h0c-.158.28-.3.556-.434.811a15.728,15.728,0,0,0-1.842,7.647,10.163,10.163,0,0,0,.811,4.426,1.219,1.219,0,0,0,.158.13c.515.369,1.375.215,3.01-.584,3.278-1.6,4.779-6.036,4.779-6.036l-4.381-.994,5.74-.811,2.5-3.468-4.186-.986,5.813-.568a85.528,85.528,0,0,1,6.446-7.959h0Z" transform="translate(-37.899 -273.016)" fill="#4a95df"/>
          <path id="패스_5101" data-name="패스 5101" d="M76.76,288.188a26.13,26.13,0,0,0-6.361,1.18c-.767.235-1.537.511-2.3.811-.381.158-.759.32-1.132.5a18.115,18.115,0,0,0-5.01,3.371,11.313,11.313,0,0,0-1.785,2.235c-.065.105-.134.207-.195.316h0c-.158.28-.3.556-.434.811a15.727,15.727,0,0,0-1.842,7.647,10.164,10.164,0,0,0,.811,4.426,1.216,1.216,0,0,0,.158.13,1.02,1.02,0,0,0,.345.146c-.231-2.925,1.623-10.206,3.931-13.115a25.868,25.868,0,0,1,15.435-8.466h0A13.537,13.537,0,0,0,76.76,288.188Z" transform="translate(-37.899 -272.992)" opacity="0.1"/>
          <path id="패스_5102" data-name="패스 5102" d="M60.929,312.25a25.061,25.061,0,0,1,.771-6.4,20.688,20.688,0,0,1,2.47-5.967,14.639,14.639,0,0,1,2.081-2.5,21.033,21.033,0,0,1,2.495-2.077,24.277,24.277,0,0,1,5.712-3.01h.024v.02a31.664,31.664,0,0,0-5.517,3.27,25.693,25.693,0,0,0-2.434,2.028,14,14,0,0,0-2.093,2.4,20.574,20.574,0,0,0-2.531,5.858,24.845,24.845,0,0,0-.949,6.377Z" transform="translate(-39.814 -275.453)" fill="#fafafa"/>
        </g>
      </g>
    </g>
  </g>
</svg>
