<svg xmlns="http://www.w3.org/2000/svg" width="190" height="175" viewBox="0 0 190 175">
  <g id="Stop_racism-amico_1_" data-name="Stop racism-amico (1)" transform="translate(-12.628 -47.966)">
    <g id="freepik--Floor--inject-882" transform="translate(12.628 112.788)">
      <path id="freepik--floor--inject-882-2" data-name="freepik--floor--inject-882" d="M40.451,304.81c-37.1-21.517-37.1-56.4,0-77.905s97.252-21.517,134.351,0,37.1,56.393,0,77.909S77.554,326.323,40.451,304.81Z" transform="translate(-12.628 -210.77)" fill="#f5f5f5"/>
    </g>
    <g id="freepik--Shadows--inject-882" transform="translate(25.707 156.677)">
      <ellipse id="freepik--Shadow--inject-882" cx="24.276" cy="14.017" rx="24.276" ry="14.017" transform="translate(0 11.21)" fill="#e0e0e0"/>
      <ellipse id="freepik--shadow--inject-882-2" data-name="freepik--shadow--inject-882" cx="24.276" cy="14.017" rx="24.276" ry="14.017" transform="translate(116.928 11.21)" fill="#e0e0e0"/>
      <ellipse id="freepik--shadow--inject-882-3" data-name="freepik--shadow--inject-882" cx="24.276" cy="14.017" rx="24.276" ry="14.017" transform="translate(39.86)" fill="#e0e0e0"/>
      <ellipse id="freepik--shadow--inject-882-4" data-name="freepik--shadow--inject-882" cx="24.276" cy="14.017" rx="24.276" ry="14.017" transform="translate(79.445)" fill="#e0e0e0"/>
    </g>
    <g id="freepik--character-3--inject-882" transform="translate(125.76 71.729)">
      <g id="freepik--Character--inject-882">
        <g id="freepik--Bottom--inject-882" transform="translate(20.923 41.956)">
          <path id="패스_7157" data-name="패스 7157" d="M362.344,361.273a.317.317,0,0,1,.229.225c.128.481.112,1.027.2,1.516a7.877,7.877,0,0,1,.14,2.487c-.14.614-.983,1.2-2.551,1.6a10.66,10.66,0,0,0-3.421,1.709,7.914,7.914,0,0,1-4.339,1.52c-1.6,0-3.245-.441-3.609-1.6-.152-.485.65-1.235,2.711-2.17,0,0,1.315-.7,1.909-1.059a23.871,23.871,0,0,0,3.3-2.31c.333-.3,2.6-2.88,3.088-2.467a1.949,1.949,0,0,1,.666,1.717c.108.06.245-.04.289-.156a2.737,2.737,0,0,0,.044-.365.778.778,0,0,1,.537-.553,1.532,1.532,0,0,1,.806-.092Z" transform="translate(-348.975 -300.982)" fill="#37474f"/>
          <path id="패스_7158" data-name="패스 7158" d="M428.237,363.771a3.285,3.285,0,0,0-.221,1.091,7.754,7.754,0,0,0-.148.93c0,.277-.076.606-.337.7a.549.549,0,0,1-.573-.2,5.544,5.544,0,0,1-.357-.545,1.564,1.564,0,0,0-1.151-.654c-.457-.036-.533-.168-.846.164,0,0,1.54,2.627.369,7.219a4.163,4.163,0,0,1-1.151,1.664c-.277.269-.509.429-.85.762a.922.922,0,0,0-.365.87,1.163,1.163,0,0,0,.345.774,3.987,3.987,0,0,0,1.6.6,5.832,5.832,0,0,0,3.277-.369,3.766,3.766,0,0,0,1.416-1.147,6.812,6.812,0,0,0,.762-3.73,25.328,25.328,0,0,1,.746-5.093C431.033,365.271,428.719,363.551,428.237,363.771Z" transform="translate(-393.071 -302.823)" fill="#37474f"/>
          <path id="패스_7159" data-name="패스 7159" d="M360.814,279.986c.959-.995,1.159-1.969,1.067-3.854s-1.247-18.3-1.548-22.411c-.505-6.906.493-26.47,1.159-31.25l17.971,1.781c1.267,3.361,2.166,7.492,1.829,13.933-.257,4.917-.4,18.256-.4,18.256a16.732,16.732,0,0,1,3.726,5.908c1.348,3.449,2.739,15.3,2.739,15.3h0a10.1,10.1,0,0,0,.509,1.508,2.932,2.932,0,0,1,.626,1.741,28.928,28.928,0,0,1-.77,6.064,2.831,2.831,0,0,1-1.941,2.069,1.7,1.7,0,0,1-.722.1.53.53,0,0,1-.345-.136c-.172-.181,0-.59.032-.8a7.726,7.726,0,0,0,.112-1.007c.032-.662.028-1.472,0-2.138a21.786,21.786,0,0,0-.626-4.412l-.341-.858h0s-7.652-16.247-9.842-20.213c-1.737-3.112-2.7-15.08-3.838-21.633l-2.471,15.561a30.478,30.478,0,0,1,1.095,5c.273,2.9-2.005,14.209-2.691,18.232a8.189,8.189,0,0,0-.072,2.258h0c-.253,1.745-1.576,2.258-2.952,3.208a19.91,19.91,0,0,1-5.487,2.547c-1.464.269-3.092-.425-2.2-.959A30.3,30.3,0,0,0,360.814,279.986Z" transform="translate(-352.69 -218.203)" fill="#9e6767"/>
          <path id="패스_7160" data-name="패스 7160" d="M377.891,236.531c-.152-1.757-.61-4.167-.61-4.167l-.674,4.047-1.528,10.516a27.429,27.429,0,0,1,.77,3.048,23.662,23.662,0,0,1-.213,7.736c-.425,2.234-1.3,6.24-1.3,6.24a5.786,5.786,0,0,1-5.859-.16s-.553-4.58-1.039-11.169-.553-13.1-.489-18.565c0,0-.048-12.569,1.953-21.513,2.663,1.961,11.306,1.781,14.6-.714,0,0,.959,1.656,3.7,6.505,2.15,3.81,1.376,9.842,1.311,14.9-.1,7.8-.317,16.6-.317,16.6a25.138,25.138,0,0,1,2.675,3.746c1.376,2.318,2.005,7.42,2.005,7.42s-1.5,3.024-6.4,3.056c0,0-4.588-8.763-5.743-10.752S378.039,238.292,377.891,236.531Z" transform="translate(-359.729 -211.83)" fill="#37474f"/>
          <path id="패스_7161" data-name="패스 7161" d="M381.246,249.015l-1.652-6.918a14.142,14.142,0,0,1-6.044-2.446s.5,2.527,5.214,3.361l1.881,6.806-.2,4.147Z" transform="translate(-363.694 -228.493)" fill="#263238"/>
        </g>
        <g id="freepik--Top--inject-882">
          <path id="freepik--Arm--inject-882" d="M299.077,169.069c.947.658,3.926,1.873,3.93,1.127-.084-.3-1.087-.706-1.348-1.259a.8.8,0,0,1,.144-.963,21.194,21.194,0,0,1,2.807,1.488c1.384.914,1.3,2.005,2.539,2.27l10.889,2.218s8.146-8.049,9.469-9.072a6.1,6.1,0,0,1,4.773-1.159l-3.714,8.651s-4.119,3.505-6.249,5.462c-1.937,1.777-3.285,2.406-5.679,1.708-2.278-.678-7.187-2.053-10.476-3.273-2.2-.618-3.774-.4-5.839-1.307-2.194-.979-3.168-1.456-3.473-3.914S297.8,168.187,299.077,169.069Z" transform="translate(-296.805 -141.002)" fill="#9e6767"/>
          <path id="패스_7162" data-name="패스 7162" d="M370.66,196.4a28.726,28.726,0,0,1,.582,3.942,29.616,29.616,0,0,1-.1,2.96s1.235,2.691,6.048,2.543,8.39-1.773,8.551-3.257a11.979,11.979,0,0,1-.3-3.726Z" transform="translate(-341.04 -160.633)" fill="#9e6767"/>
          <path id="패스_7163" data-name="패스 7163" d="M384.47,174.37a14.262,14.262,0,0,0-1.833,5.859c-6.69,1.909-11.707,1.159-14.346-.425-.076-.333-.61-2.711-.614-2.9a4.92,4.92,0,0,1-1.508-2.21,5.27,5.27,0,0,1,.934-4.363,31.863,31.863,0,0,1,6.637-6.477l6.734.188c1.319.092,3.253.3,3.253.3,1.388.778,1.68,2.9,1.692,4.544A15.5,15.5,0,0,1,384.47,174.37Z" transform="translate(-338.27 -141.137)" fill="#fea42e"/>
          <path id="패스_7164" data-name="패스 7164" d="M378.27,193.221a5.685,5.685,0,0,0,4.9,1.283,4.556,4.556,0,0,0,3.313-3,4.021,4.021,0,0,1-3.409,3.806,4.412,4.412,0,0,1-4.809-2.085Z" transform="translate(-345.598 -157.698)" opacity="0.1"/>
          <path id="패스_7165" data-name="패스 7165" d="M422.31,184.07c-.61-.124-5.655-4.837-5.655-4.837s-2.679-8.579-3.237-10.472c-.83-2.835-2.406-3.485-5.041-3.8-.922.971-.894,4.845-.08,7.139,1.416,3.674,2.876,8.522,3.241,9.369a5.04,5.04,0,0,0,2.005,2.13c2.807,1.917,5.956,4.051,6.986,4.051" transform="translate(-363.216 -141.802)" fill="#9e6767"/>
          <path id="패스_7166" data-name="패스 7166" d="M436.2,203.737c2.651.449,3.9-.682,4.745-2.92a51.254,51.254,0,0,0,1.6-6.064c.2-.794,0-1.119-.3-1.231-.116-.04-.65,0-.882.826-.425,1.54-.662,2.491-.959,2.406s0-1.2.337-2.807c.237-1.055.4-1.957-.2-2.081s-.918.469-1.247,1.9-.505,2.5-.894,2.45c-.313-.04.064-1.552.2-2.547s.257-1.6-.361-1.7c-.557-.1-.87.654-1.047,1.628a39.867,39.867,0,0,1-.914,3.93c-.289.537-.59-.983-.9-1.644-.513-1.087-1.464-.834-1.291.092a17.5,17.5,0,0,1,.293,3.445C434.332,200.549,434.22,203.34,436.2,203.737Z" transform="translate(-379.012 -157.907)" fill="#9e6767"/>
          <path id="패스_7167" data-name="패스 7167" d="M442.14,209.71s1.44,1.845.678,3.577a2.406,2.406,0,0,0,.533-2.374,1.833,1.833,0,0,0-1.211-1.2Z" transform="translate(-383.852 -168.604)" fill="#9a4a4d"/>
          <path id="패스_7168" data-name="패스 7168" d="M434.551,207a16.306,16.306,0,0,1,.164,1.656,15.483,15.483,0,0,0,.1,1.6,4.685,4.685,0,0,0,.425,1.524,2.09,2.09,0,0,0,1.2,1,1.865,1.865,0,0,1-.8-.265,2.118,2.118,0,0,1-.614-.61,3.943,3.943,0,0,1-.537-1.6,8.336,8.336,0,0,1,0-1.672c.02-.277,0-.545.032-.8S434.523,207.289,434.551,207Z" transform="translate(-379.243 -166.981)" fill="#9a4a4d"/>
          <g id="freepik--Head--inject-882" transform="translate(29.129)">
            <path id="패스_7169" data-name="패스 7169" d="M376,124.34c.722-3.249,3.425-5.651,7.676-4.773s6.281,4.813,5.45,7.8a11.925,11.925,0,0,1-2.005,4.347Z" transform="translate(-373.367 -114.505)" fill="#263238"/>
            <path id="패스_7170" data-name="패스 7170" d="M388.3,130.623c-1.328-.882-2.218.838-2.218.838h0c-1.424.842-1.769-3.61-2.755-4.359-1.5-1.139-2.647-1.151-4.712-1.079-1.737.06-3.706.4-3.726,5.815,0,4.247,1.444,6.269,2.154,6.674a5.276,5.276,0,0,0,3.02.449v2.374a3.333,3.333,0,0,0-1.163,3.758,14.305,14.305,0,0,0,4.011-.951c2.864-1.259,3.421-2.731,3.421-2.731l.176-6.722h0c.088.465.858.529,1.484-.4C388.9,132.925,388.666,130.868,388.3,130.623Z" transform="translate(-372.702 -118.466)" fill="#9e6767"/>
            <path id="패스_7171" data-name="패스 7171" d="M389.932,137.607a.646.646,0,0,0,.533.718.6.6,0,0,0,.694-.509.646.646,0,0,0-.533-.718.6.6,0,0,0-.694.509Z" transform="translate(-381.708 -125.109)" fill="#263238"/>
            <path id="패스_7172" data-name="패스 7172" d="M377.1,133.2l1.372-.6a.722.722,0,0,0-.963-.4A.8.8,0,0,0,377.1,133.2Z" transform="translate(-373.993 -122.144)" fill="#263238"/>
            <path id="패스_7173" data-name="패스 7173" d="M391.13,133.465l1.291.754a.718.718,0,0,0-.241-1.015A.8.8,0,0,0,391.13,133.465Z" transform="translate(-382.429 -122.724)" fill="#263238"/>
            <path id="패스_7174" data-name="패스 7174" d="M386.936,148.41l-2.106.6a1.1,1.1,0,0,0,1.456.718,1.031,1.031,0,0,0,.65-1.319Z" transform="translate(-378.656 -131.889)" fill="#874c4c"/>
            <path id="패스_7175" data-name="패스 7175" d="M387,150.335a1.159,1.159,0,0,1,1.2-.987h.108a.966.966,0,0,1-.69.926,1.26,1.26,0,0,1-.622.06Z" transform="translate(-379.955 -132.45)" fill="#f28f8f"/>
            <path id="패스_7176" data-name="패스 7176" d="M377.992,136.7a.65.65,0,0,0,.533.722.606.606,0,0,0,.71-.509.65.65,0,0,0-.533-.722.606.606,0,0,0-.71.509Z" transform="translate(-374.557 -124.567)" fill="#263238"/>
            <path id="패스_7177" data-name="패스 7177" d="M382.024,136.56l-.221,3.89-2.134-.642Z" transform="translate(-375.565 -124.792)" fill="#874c4c"/>
            <path id="패스_7178" data-name="패스 7178" d="M387.79,155.325c1.38-.176,3.91-.882,4.351-2.005a2.182,2.182,0,0,1-1.039,1.7,10.659,10.659,0,0,1-3.313,1.019Z" transform="translate(-380.428 -134.83)" fill="#874c4c"/>
            <path id="패스_7179" data-name="패스 7179" d="M391.037,107.688c3.124-1.708,9.008,1.408,8.422,6.589S386.332,111.309,391.037,107.688Z" transform="translate(-381.742 -107.217)" fill="#fea42e"/>
            <path id="패스_7180" data-name="패스 7180" d="M391.037,107.688c3.124-1.708,9.008,1.408,8.422,6.589S386.332,111.309,391.037,107.688Z" transform="translate(-381.717 -107.217)" opacity="0.55"/>
            <path id="패스_7181" data-name="패스 7181" d="M375.962,117.314c.75-1.676,1.648-3.265,5.182-3.1,3.349.156,4.143,1.636,4.813,2.723a16.2,16.2,0,0,1,2.1,5.182c.369,2.162-.954,1.584-.954,1.584l-.092,3.557c.369-2.406,3.132-5.888,3.686-7.323a8.124,8.124,0,0,0-1.444-8.595c-2.519-2.888-6.549-4.532-9.481-3.245C377.634,109.04,375.689,114.546,375.962,117.314Z" transform="translate(-373.329 -107.478)" fill="#fea42e"/>
            <path id="패스_7182" data-name="패스 7182" d="M375.962,117.314c.75-1.676,1.648-3.265,5.182-3.1,3.349.156,4.143,1.636,4.813,2.723a16.2,16.2,0,0,1,2.1,5.182c.369,2.162-.954,1.584-.954,1.584l-.092,3.557c.369-2.406,3.132-5.888,3.686-7.323a8.124,8.124,0,0,0-1.444-8.595c-2.519-2.888-6.549-4.532-9.481-3.245C377.634,109.04,375.689,114.546,375.962,117.314Z" transform="translate(-373.303 -107.478)" opacity="0.4"/>
            <path id="패스_7183" data-name="패스 7183" d="M388.786,125.422c-.028.052-.056.1-.088.152a13.6,13.6,0,0,0-1.644,4.412l.1-3.557s1.324.578.955-1.584a16.2,16.2,0,0,0-2.09-5.19c-.674-1.083-1.468-2.567-4.813-2.723a5.039,5.039,0,0,0-3.858,1.047l-.962-1.255-.4-.505c0-1.536.429-3.469,2.278-3.926a4.151,4.151,0,0,1,1.472-.06c3.112.365,7.877.963,9.413,5.037S390,123.261,388.786,125.422Z" transform="translate(-373.355 -110.197)" fill="#fea42e"/>
            <path id="패스_7184" data-name="패스 7184" d="M388.786,125.422c-.028.052-.056.1-.088.152a13.6,13.6,0,0,0-1.644,4.412l.1-3.557s1.324.578.955-1.584a16.2,16.2,0,0,0-2.09-5.19c-.674-1.083-1.468-2.567-4.813-2.723a5.039,5.039,0,0,0-3.858,1.047l-.962-1.255-.4-.505c0-1.536.429-3.469,2.278-3.926a4.151,4.151,0,0,1,1.472-.06c3.112.365,7.877.963,9.413,5.037S390,123.261,388.786,125.422Z" transform="translate(-373.329 -110.197)" opacity="0.3"/>
            <path id="패스_7185" data-name="패스 7185" d="M374.32,125.942a26.5,26.5,0,0,0-.164-3.208,6.679,6.679,0,0,1,0-3.309c.694-2.539,5.366-4.52,8.3-2.326a8.772,8.772,0,0,1,3.858,8.073s-1.668-4.2-4.973-5.3c-2.458-.8-4.929-.642-6.156,1.929A9.4,9.4,0,0,0,374.32,125.942Z" transform="translate(-372.132 -112.57)" fill="#fea42e"/>
            <path id="패스_7186" data-name="패스 7186" d="M375.81,123.042a11,11,0,0,0-1.66-.469,2.6,2.6,0,0,0-1.68.225,1.5,1.5,0,0,0-.8,1.42,2.189,2.189,0,0,1,.1.858.87.87,0,0,1-.521.5c-.233.092-.485.128-.722.209a1.56,1.56,0,0,0-1.071,1.159,1.047,1.047,0,0,0,.858,1.2.922.922,0,0,1,.257-1.34c.453-.249,1.007-.064,1.52-.1a2.679,2.679,0,0,0,1.6-.83c.449-.429.8-.93,1.279-1.352a2.87,2.87,0,0,1,1.9-.61c.116,0,.249-.59.076-.622C376.7,123.247,375.958,123.09,375.81,123.042Z" transform="translate(-369.435 -116.384)" fill="#263238"/>
            <path id="freepik--Earing--inject-882" d="M403.109,146.374a2.166,2.166,0,1,1-1.532-.634" transform="translate(-387.39 -130.29)" fill="none" stroke="#37474f" stroke-linecap="round" stroke-linejoin="round" stroke-width="1.066"/>
          </g>
        </g>
      </g>
    </g>
    <g id="freepik--character-1--inject-882" transform="translate(17.519 68.046)">
      <g id="freepik--character--inject-882-2" data-name="freepik--character--inject-882" transform="translate(0 0)">
        <g id="freepik--bottom--inject-882-2" data-name="freepik--bottom--inject-882" transform="translate(16.267 46.092)">
          <path id="패스_7187" data-name="패스 7187" d="M125.77,377.744a1.668,1.668,0,0,1-.02,1.235c-.156.365-2.005,1.5-4.532,1.432a10.532,10.532,0,0,1-5.314-1.6,6.1,6.1,0,0,0-3.261-.7,4.757,4.757,0,0,1-3.156-1.047,2.984,2.984,0,0,1,0-1.692Z" transform="translate(-91.726 -310.234)" fill="#263238"/>
          <path id="패스_7188" data-name="패스 7188" d="M116.4,361.937a4.442,4.442,0,0,1,.253.565,4.48,4.48,0,0,0,1.4,1.741,14.354,14.354,0,0,0,2.807,1.512c.622.277,1.275.357,1.909.578a10.9,10.9,0,0,1,2.053.9,1.836,1.836,0,0,1,.112,3.02,8.948,8.948,0,0,1-6.228.686c-1.484-.357-3.18-1.861-5.113-1.933-1.231-.044-3.565-.3-4.412-1.2-.3-1.344.028-1.729.3-2.872a8.983,8.983,0,0,0,.233-1.965c0-.349-.229-1.348.5-1.468l.072.75s.14.253.9.4c.245.044.437.365.574.662.1.229.209.517.457.513a.469.469,0,0,0,.381-.3,3.569,3.569,0,0,0,.14-.489,1.913,1.913,0,0,1,1.151-1.139,5.722,5.722,0,0,1,1.348-.285c.353-.052.634-.2.946.092a1.108,1.108,0,0,1,.221.229Z" transform="translate(-91.542 -301.927)" fill="#37474f"/>
          <path id="패스_7189" data-name="패스 7189" d="M65.547,377a1.869,1.869,0,0,0-.1,1.255c.1.293.509.561.93,1.2a5.643,5.643,0,0,1,.93,2.936,6.562,6.562,0,0,0,.874,3.5c.666.947,1.54,1.713,3.778,1.921s3.8.06,4.757-.646a1.051,1.051,0,0,0,.2-1.031Z" transform="translate(-65.385 -311.21)" fill="#263238"/>
          <path id="패스_7190" data-name="패스 7190" d="M72.493,367.284l.14-.694c.257,0,.4.052.449.674.136,1.668-.088,2.739.289,3.726a16.483,16.483,0,0,0,2.118,4.448,23.512,23.512,0,0,1,1.58,2.069c.245.541.277,1.793-.245,2.077a8.349,8.349,0,0,1-6.549.092,3.734,3.734,0,0,1-2.535-3.417,9.594,9.594,0,0,0-1.011-4.319c-.289-.521-.967-1-1.143-1.564a5.4,5.4,0,0,1,.63-3.016c.3-.83.618-1.737.9-1.632,0,.1-.044.521-.044.521a4.8,4.8,0,0,0,2.575,1.043C70.34,367.384,72.449,367.837,72.493,367.284Z" transform="translate(-65.489 -304.454)" fill="#37474f"/>
          <path id="패스_7191" data-name="패스 7191" d="M71.422,215.555c-.938,9.172-1.3,13.532-2.507,31.832a52.661,52.661,0,0,0-1.845,10.508c-.261,4.444-.89,17.831-.89,17.831s3.581,2.94,7.724,1.58c0,0,3.754-19.672,5.061-25.812,1.251-5.888,2.218-12.329,2.218-12.329l.894,8.214s-.164,3.654-.052,9.112c.064,2.92,1.472,18.717,1.472,18.717s5.021,2.286,8.422-.646c0,0,.245-25.624.3-28.267.056-3.012-.461-33.336-.461-33.336Z" transform="translate(-65.861 -212.96)" fill="#455a64"/>
          <path id="패스_7192" data-name="패스 7192" d="M103.59,254.4l2.571-13.455s3.97-.349,6.16-2.563c0,0-.4,2.17-5.378,3.473l-2.479,12.393.028,8.366Z" transform="translate(-88.268 -228.185)" fill="#37474f"/>
          <path id="패스_7193" data-name="패스 7193" d="M66.47,362.282a8.161,8.161,0,0,0,5.507,1.985,10.36,10.36,0,0,1-5.47-2.767Z" transform="translate(-66.035 -301.927)" fill="#37474f"/>
          <path id="패스_7194" data-name="패스 7194" d="M109,363.55a11.81,11.81,0,0,0,6.453.289s-2.282,1.532-6.417.273Z" transform="translate(-91.508 -303.155)" fill="#37474f"/>
        </g>
        <g id="freepik--top--inject-882-2" data-name="freepik--top--inject-882">
          <path id="freepik--arm--inject-882-2" data-name="freepik--arm--inject-882" d="M155.185,157.9c-1.063.734-4.392,2.09-4.412,1.255.092-.329,1.2-.8,1.508-1.4a.886.886,0,0,0-.164-1.079,23.807,23.807,0,0,0-3.136,1.664c-1.544,1.023-1.809,2.1-2.839,2.314l-13.026,2.892s-9.521-9.453-11.057-10.524c-1.664-1.163-3.61-1.235-5.847-.8l4.167,9.674s6.77,5.382,8.823,6.754,3.662,2.595,5.9,1.793c2.5-.894,8.494-3.116,12.176-4.48,2.454-.69,4.219-.433,6.529-1.464,2.45-1.095,3.541-1.628,3.882-4.376S156.633,156.908,155.185,157.9Z" transform="translate(-79.559 -130.339)" fill="#ffc4c3"/>
          <path id="패스_7195" data-name="패스 7195" d="M116.23,150.1s3.658-.1,5.486.951a28.749,28.749,0,0,1,5.105,4.448c1.143,1.155,4.059,4.376,4.556,4.813s2.057,1.2,2.17,2.005l-.4.088s-1.311.044-1.311,2.807a9.34,9.34,0,0,0,1.456,4.857l.938-.064a5.238,5.238,0,0,1-2.627.465,5.7,5.7,0,0,1-3.152-1.644c-1.227-1.019-9.625-7.219-9.625-7.219Z" transform="translate(-79.571 -129.215)" fill="#4a95df"/>
          <path id="패스_7196" data-name="패스 7196" d="M116.23,150.1s3.658-.1,5.486.951a28.749,28.749,0,0,1,5.105,4.448c1.143,1.155,4.059,4.376,4.556,4.813s2.057,1.2,2.17,2.005l-.4.088s-1.311.044-1.311,2.807a9.34,9.34,0,0,0,1.456,4.857l.938-.064a5.238,5.238,0,0,1-2.627.465,5.7,5.7,0,0,1-3.152-1.644c-1.227-1.019-9.625-7.219-9.625-7.219Z" transform="translate(-79.571 -129.215)" opacity="0.2"/>
          <path id="패스_7197" data-name="패스 7197" d="M151.186,180.42a2.976,2.976,0,0,0-1.769-.1,3.036,3.036,0,0,0-1.837.979c-.465.517-.975.734-.8,1.239s.65.052,1.027-.521A4.012,4.012,0,0,1,151.186,180.42Z" transform="translate(-97.847 -147.266)" opacity="0.2"/>
          <path id="패스_7198" data-name="패스 7198" d="M156.821,179.953a.646.646,0,0,0-.437-.193,3.469,3.469,0,0,0-1.532.361,3.172,3.172,0,0,0-.8,1.969c-.168,2.049.445,4.568,1.857,5.747a4.921,4.921,0,0,0,1.721-.257,2.142,2.142,0,0,0,1.3-.938l-1.2.429a3.273,3.273,0,0,1-1.336-1.564c-1.059-2.154-1.147-4.307-.642-5.322Z" transform="translate(-102.206 -146.983)" fill="#455a64"/>
          <path id="패스_7199" data-name="패스 7199" d="M78.018,221.123a5.431,5.431,0,0,0,.056,2.077c.273.421,5.354,1.773,11.96,1.119s8.6-2.406,8.823-2.771a4.067,4.067,0,0,0,0-2.258Z" transform="translate(-56.636 -170.659)" fill="#4a95df"/>
          <path id="패스_7200" data-name="패스 7200" d="M78.018,221.123a5.431,5.431,0,0,0,.056,2.077c.273.421,5.354,1.773,11.96,1.119s8.6-2.406,8.823-2.771a4.067,4.067,0,0,0,0-2.258Z" transform="translate(-56.636 -170.659)" opacity="0.2"/>
          <path id="패스_7201" data-name="패스 7201" d="M96,157.629c-.285-5.671-2.571-7.961-5.743-8.242l-7.135-.477c-1.524.4-6.369,1.2-8.446,1.809s-2.005,5.639-1.536,8.719,1.5,5.434,1.785,10.624c-.08,4.913-1.332,7.5-.12,8.8,4.44,2.807,16.443,1.881,21.12-.942.991-.489-.032-4.219.064-7.243C96.156,165.494,96.1,159.582,96,157.629Z" transform="translate(-53.602 -128.506)" fill="#4a95df"/>
          <path id="패스_7202" data-name="패스 7202" d="M91.18,149.516c1.019-.253,2.406-.473,2.912-.606l4.741.317h0c1.36.822,3.172,2.763,1,3.834s-5.755.048-7.159-1.348A5.707,5.707,0,0,1,91.18,149.516Z" transform="translate(-64.568 -128.506)" fill="#455a64"/>
          <path id="패스_7203" data-name="패스 7203" d="M38.74,175.98c.754-.152,7-5.988,7-5.988s3.317-10.616,4.011-12.962c1.027-3.505,2.98-4.311,6.24-4.7.124.325.578,9.224.578,9.224-1.885,4.139-4.035,10.171-4.488,11.23a6.206,6.206,0,0,1-2.479,2.643c-3.449,2.366-7.371,5.013-8.647,5.013" transform="translate(-33.159 -130.554)" fill="#ffc4c3"/>
          <path id="패스_7204" data-name="패스 7204" d="M32.771,200.37c-3.289.557-4.813-.846-5.875-3.61a56.351,56.351,0,0,1-1.973-7.508c-.237-.975-.02-1.384.361-1.524.144-.052.8-.02,1.095,1.023.525,1.905.822,3.08,1.2,2.992s0-1.508-.421-3.453c-.289-1.307-.473-2.406.261-2.575s1.131.578,1.536,2.35.63,3.1,1.111,3.032c.4-.048-.08-1.917-.245-3.152s-.317-1.961.449-2.1c.69-.128,1.079.8,1.3,2.005a49.547,49.547,0,0,0,1.131,4.869c.357.662.73-1.2,1.119-2.041.634-1.344,1.809-1.031,1.6.12a21.06,21.06,0,0,0-.361,4.263C35.078,196.424,35.214,199.881,32.771,200.37Z" transform="translate(-24.824 -150.536)" fill="#ffc4c3"/>
          <path id="패스_7205" data-name="패스 7205" d="M38.774,207.72s-1.785,2.278-.842,4.412a2.96,2.96,0,0,1-.658-2.94A2.266,2.266,0,0,1,38.774,207.72Z" transform="translate(-32.194 -163.729)" fill="#ffa8a7"/>
          <path id="패스_7206" data-name="패스 7206" d="M46.958,204.39c.064.686.088,1.36.112,2.037a10.508,10.508,0,0,1-.024,2.069,4.909,4.909,0,0,1-.662,2.005,2.5,2.5,0,0,1-.758.75,2.358,2.358,0,0,1-.987.329,2.6,2.6,0,0,0,1.468-1.243,5.667,5.667,0,0,0,.529-1.881,17.55,17.55,0,0,0,.112-2.005,20.417,20.417,0,0,1,.209-2.061Z" transform="translate(-36.693 -161.735)" fill="#ffa8a7"/>
          <path id="패스_7207" data-name="패스 7207" d="M65.926,152c.4,1.171,1.4,6.706,0,10.227,0,0-3.229,9.461-3.73,10.7a1.264,1.264,0,0,1-1.556.886,3.85,3.85,0,0,0-1.717-3.108,10.834,10.834,0,0,0-3.8-.906l-.5.441s-.626-.4.1-1.388c.7-1.552,1.055-2.663,1.817-4.777s2.358-8.823,3.87-10.456C61.783,152.132,63.448,152,65.926,152Z" transform="translate(-42.522 -130.356)" fill="#4a95df"/>
          <path id="패스_7208" data-name="패스 7208" d="M65.926,152c.4,1.171,1.4,6.706,0,10.227,0,0-3.229,9.461-3.73,10.7a1.264,1.264,0,0,1-1.556.886,3.85,3.85,0,0,0-1.717-3.108,10.834,10.834,0,0,0-3.8-.906l-.5.441s-.626-.4.1-1.388c.7-1.552,1.055-2.663,1.817-4.777s2.358-8.823,3.87-10.456C61.783,152.132,63.448,152,65.926,152Z" transform="translate(-42.522 -130.356)" opacity="0.2"/>
          <path id="패스_7209" data-name="패스 7209" d="M54.667,195.508a3.634,3.634,0,0,1,1.849-.353,4.512,4.512,0,0,1,3.75,2.527,3.505,3.505,0,0,1,.241,2.005h0s-.7.914-1.255.967a3.662,3.662,0,0,0-1.492-3.313c-2.254-1.664-3.557-1.1-3.557-1.1l-.221.2C53.893,196.222,54.274,195.889,54.667,195.508Z" transform="translate(-42.28 -156.198)" fill="#455a64"/>
          <path id="패스_7210" data-name="패스 7210" d="M101.749,101.441a2.555,2.555,0,0,0-1.765-2.5,7.62,7.62,0,0,0-2.527-.16,22.777,22.777,0,0,1-4.7-.565,10.471,10.471,0,0,0-3.164-.112,5.888,5.888,0,0,0-2.6.983,3.441,3.441,0,0,0-1.48,3.04c-.991.553-1.255,1.7-1.332,3a10.649,10.649,0,0,0,1.287,4.572s1.54,3.678,1.905,4.412c.429.838.8,1.544.8,1.544l-.164-3.056c1.111-.1,2.005.241,3.056-.148A20.453,20.453,0,0,0,93.94,111.1a28.341,28.341,0,0,0,2.779-1.825c.449-.329.878-.674,1.319-1.015a6.955,6.955,0,0,1,.914-.778,4.451,4.451,0,0,1,.8-.273,3.108,3.108,0,0,0,1.636-1.075,2.406,2.406,0,0,0,.4-1.388,1.837,1.837,0,0,0-.922-1.632C101.3,102.981,101.749,102.031,101.749,101.441Z" transform="translate(-60.37 -98.034)" fill="#e0e0e0"/>
          <path id="패스_7211" data-name="패스 7211" d="M90.18,108.858a6.337,6.337,0,0,1-2.266,3.818,9.533,9.533,0,0,1,.076,3.208,1.821,1.821,0,0,1-.241.646.8.8,0,0,1-.57.361c-.309.02-.437-.168-.533-.4a8.062,8.062,0,0,0-.473-.9,1.7,1.7,0,0,0-.273-.349,1.524,1.524,0,0,0-2.523.521,3.254,3.254,0,0,0,1.692,3.9c1.945.541,2.366-.782,2.366-.782l-.036,6.417c.545,1.628,3.561,3.208,5.992,2.9s1.656-1.785.67-2.779l.124-2.23a9.457,9.457,0,0,0,2.591-.1c1.007-.193,1.837-1.139,2.254-2.675a23.322,23.322,0,0,0,.293-8.92,5.03,5.03,0,0,0-1.9-3.293c0,.4-.3,1.344-2.262,1.6A8.488,8.488,0,0,1,90.18,108.858Z" transform="translate(-59.786 -104.123)" fill="#ffc4c3"/>
          <path id="패스_7212" data-name="패스 7212" d="M100.874,124.33a.224.224,0,0,1,0-.048.046.046,0,0,0,.04-.036c.012-.036.108-.028.144-.032h.116a1.487,1.487,0,0,1,.233,0,2.763,2.763,0,0,1,.441.084c.068,0,.044.172-.024.156a1.689,1.689,0,0,0-.469-.056h-.349c-.04,0-.092.028-.124,0A.084.084,0,0,1,100.874,124.33Z" transform="translate(-70.372 -113.711)" fill="#ffa8a7"/>
          <path id="패스_7213" data-name="패스 7213" d="M101.944,125.6a.618.618,0,0,1,.193,0h.064a.4.4,0,0,1,.084.06c.028.024.024.1,0,.116a.848.848,0,0,1-.172.04l-.148.032h-.04l-.08.036-.056.028a.148.148,0,0,1-.108,0,.088.088,0,0,1-.056-.08C101.583,125.7,101.816,125.623,101.944,125.6Z" transform="translate(-70.82 -114.539)" fill="#ffa8a7"/>
          <path id="패스_7214" data-name="패스 7214" d="M102.286,127.087a.923.923,0,0,1,.425-.265.048.048,0,0,1,.044,0,.1.1,0,0,1,0,.048.1.1,0,0,1-.048.1l-.1.044-.052.024h-.02a.735.735,0,0,0-.088.068l-.088.072a.052.052,0,0,1-.084,0A.124.124,0,0,1,102.286,127.087Z" transform="translate(-71.21 -115.273)" fill="#ffa8a7"/>
          <path id="패스_7215" data-name="패스 7215" d="M122.1,123.437a.368.368,0,0,1,.052-.032l.06-.032.124-.06a.742.742,0,0,1,.209-.064.072.072,0,0,1,.084.08.148.148,0,0,1-.08.136.922.922,0,0,1-.233.072h-.209c-.024,0-.036-.032-.036-.052a.06.06,0,0,1,.028-.048Z" transform="translate(-83.069 -113.135)" fill="#ffa8a7"/>
          <path id="패스_7216" data-name="패스 7216" d="M122.252,124.924a.076.076,0,0,0,0,.048s.028.028.044.024h.056l.044.02h.048a.112.112,0,0,0,.136-.048.184.184,0,0,0,.032-.076.088.088,0,0,0,0-.076.132.132,0,0,0-.076-.064.293.293,0,0,0-.245.036.1.1,0,0,0-.044.048.1.1,0,0,0,0,.088Z" transform="translate(-83.171 -114.029)" fill="#ffa8a7"/>
          <path id="패스_7217" data-name="패스 7217" d="M106,133.817a.533.533,0,0,1,.1-.18.474.474,0,0,1,.12-.116.253.253,0,0,1,.156-.06h.076a.257.257,0,0,1,.072.024.068.068,0,0,1,.024.076c0,.024,0,.048-.048.04h-.1a.076.076,0,0,0-.04,0l-.064.028h0l-.028.02h0l-.024.028a.072.072,0,0,0,0,.028h0a.694.694,0,0,1-.088.124c0,.024-.052.044-.08.024A.092.092,0,0,1,106,133.817Z" transform="translate(-73.444 -119.252)" fill="#ffa8a7"/>
          <path id="패스_7218" data-name="패스 7218" d="M101.885,141.114a11.751,11.751,0,0,1-4.259-.942,4.9,4.9,0,0,1-1.576-2.041,4.149,4.149,0,0,0,1.047,2.587c1.408,1.311,4.736,1.311,4.736,1.311Z" transform="translate(-67.484 -122.049)" fill="#ffa8a7"/>
          <path id="패스_7219" data-name="패스 7219" d="M106.36,124.16a.649.649,0,1,1-1.3.04.65.65,0,1,1,1.3-.04Z" transform="translate(-72.882 -113.276)" fill="#263238"/>
          <path id="패스_7220" data-name="패스 7220" d="M105.227,119.051l-1.568.654a.89.89,0,0,1,.473-1.139.826.826,0,0,1,1.095.485Z" transform="translate(-72.005 -110.293)" fill="#455a64"/>
          <path id="패스_7221" data-name="패스 7221" d="M107.7,134.86l1.36.557a.718.718,0,0,1-.946.425A.766.766,0,0,1,107.7,134.86Z" transform="translate(-74.432 -120.09)" fill="#ffa8a7"/>
          <path id="패스_7222" data-name="패스 7222" d="M120.046,119.721l-1.556-.6a.8.8,0,0,1,1.059-.469A.85.85,0,0,1,120.046,119.721Z" transform="translate(-80.925 -110.346)" fill="#455a64"/>
          <path id="패스_7223" data-name="패스 7223" d="M119.426,123.848a.653.653,0,1,1-.678-.658.666.666,0,0,1,.678.658Z" transform="translate(-80.701 -113.101)" fill="#263238"/>
          <path id="패스_7224" data-name="패스 7224" d="M112.75,126.021l2.4-.457-2.262-3.834Z" transform="translate(-77.487 -112.226)" fill="#ffa8a7"/>
        </g>
      </g>
    </g>
    <g id="freepik--characters-2--inject-882" transform="translate(65.128 47.966)">
      <g id="freepik--Characters--inject-882">
        <path id="freepik--arm--inject-882-3" data-name="freepik--arm--inject-882" d="M206.383,140.661c1.055.317,3.5.942,3.5.942s-1.255-1.781-.69-2.134.9.842,2.442,1.568,2.118,1.58,3.084,1.64l12.008.8s7.953-9.148,9.224-10.323a6.713,6.713,0,0,1,5.214-1.5l-2.543,9.349s-5.382,5.495-7.071,7.01-2.531,2.118-4.668,1.68c-2.406-.493-8.563-1.905-12.092-2.667-2.33-.313-3.12-.257-4.749-.618-1.741-.4-3.61-.485-4.712-2.775C204.029,140.966,204.851,140.208,206.383,140.661Z" transform="translate(-180.586 -98.083)" fill="#ffa8a7"/>
        <g id="freepik--character--inject-882-3" data-name="freepik--character--inject-882">
          <g id="freepik--bottom--inject-882-3" data-name="freepik--bottom--inject-882" transform="translate(13.332 57.606)">
            <path id="패스_7225" data-name="패스 7225" d="M178.685,341a4.191,4.191,0,0,0-.361,2.178,10.093,10.093,0,0,1,.361,2.964c-.124,1.484-.441,1.953-.557,3a4.3,4.3,0,0,0,.638,3.024c.642.971,2.086,1.737,4.736,1.544,2.142-.156,3.048-1.36,3.048-2.627Z" transform="translate(-177.98 -281.082)" fill="#37474f"/>
            <path id="패스_7226" data-name="패스 7226" d="M181.669,319.378a5.954,5.954,0,0,0,5.214.144l1.729-10.207-7.251-.686Z" transform="translate(-179.948 -261.694)" fill="#b16668"/>
            <path id="패스_7227" data-name="패스 7227" d="M179.685,327.66l-.164.072a.481.481,0,0,0-.325.453,3.276,3.276,0,0,0,0,.525c0,.176.024.357.032.533a9.994,9.994,0,0,1-.072,1.508c-.06.5-.188.983-.289,1.472-.028.132-.052.261-.076.4a15.761,15.761,0,0,0,.1,3.008,17.077,17.077,0,0,1-.489,3.533c-.4,2.1-.4,3.417,1.48,4.793a5,5,0,0,0,3.233.8,4.3,4.3,0,0,0,2.663-.75,2.236,2.236,0,0,0,.734-1.275c0-2.218-.906-4.765-1.151-6.97a22.9,22.9,0,0,1,.064-3.958c.044-.983.128-1.6.217-2.322s.112-1,.032-1.151a.329.329,0,0,0-.209-.18l-.088.537a4.184,4.184,0,0,1-2.09.361,6.245,6.245,0,0,1-2.053-.317c-.209-.068-.457-.14-.626,0a.634.634,0,0,0-.164.441c-.04.449-.084.9-.128,1.352a.2.2,0,0,1-.1.2.144.144,0,0,1-.164-.068.441.441,0,0,1-.052-.188c-.028-.313-.056-.626-.072-.943a2.966,2.966,0,0,0-.028-.461c-.02-.1-.188-.566-.2-.674Z" transform="translate(-178.048 -273.092)" fill="#4a95df"/>
            <path id="패스_7229" data-name="패스 7229" d="M186.739,360.207a2.723,2.723,0,0,0-.357-1.344c-1.087-1.949-6.549-1.813-8.182.241a2.989,2.989,0,0,0,1.376,2.783,6.234,6.234,0,0,0,3.662.782,4.7,4.7,0,0,0,2.675-.826A1.808,1.808,0,0,0,186.739,360.207Z" transform="translate(-178.056 -290.952)" fill="#fff"/>
            <path id="패스_7230" data-name="패스 7230" d="M216.11,316.347c1.143,2.466,2.932,1.472,5.254-.1l1.131-14.763-7.155,1.929Z" transform="translate(-200.3 -257.412)" fill="#b16668"/>
            <path id="패스_7231" data-name="패스 7231" d="M230.013,348.326a1.644,1.644,0,0,1-.068,1.2c-.168.357-2.029,1.4-4.54,1.235a10.427,10.427,0,0,1-5.19-1.813,6.043,6.043,0,0,0-3.208-.826c-1.251-.072-2.591-.489-2.864-1.071a2.76,2.76,0,0,1,.04-1.584Z" transform="translate(-199.517 -283.759)" fill="#37474f"/>
            <path id="패스_7232" data-name="패스 7232" d="M221.661,328.775a4.007,4.007,0,0,0,.128.4,5.946,5.946,0,0,0,.754,1.291A8.138,8.138,0,0,0,225.531,333c.606.3,1.247.4,1.865.65a10.582,10.582,0,0,1,2.005.975,1.818,1.818,0,0,1,0,2.992,8.759,8.759,0,0,1-6.188.425c-1.456-.4-3.068-1.965-4.981-2.118-1.2-.092-3.229-.237-4.011-1.159a5.446,5.446,0,0,1,.132-3.024,14.388,14.388,0,0,0,.3-4.412c0-.473-.076-.9.437-1.027l.04.7a9.261,9.261,0,0,1,.967.4,1.287,1.287,0,0,1,.521.726,6.992,6.992,0,0,0,.3.858c.06.116.148.237.277.241s.253-.148.3-.285a4.3,4.3,0,0,1,.421-1.275c.4-.493.991-.433,1.544-.525a6.874,6.874,0,0,0,1.8-.561.261.261,0,0,1,.168-.044c.237.048.076.878.08,1.071a5.213,5.213,0,0,0,.152,1.167Z" transform="translate(-199.538 -272.277)" fill="#4a95df"/>
            <path id="패스_7234" data-name="패스 7234" d="M180.628,193.649c-.313,9.557-.457,11.366-.421,28.956a30.408,30.408,0,0,0-1.291,8.314c-.12,4.412-.726,19-.726,19s5.077,1.576,8.162-.217c0,0,2.118-18.2,3.068-24.344.834-5.394,1.688-13.287,1.688-13.287l1.2,11.23a44.866,44.866,0,0,0-.2,8.518c.2,2.888.866,17.594.866,17.594s4.556,1.664,8.021-.188c0,0,.726-24.132.774-26.747.056-2.98-.469-30.881-.469-30.881Z" transform="translate(-178.05 -191.6)" fill="#37474f"/>
            <path id="패스_7235" data-name="패스 7235" d="M210.4,226.544l1.8-8.25s3.926-.345,6.1-2.535c0,0-.4,2.15-5.322,3.437l-1.8,8.342.4,10.219Z" transform="translate(-197.342 -206.07)" fill="#263238"/>
            <path id="패스_7236" data-name="패스 7236" d="M214.24,331.9c1.825,1.095,6.016,1.095,8.619-.1l-.132,1.684s-.281.955-3.966,1.111-4.52-1.059-4.52-1.059Z" transform="translate(-199.641 -275.572)" fill="#455a64"/>
            <path id="패스_7237" data-name="패스 7237" d="M177.84,334.024c1.821,1.095,6.016,1.095,8.615-.1l-.128,1.692s-.285.954-3.966,1.111-4.52-1.059-4.52-1.059Z" transform="translate(-177.84 -276.841)" fill="#455a64"/>
            <path id="패스_7238" data-name="패스 7238" d="M243.775,345.694A9.339,9.339,0,0,0,242,344.92a4.288,4.288,0,0,0-3.966,4.412,8.22,8.22,0,0,0,5.707-.485A1.968,1.968,0,0,0,243.775,345.694Z" transform="translate(-213.884 -283.43)" fill="#fff"/>
          </g>
          <g id="freepik--top--inject-882-3" data-name="freepik--top--inject-882">
            <path id="패스_7239" data-name="패스 7239" d="M247.1,152.029c-4.011.265-8.39.7-10.989.634a2.507,2.507,0,0,1-2.138-.955c-.4-.4-7.018-9.73-7.018-9.73L224.27,131.15c4.576.213,5.462,1.793,6.666,3.914,1.516,2.679,6.818,11.23,6.818,11.23s2.924.273,9.224.481a6.789,6.789,0,0,0,3.722-.69c1.227-.505,2.916-1.913,3.425-1.336s-1.352,2.274-1.352,2.274a13.427,13.427,0,0,0,3.95-.654c1.7-.646,2.487-1.7,2.382,1.131s-1.8,3.778-4.271,4.1S251.117,151.768,247.1,152.029Z" transform="translate(-192.317 -97.788)" fill="#b16668"/>
            <path id="패스_7240" data-name="패스 7240" d="M220.29,130.43c3.18,0,5.049.237,6.734,1.6,1.291,1.043,7.8,12.762,7.8,12.762a6.958,6.958,0,0,1-5.5,4.011l-5.262-7.147Z" transform="translate(-189.933 -97.357)" fill="#fea42e"/>
            <path id="패스_7242" data-name="패스 7242" d="M201.925,138.164c-.425-3.068-.946-7.664-4.945-7.817s-7.508.06-7.508.06c-3.277.4-9.962,1.813-9.962,1.813l1.628,18.85s.193,4.191,0,10.9c4.412,2.807,16.556,1.793,21.2-1C202.334,155.041,202.342,141.2,201.925,138.164Z" transform="translate(-165.508 -97.275)" fill="#f0f0f0"/>
            <path id="패스_7251" data-name="패스 7251" d="M146.746,59.1c0-.778.176-1.243-.172-1.8a6.625,6.625,0,0,1-.842-2.142c-.269-1.115-.449-2.037-.449-2.037s-.193-1.043.213-1.476a.694.694,0,0,1,.926-.16.934.934,0,0,1,.225-1.139.922.922,0,0,1,1.163.084s-.373-.946.4-1.356a.866.866,0,0,1,1.2.253,1.047,1.047,0,0,1,.682-1.3c.517-.217,1.115,0,1.8,1.672a2.31,2.31,0,0,1,1.2.646,15.574,15.574,0,0,1,.951,3.208A3.493,3.493,0,0,1,153.054,56a5.438,5.438,0,0,0-1.2,3.577Z" transform="translate(-144.98 -47.966)" fill="#b16668"/>
            <path id="패스_7252" data-name="패스 7252" d="M153.192,53.735a5.948,5.948,0,0,1-1.356.341.706.706,0,0,1-.75-.453c-.08-.2,1.352-1.632,1.352-1.632l1.327.068a8.851,8.851,0,0,0-1.3-.168c-.237,0-1.231,1.155-1.516,1.408s.092,1.151,1.019.971h.092V54.3a1.965,1.965,0,0,1-.092,1.043c-.076.2-.168.441-.429.4a.622.622,0,0,1-.313-.152,1.087,1.087,0,0,1-.188-.2.618.618,0,0,0-.168-.184h0s-.024.024-.024.04c0,.128.028.257.036.4.036.4-.044.991-.529,1.023a.71.71,0,0,1-.618-.253,4.106,4.106,0,0,0-.333-.4c-.02,0-.06-.04-.076,0a.04.04,0,0,0,0,.036,2.735,2.735,0,0,1,.064.882.646.646,0,0,1-.289.469.8.8,0,0,1-.694-.193l-.08-.068h0a.076.076,0,0,0,0,.032,1.6,1.6,0,0,0,.108.176.694.694,0,0,0,.894.136.742.742,0,0,0,.369-.742.858.858,0,0,0,.8.321c.678-.048.738-.561.706-1.1a.762.762,0,0,0,.4.124,5.073,5.073,0,0,0-1.079,2.406,8.266,8.266,0,0,1,1.66-2.495,7.46,7.46,0,0,1,1.929-1.36S153.248,54.1,153.192,53.735Zm-.537,1.2a.281.281,0,0,1-.064-.04.738.738,0,0,1-.152-.229,4.632,4.632,0,0,0-.209-.453c.714-.14.926-.209.926-.209a.77.77,0,0,0,.341.313,7.078,7.078,0,0,0-.842.618Z" transform="translate(-146.831 -50.316)" fill="#9a4a4d"/>
            <path id="패스_7253" data-name="패스 7253" d="M162.518,97.768a40.058,40.058,0,0,1-3.77-2.238c-3.16-2.655-7.351-6.642-7.351-6.642s.1-5.563.088-8.531c0-3.778.144-6.678.144-6.678l-5.214.032s-1.344,10.211-1.68,14.31c-.225,2.747-.377,3.325,1.255,5.322s13.1,14.121,13.1,14.121S164.984,106.723,162.518,97.768Z" transform="translate(-144.598 -63.367)" fill="#b16668"/>
            <path id="패스_7254" data-name="패스 7254" d="M167.7,122.028c-1.055-.59-2.7-1.336-3.858-2.005s-6.389-5.4-6.389-5.4.461,3.61-4.869,6.016c0,0,6.2,6.766,8.45,9.136s2.932,3.585,3.4,4.011,3.473-1.175,4.055-4.3C169.541,123.748,167.7,122.028,167.7,122.028Z" transform="translate(-149.379 -87.888)" fill="#fea42e"/>
            <path id="패스_7256" data-name="패스 7256" d="M208.222,80.741a.214.214,0,0,1,0-.052,1.36,1.36,0,0,0-.469-1.243,1.684,1.684,0,0,0-1.52.1,2,2,0,0,0-.2-1.945,1.688,1.688,0,0,0-1.777-.357,5.053,5.053,0,0,0-1.6,1.035,3.538,3.538,0,0,0-.14-1.143,1.2,1.2,0,0,0-.774-.8,1.817,1.817,0,0,0-1.251.281,14.775,14.775,0,0,1-3.4,1.568,10.572,10.572,0,0,0-3.4,1.311,2.523,2.523,0,0,0-.766.674,2.17,2.17,0,0,0-.329,1.368,3.014,3.014,0,0,0,.076.469,1.131,1.131,0,0,0-.329-.249,1.163,1.163,0,0,0-1.58.578l1.468.73a2.086,2.086,0,0,0-1.087.63c-.734.8-.233,3.208.8,5.571,0,0,1.524,3.638,1.889,4.355.425.83.734,1.528.734,1.528l-.14-2.631,2.5-.221a9.316,9.316,0,0,1,2.182-.116,2.924,2.924,0,0,0,1.913-.606,30.59,30.59,0,0,0,3.377-2.5,9.73,9.73,0,0,0,1.829-1.937,4.055,4.055,0,0,0,.73-2.527,3.008,3.008,0,0,1,0-1.151,2.872,2.872,0,0,1,.566-.846,3.521,3.521,0,0,0,.7-1.873Z" transform="translate(-172.246 -64.946)" fill="#263238"/>
            <path id="패스_7257" data-name="패스 7257" d="M198.648,93.265a13.837,13.837,0,0,1-1.688-.341l-.152-.04A3.786,3.786,0,0,1,194,95.4a9.369,9.369,0,0,1,.076,3.208,1.709,1.709,0,0,1-.241.638.774.774,0,0,1-.561.353c-.3.024-.433-.164-.525-.4a8.277,8.277,0,0,0-.469-.894,1.949,1.949,0,0,0-.273-.345,1.507,1.507,0,0,0-2.495.513,3.226,3.226,0,0,0,1.676,3.862c1.921.533,2.338-.774,2.338-.774l.369,6.862c1.6,2.98,7.484,3.782,6.188-.381l-.072-2.09a12.084,12.084,0,0,0,2.571.048c1.4-.265,2.086-1.448,2.458-2.976a35.033,35.033,0,0,0,.337-8.988,14.84,14.84,0,0,0-.285-1.969c.06.188-1.319.738-1.472.8a9,9,0,0,1-1.921.4,18,18,0,0,1-2.278.08A7.326,7.326,0,0,1,198.648,93.265Z" transform="translate(-171.391 -74.382)" fill="#b16668"/>
            <path id="패스_7258" data-name="패스 7258" d="M207.315,122.863a24.093,24.093,0,0,1-4.259-1.075,3.577,3.577,0,0,1-1.556-1.448,4.889,4.889,0,0,0,.914,1.737c.83.995,4.929,1.6,4.929,1.6Z" transform="translate(-178.679 -91.314)" fill="#9a4a4d"/>
            <path id="패스_7259" data-name="패스 7259" d="M212.327,105.8a.59.59,0,0,1-.561.622.606.606,0,0,1-.04-1.2A.594.594,0,0,1,212.327,105.8Z" transform="translate(-184.492 -82.258)" fill="#263238"/>
            <path id="패스_7260" data-name="패스 7260" d="M210.318,98.586l-1.464.449a.8.8,0,0,1,.525-.983.746.746,0,0,1,.938.533Z" transform="translate(-183.065 -77.946)" fill="#263238"/>
            <path id="패스_7261" data-name="패스 7261" d="M214.083,117.61l1.488.213a.734.734,0,0,1-.83.662A.8.8,0,0,1,214.083,117.61Z" transform="translate(-186.213 -89.679)" fill="#9a4a4d"/>
            <path id="패스_7262" data-name="패스 7262" d="M226.028,98.816l-1.488-.193a.73.73,0,0,1,.826-.634.766.766,0,0,1,.662.826Z" transform="translate(-192.478 -77.923)" fill="#263238"/>
            <path id="패스_7263" data-name="패스 7263" d="M198.073,101.36l-4.913,1.684a1.8,1.8,0,0,1,1.416.718l3.481-1.319Z" transform="translate(-173.684 -79.946)" fill="#37474f"/>
            <path id="패스_7264" data-name="패스 7264" d="M225.66,105.179a.6.6,0,0,1-.566.63.606.606,0,0,1-.61-.594.59.59,0,1,1,1.175-.036Z" transform="translate(-192.443 -81.864)" fill="#263238"/>
            <path id="패스_7265" data-name="패스 7265" d="M216.081,100.631l-.321-.032a9.441,9.441,0,0,0-3.208.164c-1.031.337-1.4.7-1.969.714s-.983-.341-2.069-.638a10.576,10.576,0,0,0-3.429-.044l-.345.048a.578.578,0,0,0-.4.586,1.263,1.263,0,0,0,.317.67.878.878,0,0,1,.108.269,11.514,11.514,0,0,0,.4,1.857,2.254,2.254,0,0,0,.425.662,2.052,2.052,0,0,0,.221.193l.128.084a1.676,1.676,0,0,0,.381.18h.064l.1.028.1.028c.1,0,.221.036.341.048h.329a2.406,2.406,0,0,0,2.37-1.424c.365-.714.293-1.709.942-1.721h.1c.477.1.4,1.023.69,1.676a2.615,2.615,0,0,0,.453.75c.036.036.068.072.108.108l.056.052.06.048.056.044.06.04.048.028.032.024a2.005,2.005,0,0,0,.557.217h.052a2.807,2.807,0,0,0,.686.056,2.065,2.065,0,0,0,2.005-1.328,12.46,12.46,0,0,0,.437-1.873.562.562,0,0,1,.124-.245,1.331,1.331,0,0,0,.309-.694A.549.549,0,0,0,216.081,100.631Zm-6.818,2.763a2.194,2.194,0,0,1-.505.991h0a2.005,2.005,0,0,1-1.548.59,1.644,1.644,0,0,1-1.464-.69l-.044-.068-.044-.072a.321.321,0,0,1-.032-.064l-.032-.06q0-.022,0-.044l-.02-.044a.077.077,0,0,0-.028-.068h0c-.028-.072-.048-.14-.068-.209h0a.59.59,0,0,0-.032-.12c-.008-.036-.032-.14-.044-.2a.115.115,0,0,1,0-.036v-.036c-.1-.493-.213-1.46.036-1.684a2.732,2.732,0,0,1,1.937-.377h.112a4.72,4.72,0,0,1,.477.072l.184.044a3.719,3.719,0,0,1,.465.148l.14.056.152.072h.032l.056.032a.9.9,0,0,1,.309.253,2.488,2.488,0,0,1-.036,1.516Zm6.124-.325a2.247,2.247,0,0,1-1.019,1.6,1.857,1.857,0,0,1-.8.188,1.648,1.648,0,0,1-1.556-.71h0l-.028-.044-.032-.052a.1.1,0,0,0,0-.028l-.036-.076a.921.921,0,0,1-.04-.092.216.216,0,0,1,0-.044v-.024a.144.144,0,0,1,0-.036.056.056,0,0,0,0-.028,2.984,2.984,0,0,1-.1-.369,2.444,2.444,0,0,1,.06-1.492,3.092,3.092,0,0,1,1.733-.758,4.435,4.435,0,0,1,.481-.048h.557l.241.04h.221l.112.044h0a.834.834,0,0,1,.257.16,3.328,3.328,0,0,1-.048,1.765Z" transform="translate(-180.378 -79.45)" fill="#37474f"/>
            <path id="패스_7266" data-name="패스 7266" d="M219.41,105.053l.112,4.083,2.278-.658-2.126-3.461A.634.634,0,0,0,219.41,105.053Z" transform="translate(-189.406 -82.135)" fill="#9a4a4d"/>
          </g>
        </g>
        <g id="freepik--character--inject-882-4" data-name="freepik--character--inject-882" transform="translate(46.198 4.152)">
          <g id="freepik--bottom--inject-882-4" data-name="freepik--bottom--inject-882" transform="translate(0 49.062)">
            <path id="패스_7267" data-name="패스 7267" d="M274.419,303.821c-.1-1.472-.959-16.331-.959-16.331l7.1,5.35c-1.139,8.5-1.5,10.829-1.544,12.256h0a2.427,2.427,0,0,0-.052.3c-.024,1.684-1.933,2.571-3.425,3.678a27.618,27.618,0,0,1-4.039,2.571c-1.083.533-3.269.557-3.533-.14a40.2,40.2,0,0,0,5.374-4.412A3.745,3.745,0,0,0,274.419,303.821Z" transform="translate(-264.689 -244.641)" fill="#ffa8a7"/>
            <path id="패스_7268" data-name="패스 7268" d="M260.118,346.324a1.444,1.444,0,0,0,.253,1.456,6.208,6.208,0,0,0,4.52,1.079,7.857,7.857,0,0,0,4.384-1.692,9.392,9.392,0,0,1,3.208-2.005,6.237,6.237,0,0,0,2.286-.906c.3-.289.277-1.6.277-1.6Z" transform="translate(-259.929 -277.679)" fill="#263238"/>
            <path id="패스_7269" data-name="패스 7269" d="M274.29,330.25s.2,0,.253.289.128,1.4.269,2.005A10.381,10.381,0,0,1,275,335.7c-.132.662-1.676,1.107-2.663,1.472a12.581,12.581,0,0,0-3.208,1.981,9.308,9.308,0,0,1-4.765,1.717c-2.238,0-3.682-.614-4.119-1.424-.541-1-.1-1.572,2.483-2.735.489-.221,2.21-1.2,2.807-1.576a9.415,9.415,0,0,0,3.906-4.087.982.982,0,0,1,.377-.533.8.8,0,0,1,.5-.04,4.311,4.311,0,0,1,1.231.4c.345.168.83.365.8.8a1.432,1.432,0,0,1-.1.449c-.032.092-.056.209.02.265s.176,0,.245-.064a7.339,7.339,0,0,0,.7-.826,2.464,2.464,0,0,1,.4-.4,4.929,4.929,0,0,0,.445-.281A.758.758,0,0,0,274.29,330.25Z" transform="translate(-259.939 -270.252)" fill="#37474f"/>
            <path id="패스_7270" data-name="패스 7270" d="M262.156,346.8c3.237.261,4.235,2.27,4.359,3.509a7.677,7.677,0,0,1-2.306.461c-2.238,0-3.774-.614-4.211-1.424C259.473,348.4,259.85,347.65,262.156,346.8Z" transform="translate(-259.789 -280.164)" fill="#fafafa"/>
            <path id="패스_7271" data-name="패스 7271" d="M273.418,344.816a.172.172,0,0,0,.1-.036.156.156,0,0,0,.024-.221,3.81,3.81,0,0,0-2.916-1.2.157.157,0,1,0,.028.313,3.537,3.537,0,0,1,2.639,1.071A.157.157,0,0,0,273.418,344.816Z" transform="translate(-266.194 -278.1)" fill="#f0f0f0"/>
            <path id="패스_7272" data-name="패스 7272" d="M276.914,342.816a.172.172,0,0,0,.1-.036.156.156,0,0,0,.024-.221,3.794,3.794,0,0,0-2.916-1.2.157.157,0,1,0,.028.313,3.537,3.537,0,0,1,2.639,1.071A.157.157,0,0,0,276.914,342.816Z" transform="translate(-268.287 -276.902)" fill="#f0f0f0"/>
            <path id="패스_7273" data-name="패스 7273" d="M280.16,340.566a.153.153,0,0,0,.1-.036.16.16,0,0,0,.028-.221,3.818,3.818,0,0,0-2.92-1.2.156.156,0,0,0-.14.172.152.152,0,0,0,.172.14,3.538,3.538,0,0,1,2.639,1.071.168.168,0,0,0,.12.076Z" transform="translate(-270.234 -275.555)" fill="#f0f0f0"/>
            <path id="패스_7274" data-name="패스 7274" d="M282.944,338.266a.152.152,0,0,0,.1-.036.156.156,0,0,0,.028-.221,3.835,3.835,0,0,0-3.184-1.2.165.165,0,0,0-.144.176.16.16,0,0,0,.172.14,3.662,3.662,0,0,1,2.908,1.083.172.172,0,0,0,.124.06Z" transform="translate(-271.738 -274.168)" fill="#f0f0f0"/>
            <path id="패스_7275" data-name="패스 7275" d="M319.41,299.3l7.091-.842c.373,4.753.148,10.091.473,14.55.06.842.674,6.509.529,8.262-.213,2.639-3.321,2.6-3.638,1.063s-1.095-8.226-1.171-8.907c-.261-2.856-1.6-7.5-2.831-12.553C319.8,300.626,319.466,299.543,319.41,299.3Z" transform="translate(-295.499 -251.211)" fill="#ffa8a7"/>
            <path id="패스_7276" data-name="패스 7276" d="M327.9,358.658a7.081,7.081,0,0,0,.866,3.437,2.253,2.253,0,0,0,2.6.914,3.433,3.433,0,0,0,2.659-2.282,8.365,8.365,0,0,0,0-3.638Z" transform="translate(-300.584 -286.327)" fill="#263238"/>
            <path id="패스_7277" data-name="패스 7277" d="M331.474,333.38c.429.036.553,2.086.8,4.139.261,2.2.918,3.116,1.155,4.921.269,2.061.16,2.984-.561,4.231s-3.281,2.471-4.54.682c-1.031-1.456-1.071-3.068-.979-5.13a46.642,46.642,0,0,0-.136-5.214c-.084-1.544-.425-3.1-.056-3.273.028.225.056.513.088.734s.064,1.011.3,1.019a3.566,3.566,0,0,0,0-.586.694.694,0,0,1,.116-.5.83.83,0,0,1,.473-.213c.421-.08,1.311-.12,1.737-.156.213-.02.429-.028.642-.028a1.769,1.769,0,0,1,.541.076.4.4,0,0,1,.229.213.651.651,0,0,1,.024.233,1.693,1.693,0,0,0,.052.425c0,.06.056.136.12.12s.068-.072.068-.124c0-.249-.028-.429-.04-.722,0-.132-.028-.313-.032-.449S331.486,333.512,331.474,333.38Z" transform="translate(-300.039 -272.126)" fill="#37474f"/>
            <path id="패스_7278" data-name="패스 7278" d="M334.1,358.043a5.072,5.072,0,0,1-.566,3.132c-.722,1.247-3.489,2.475-4.749.69a5.789,5.789,0,0,1-.882-3.012C328.654,357.458,332.9,356.84,334.1,358.043Z" transform="translate(-300.584 -286.515)" fill="#fafafa"/>
            <path id="패스_7279" data-name="패스 7279" d="M330.368,354.147h.052a6.228,6.228,0,0,1,3.682-.381.156.156,0,0,0,.188-.116.16.16,0,0,0-.116-.192,6.449,6.449,0,0,0-3.89.4.16.16,0,0,0-.076.213.168.168,0,0,0,.16.076Z" transform="translate(-301.957 -284.071)" fill="#f0f0f0"/>
            <path id="패스_7280" data-name="패스 7280" d="M333.806,349.769a.16.16,0,0,0,.136-.1.168.168,0,0,0-.1-.2,5.433,5.433,0,0,0-3.886.369.156.156,0,0,0-.064.213.164.164,0,0,0,.213.068,5.25,5.25,0,0,1,3.634-.349A.14.14,0,0,0,333.806,349.769Z" transform="translate(-301.765 -281.625)" fill="#f0f0f0"/>
            <path id="패스_7281" data-name="패스 7281" d="M333.435,346.147a.169.169,0,0,0,.132-.1.16.16,0,0,0-.1-.2,4.893,4.893,0,0,0-3.962.357.16.16,0,0,0-.052.217.152.152,0,0,0,.217.052,4.68,4.68,0,0,1,3.69-.325A.221.221,0,0,0,333.435,346.147Z" transform="translate(-301.503 -279.431)" fill="#f0f0f0"/>
            <path id="패스_7282" data-name="패스 7282" d="M333.065,342.047a.16.16,0,0,0,.04-.309,5.127,5.127,0,0,0-3.991.4.16.16,0,0,0-.056.217.156.156,0,0,0,.217.056,4.946,4.946,0,0,1,3.722-.377Z" transform="translate(-301.265 -276.98)" fill="#ebebeb"/>
            <path id="패스_7283" data-name="패스 7283" d="M297.609,180.826c1.36,3.124,2.835,5.31,3.012,11.194.373,12.513.521,21.408.521,21.408a56.279,56.279,0,0,1,1.368,8.775c.353,5.005.229,11.859.229,11.859s-3.433,1.7-6.385.505c-1.175-4.067-3.024-14.723-4.307-20.169-1.163-4.941-2.314-12.184-2.314-12.184l-1.865,12.264s.353,4.9.189,7.8c-.193,3.365-1.761,12.8-1.761,12.8s-3.465,1.416-6.016-.465c0,0-1.36-16.844-1.388-20.9-.056-7.945-.176-25.347,1.632-33.055Z" transform="translate(-271.215 -180.65)" fill="#37474f"/>
            <path id="패스_7284" data-name="패스 7284" d="M328.348,310.87c-1.2.754-5.338,1.34-6.978.73l.465,1.925a8.471,8.471,0,0,0,3.321.3,4.761,4.761,0,0,0,3.132-1.063Z" transform="translate(-296.673 -258.644)" fill="#455a64"/>
            <path id="패스_7285" data-name="패스 7285" d="M288.409,311.725a10.629,10.629,0,0,1-6.589-.325l.209,1.969s.738.842,3,.882a4.884,4.884,0,0,0,3.08-.654Z" transform="translate(-272.984 -258.962)" fill="#455a64"/>
            <path id="패스_7286" data-name="패스 7286" d="M293.225,217.554l-1.364-8.823s-5.274-.626-7.191-2.471c0,0,2.406,3.413,6,3.97l1.5,7.323-.8,12.16Z" transform="translate(-274.691 -195.989)" fill="#263238"/>
          </g>
          <g id="freepik--top--inject-882-4" data-name="freepik--top--inject-882" transform="translate(6.754)">
            <path id="패스_7287" data-name="패스 7287" d="M287.25,84.053c-2.362-.068-4.179,1.857-3.425,4.215.453,1.424,1.179,4.769-.425,4.769,0,0,.521,1.011,2.2.441s10.829,5.559,10.829,5.559,1.777-2.691,2.835-4.239c1.239-1.817,2.94-5.31.377-7.123a5.647,5.647,0,0,0-2.29-4.732C294.87,81.273,289.316,80.592,287.25,84.053Z" transform="translate(-280.685 -72.245)" fill="#ffbda7"/>
            <path id="패스_7288" data-name="패스 7288" d="M289.4,94.6s-1.644,1.668-1.444,6.894c.164,4.339.947,5.358,2.138,5.859a7.376,7.376,0,0,0,3.208.124l.052,2.069s-3.838,3.325-.8,3.9a6.682,6.682,0,0,0,4.745-1.139,6.549,6.549,0,0,0,1.885-1.829v-5.835a1.99,1.99,0,0,0,2.442-.277c1.151-.882,1.6-2.467.822-3.381a1.961,1.961,0,0,0-3.124.4s-1.2.477-1.1-1.135c0,0,.493-4.2-1.468-5.4C295.134,93.886,291.644,97.812,289.4,94.6Z" transform="translate(-283.402 -80.049)" fill="#ffa8a7"/>
            <path id="패스_7289" data-name="패스 7289" d="M300.066,117.64l-1.4.4a.71.71,0,0,0,.882.525A.758.758,0,0,0,300.066,117.64Z" transform="translate(-289.83 -93.849)" fill="#f28f8f"/>
            <path id="패스_7290" data-name="패스 7290" d="M290.36,102.668l1.287-.4a.642.642,0,0,0-.8-.465A.7.7,0,0,0,290.36,102.668Z" transform="translate(-284.837 -84.348)" fill="#b16668"/>
            <path id="패스_7291" data-name="패스 7291" d="M304.27,102.753l1.2.561a.646.646,0,0,0-.3-.886.706.706,0,0,0-.9.325Z" transform="translate(-293.184 -84.705)" fill="#b16668"/>
            <path id="패스_7292" data-name="패스 7292" d="M295.015,106l-.044,3.67-2-.277Z" transform="translate(-286.416 -86.877)" fill="#f28f8f"/>
            <path id="패스_7293" data-name="패스 7293" d="M301.27,123.182c1.4-.1,4.476-1.255,4.993-2.362a2.92,2.92,0,0,1-1.167,1.845,15.413,15.413,0,0,1-3.806,1.364Z" transform="translate(-291.388 -95.754)" fill="#f28f8f"/>
            <path id="패스_7294" data-name="패스 7294" d="M291.931,106.528a.614.614,0,0,1-.541.666.582.582,0,0,1-.654-.517.614.614,0,0,1,.541-.666.574.574,0,0,1,.654.517Z" transform="translate(-285.077 -86.88)" fill="#263238"/>
            <path id="패스_7295" data-name="패스 7295" d="M303.132,106.64a.622.622,0,0,1-.541.67.582.582,0,0,1-.654-.521.618.618,0,0,1,.541-.666.581.581,0,0,1,.654.517Z" transform="translate(-291.785 -86.948)" fill="#263238"/>
            <path id="패스_7296" data-name="패스 7296" d="M286.564,131.738s-1.2,1.043.1,1.584,4.556-.168,5.759-1.332c0,0,2.956.4,3.842.65s1.5,3.389.971,6.617-1.488,10.006-1.488,10.006a27.982,27.982,0,0,1,3.413,9.8s-3.457,2.5-11.751,2.5c-6.786,0-9.413-1.985-9.413-1.985a69.53,69.53,0,0,1,1.155-10.175,13.44,13.44,0,0,1-.3-3.73,5.988,5.988,0,0,1-2.21-3.718c-.14-2.2.918-3.738,2.948-6.184a27.267,27.267,0,0,1,4.668-4.123Z" transform="translate(-276.629 -102.24)" fill="#4a95df"/>
            <path id="패스_7297" data-name="패스 7297" d="M302,163.529a4.64,4.64,0,0,1-4.468,2.326,4.9,4.9,0,0,1-4.087-2.715s.032,3.413,4.063,3.529S302,163.529,302,163.529Z" transform="translate(-286.704 -121.101)" opacity="0.2"/>
            <path id="패스_7298" data-name="패스 7298" d="M347.608,68.218c0-.694-.156-1.107.152-1.6a5.983,5.983,0,0,0,.75-1.905c.237-.987.4-1.809.4-1.809s.172-.926-.189-1.311a.618.618,0,0,0-.826-.14.826.826,0,0,0-.2-1.011.8.8,0,0,0-1.035.072s.333-.842-.365-1.2a.774.774,0,0,0-1.063.225.93.93,0,0,0-.6-1.151c-.465-.188-.995,0-1.6,1.488a2.057,2.057,0,0,0-1.051.574,13.523,13.523,0,0,0-.846,2.868,3.087,3.087,0,0,0,.882,2.166,4.884,4.884,0,0,1,1.083,3.18Z" transform="translate(-315.254 -58.319)" fill="#ffa8a7"/>
            <path id="패스_7299" data-name="패스 7299" d="M345.17,64.192a6.63,6.63,0,0,1,1.717,1.2,7.36,7.36,0,0,1,1.476,2.214,4.565,4.565,0,0,0-.963-2.15.621.621,0,0,0,.345-.108c-.024.477.028.934.63.975a.766.766,0,0,0,.718-.281.67.67,0,0,0,.329.658.614.614,0,0,0,.8-.124,1.209,1.209,0,0,0,.1-.152.1.1,0,0,0,0-.032h0l-.072.06a.7.7,0,0,1-.614.172.582.582,0,0,1-.257-.4,2.478,2.478,0,0,1,.056-.8.044.044,0,0,0,0-.032h-.072c-.112.108-.189.249-.293.365a.638.638,0,0,1-.549.225c-.429-.028-.505-.561-.473-.906,0-.116.028-.229.036-.341,0-.02,0-.04-.02-.04h0a.582.582,0,0,0-.148.164,1,1,0,0,1-.168.176.537.537,0,0,1-.281.132c-.229.024-.313-.188-.381-.369a1.777,1.777,0,0,1-.08-.926v-.028h.084c.822.156,1.155-.642.9-.866s-1.135-1.263-1.348-1.247a8.294,8.294,0,0,0-1.151.148l1.175-.06s1.271,1.275,1.2,1.452a.634.634,0,0,1-.67.4,5.158,5.158,0,0,1-1.2-.3C345.9,63.731,345.17,64.192,345.17,64.192Zm.525-.269a.658.658,0,0,0,.3-.277s.193.06.826.184a3.606,3.606,0,0,0-.184.4.662.662,0,0,1-.14.2.269.269,0,0,1-.056.036,6.1,6.1,0,0,0-.746-.549Z" transform="translate(-317.681 -60.362)" fill="#f28f8f"/>
            <path id="패스_7300" data-name="패스 7300" d="M321.393,102.215a24.618,24.618,0,0,0,2.735-1.6c2.807-2.354,6.525-5.9,6.525-5.9s-.072-4.953-.072-7.576c0-3.357-.128-5.936-.128-5.936l4.632.032s1.2,9.068,1.492,12.71c.2,2.438.333,2.952-1.115,4.728s-12.577,11.855-12.577,11.855S318.149,108.191,321.393,102.215Z" transform="translate(-302.76 -72.023)" fill="#ffa8a7"/>
          </g>
        </g>
      </g>
    </g>
  </g>
</svg>
