<svg xmlns="http://www.w3.org/2000/svg" width="190" height="188" viewBox="0 0 190 188">
  <g id="Product_hunt-amico" data-name="Product hunt-amico" transform="translate(-28 -51.99)">
    <g id="freepik--Floor--inject-1--inject-47" transform="translate(36.754 136.571)">
      <ellipse id="타원_55" data-name="타원 55" cx="89.423" cy="51.71" rx="89.423" ry="51.71" fill="#f5f5f5"/>
    </g>
    <g id="freepik--Shadow--inject-1--inject-47" transform="translate(76.383 167.911)">
      <path id="패스_7301" data-name="패스 7301" d="M239.042,383.878l22.272-12.861c2.692-1.552,2.692-4.076,0-5.628L223.79,343.725a10.776,10.776,0,0,0-9.757,0l-22.272,12.861c-2.7,1.557-2.7,4.076,0,5.632l37.518,21.664A10.8,10.8,0,0,0,239.042,383.878Z" transform="translate(-166.542 -330.602)" fill="#e0e0e0"/>
      <ellipse id="타원_56" data-name="타원 56" cx="23.203" cy="13.398" rx="23.203" ry="13.398" fill="#e0e0e0"/>
    </g>
    <g id="freepik--Shelves--inject-1--inject-47" transform="translate(28 51.99)">
      <g id="freepik--Bottles--inject-1--inject-47" transform="translate(140.88 1.517)">
        <path id="패스_7302" data-name="패스 7302" d="M346.31,94.99v-2h0a.7.7,0,0,1,.4-.532l12-6.927a2.049,2.049,0,0,1,1.845,0l34.485,19.912a.67.67,0,0,1,.395.532h0v2h0a.67.67,0,0,1-.395.532l-12,6.927a2.049,2.049,0,0,1-1.845,0L346.709,95.522A.687.687,0,0,1,346.31,94.99Z" transform="translate(-346.31 -72.053)" fill="#f0f0f0"/>
        <path id="패스_7303" data-name="패스 7303" d="M395.061,106.511l-12,6.923a2.022,2.022,0,0,1-1.845,0L346.735,93.526a.563.563,0,0,1,0-1.064l12-6.927a2.049,2.049,0,0,1,1.845,0l34.485,19.912a.563.563,0,0,1,0,1.064Z" transform="translate(-346.335 -72.053)" fill="#fafafa"/>
        <path id="패스_7304" data-name="패스 7304" d="M427.05,139.307v2a1.9,1.9,0,0,0,.922-.222l12-6.923a.683.683,0,0,0,.395-.537h0v-2h0a.443.443,0,0,0-.075-.226c.142.257.035.554-.319.758l-12,6.927A1.894,1.894,0,0,1,427.05,139.307Z" transform="translate(-391.243 -97.7)" fill="#e0e0e0"/>
        <path id="패스_7305" data-name="패스 7305" d="M371.478,100.441c1.832-1.047,1.832-2.745,0-3.792a7.4,7.4,0,0,0-6.652,0c-1.832,1.047-1.832,2.745,0,3.792A7.4,7.4,0,0,0,371.478,100.441Z" transform="translate(-355.85 -77.921)" opacity="0.03"/>
        <path id="패스_7306" data-name="패스 7306" d="M364.52,65.786a5.583,5.583,0,0,1,.612-.293,1.029,1.029,0,0,0,.661-.958V62.81h3.818v1.725a1.029,1.029,0,0,0,.661.958,5.583,5.583,0,0,1,.612.293,2.719,2.719,0,0,1,1.33,2.169V79.569a2.232,2.232,0,0,1-1.33,1.836,7.029,7.029,0,0,1-6.364,0,2.232,2.232,0,0,1-1.33-1.836V67.954A2.719,2.719,0,0,1,364.52,65.786Z" transform="translate(-355.704 -59.528)" fill="#f0f0f0"/>
        <path id="패스_7307" data-name="패스 7307" d="M364.52,77.5a7.065,7.065,0,0,0,6.355,0,2.209,2.209,0,0,0,1.33-1.814v8.235a2.187,2.187,0,0,1-1.33,1.814,7.065,7.065,0,0,1-6.355,0,2.209,2.209,0,0,1-1.33-1.814V75.69A2.255,2.255,0,0,0,364.52,77.5Z" transform="translate(-355.704 -66.696)" fill="#e0e0e0"/>
        <path id="패스_7308" data-name="패스 7308" d="M374.541,79.6V68.216a1.716,1.716,0,0,0-.781-1.636c-1.33-.67-1.486-1.206-1.486-1.885V62.81H373.4v1.725a1.029,1.029,0,0,0,.661.958,5.585,5.585,0,0,1,.612.293A2.718,2.718,0,0,1,376,67.954V79.569a2.232,2.232,0,0,1-1.33,1.836,7.06,7.06,0,0,1-4.674.612C373.654,82.27,374.541,80.718,374.541,79.6Z" transform="translate(-359.494 -59.528)" fill="#ebebeb" opacity="0.3"/>
        <path id="패스_7309" data-name="패스 7309" d="M368.8,60.167v.51a1.029,1.029,0,0,0,.6.847,3.242,3.242,0,0,0,2.914,0,1.5,1.5,0,0,0,.443-.395.789.789,0,0,0,.151-.443v-.519a.519.519,0,0,0,0-.142,1.087,1.087,0,0,0-.585-.7h-.031a3.233,3.233,0,0,0-2.883,0,1.1,1.1,0,0,0-.585.7A.542.542,0,0,0,368.8,60.167Z" transform="translate(-358.826 -57.4)" fill="#e6e6e6"/>
        <path id="패스_7310" data-name="패스 7310" d="M372.318,60.993a.888.888,0,0,0,0-1.681,3.215,3.215,0,0,0-2.914,0,.888.888,0,0,0,0,1.681,3.215,3.215,0,0,0,2.914,0Z" transform="translate(-358.828 -57.387)" fill="#e0e0e0"/>
        <path id="패스_7311" data-name="패스 7311" d="M368.794,56.6v1.286a.541.541,0,0,0,0,.142,1.1,1.1,0,0,0,.585.7,2.829,2.829,0,0,0,1.291.341,3.02,3.02,0,0,0,1.623-.341,1.384,1.384,0,0,0,.443-.395.776.776,0,0,0,.133-.306.486.486,0,0,0,0-.137V56.6a1.011,1.011,0,0,0-.6-.838l-.111-.058a3.233,3.233,0,0,0-2.8.058,1.02,1.02,0,0,0-.559.843Z" transform="translate(-358.82 -55.412)" fill="#e6e6e6"/>
        <path id="패스_7312" data-name="패스 7312" d="M368.8,56.594c0,.652.922,1.184,2.058,1.184s2.062-.532,2.062-1.184S372,55.41,370.858,55.41,368.8,55.942,368.8,56.594Z" transform="translate(-358.826 -55.41)" fill="#f5f5f5"/>
        <path id="패스_7313" data-name="패스 7313" d="M390.288,111.121c1.832-1.047,1.832-2.745,0-3.792a7.4,7.4,0,0,0-6.652,0c-1.832,1.047-1.832,2.745,0,3.792A7.4,7.4,0,0,0,390.288,111.121Z" transform="translate(-366.318 -83.865)" opacity="0.03"/>
        <path id="패스_7314" data-name="패스 7314" d="M383.353,76.47a5.143,5.143,0,0,1,.608-.3,1.029,1.029,0,0,0,.661-.953V73.49h3.818v1.73a1.029,1.029,0,0,0,.679.953,4.877,4.877,0,0,1,.612.3,2.705,2.705,0,0,1,1.33,2.164V90.249a2.232,2.232,0,0,1-1.33,1.836,7.016,7.016,0,0,1-6.359,0,2.232,2.232,0,0,1-1.33-1.836V78.634a2.7,2.7,0,0,1,1.313-2.164Z" transform="translate(-366.194 -65.472)" fill="#f0f0f0"/>
        <path id="패스_7315" data-name="패스 7315" d="M383.33,88.184a7.1,7.1,0,0,0,6.359,0,2.209,2.209,0,0,0,1.33-1.814v8.235a2.2,2.2,0,0,1-1.33,1.818,7.1,7.1,0,0,1-6.359-.018A2.221,2.221,0,0,1,382,94.588V86.37A2.209,2.209,0,0,0,383.33,88.184Z" transform="translate(-366.172 -72.64)" fill="#e0e0e0"/>
        <path id="패스_7316" data-name="패스 7316" d="M393.368,90.276V78.9a1.712,1.712,0,0,0-.776-1.636c-1.33-.665-1.49-1.206-1.49-1.885V73.49h1.126v1.73a1.029,1.029,0,0,0,.674.953,4.88,4.88,0,0,1,.612.3,2.705,2.705,0,0,1,1.33,2.164V90.249a2.232,2.232,0,0,1-1.33,1.836,7.034,7.034,0,0,1-4.674.612C392.485,92.95,393.368,91.4,393.368,90.276Z" transform="translate(-369.979 -65.472)" fill="#ebebeb" opacity="0.3"/>
        <path id="패스_7317" data-name="패스 7317" d="M387.61,70.851v.51a1.029,1.029,0,0,0,.608.843,3.233,3.233,0,0,0,2.909,0,1.437,1.437,0,0,0,.443-.395.754.754,0,0,0,.151-.443v-.519a.468.468,0,0,0,0-.137,1.086,1.086,0,0,0-.585-.705H391.1a3.22,3.22,0,0,0-2.878,0,1.1,1.1,0,0,0-.6.7A.551.551,0,0,0,387.61,70.851Z" transform="translate(-369.294 -63.343)" fill="#e6e6e6"/>
        <path id="패스_7318" data-name="패스 7318" d="M391.128,71.673a.888.888,0,0,0,0-1.681,3.215,3.215,0,0,0-2.914,0,.888.888,0,0,0,0,1.681,3.215,3.215,0,0,0,2.914,0Z" transform="translate(-369.296 -63.331)" fill="#e0e0e0"/>
        <path id="패스_7319" data-name="패스 7319" d="M387.6,67.285v1.291a.516.516,0,0,0,0,.142,1.1,1.1,0,0,0,.616.7,2.812,2.812,0,0,0,1.286.341,3.011,3.011,0,0,0,1.623-.341,1.428,1.428,0,0,0,.443-.39.767.767,0,0,0,.133-.306.541.541,0,0,0,0-.142V67.285a1.02,1.02,0,0,0-.6-.843l-.111-.058a3.224,3.224,0,0,0-2.8.058A1.02,1.02,0,0,0,387.6,67.285Z" transform="translate(-369.288 -61.355)" fill="#e6e6e6"/>
        <ellipse id="타원_57" data-name="타원 57" cx="2.058" cy="1.184" rx="2.058" ry="1.184" transform="translate(18.32 4.736)" fill="#f5f5f5"/>
        <path id="패스_7320" data-name="패스 7320" d="M409.1,121.8c1.836-1.047,1.836-2.745,0-3.792a7.4,7.4,0,0,0-6.652,0c-1.832,1.047-1.832,2.745,0,3.792A7.375,7.375,0,0,0,409.1,121.8Z" transform="translate(-376.786 -89.809)" opacity="0.03"/>
        <path id="패스_7321" data-name="패스 7321" d="M402.15,87.15a4.519,4.519,0,0,1,.608-.293,1.042,1.042,0,0,0,.665-.958V84.17h3.814V85.9a1.033,1.033,0,0,0,.665.958,4.52,4.52,0,0,1,.608.293,2.705,2.705,0,0,1,1.33,2.164v11.632a2.232,2.232,0,0,1-1.33,1.836,7.016,7.016,0,0,1-6.359,0,2.232,2.232,0,0,1-1.33-1.836V89.314A2.705,2.705,0,0,1,402.15,87.15Z" transform="translate(-376.646 -71.416)" fill="#f0f0f0"/>
        <path id="패스_7322" data-name="패스 7322" d="M402.15,98.868a7.1,7.1,0,0,0,6.355,0,2.221,2.221,0,0,0,1.33-1.818v8.235a2.2,2.2,0,0,1-1.33,1.818,7.1,7.1,0,0,1-6.355,0,2.215,2.215,0,0,1-1.33-1.818V97.05A2.272,2.272,0,0,0,402.15,98.868Z" transform="translate(-376.646 -78.584)" fill="#e0e0e0"/>
        <path id="패스_7323" data-name="패스 7323" d="M412.167,100.947V89.585a1.716,1.716,0,0,0-.776-1.636c-1.33-.665-1.486-1.206-1.486-1.885V84.17h1.122V85.9a1.033,1.033,0,0,0,.665.958,4.52,4.52,0,0,1,.608.293,2.705,2.705,0,0,1,1.33,2.164v11.632a2.232,2.232,0,0,1-1.33,1.836,7.025,7.025,0,0,1-4.67.612C411.284,103.63,412.167,102.078,412.167,100.947Z" transform="translate(-380.436 -71.416)" fill="#ebebeb" opacity="0.3"/>
        <path id="패스_7324" data-name="패스 7324" d="M406.43,81.519v.51a1.02,1.02,0,0,0,.6.843,3.233,3.233,0,0,0,2.909,0,1.388,1.388,0,0,0,.443-.395.754.754,0,0,0,.151-.443v-.514a.472.472,0,0,0,0-.137,1.1,1.1,0,0,0-.585-.705h-.027a3.246,3.246,0,0,0-2.883,0,1.122,1.122,0,0,0-.59.7A.817.817,0,0,0,406.43,81.519Z" transform="translate(-379.768 -69.283)" fill="#e6e6e6"/>
        <path id="패스_7325" data-name="패스 7325" d="M409.94,82.357a.888.888,0,0,0,0-1.681,3.233,3.233,0,0,0-2.909,0,.886.886,0,0,0,0,1.681,3.2,3.2,0,0,0,2.909,0Z" transform="translate(-379.765 -69.279)" fill="#e0e0e0"/>
        <path id="패스_7326" data-name="패스 7326" d="M406.426,77.969v1.286a.765.765,0,0,0,0,.142,1.109,1.109,0,0,0,.59.7,2.887,2.887,0,0,0,1.286.346,3.051,3.051,0,0,0,1.623-.346,1.428,1.428,0,0,0,.443-.39.741.741,0,0,0,.133-.306.518.518,0,0,0,0-.142V77.965a1.02,1.02,0,0,0-.6-.843l-.106-.058a3.233,3.233,0,0,0-2.8.058,1.02,1.02,0,0,0-.563.847Z" transform="translate(-379.764 -67.299)" fill="#e6e6e6"/>
        <ellipse id="타원_58" data-name="타원 58" cx="2.058" cy="1.184" rx="2.058" ry="1.184" transform="translate(26.662 9.473)" fill="#f5f5f5"/>
        <path id="패스_7327" data-name="패스 7327" d="M427.924,132.481c1.832-1.047,1.832-2.745,0-3.792a7.4,7.4,0,0,0-6.652,0c-1.836,1.047-1.836,2.745,0,3.792A7.375,7.375,0,0,0,427.924,132.481Z" transform="translate(-387.262 -95.752)" opacity="0.03"/>
        <path id="패스_7328" data-name="패스 7328" d="M420.96,97.83a4.521,4.521,0,0,1,.608-.293,1.033,1.033,0,0,0,.665-.958V94.85h3.814v1.73a1.042,1.042,0,0,0,.665.958,4.521,4.521,0,0,1,.608.293,2.705,2.705,0,0,1,1.33,2.164v11.615a2.232,2.232,0,0,1-1.33,1.836,7.016,7.016,0,0,1-6.359,0,2.232,2.232,0,0,1-1.33-1.836V99.994A2.705,2.705,0,0,1,420.96,97.83Z" transform="translate(-387.114 -77.359)" fill="#f0f0f0"/>
        <path id="패스_7329" data-name="패스 7329" d="M420.96,109.548a7.1,7.1,0,0,0,6.355,0,2.215,2.215,0,0,0,1.33-1.818v8.235a2.2,2.2,0,0,1-1.33,1.818,7.1,7.1,0,0,1-6.355,0,2.215,2.215,0,0,1-1.33-1.818V107.73A2.26,2.26,0,0,0,420.96,109.548Z" transform="translate(-387.114 -84.527)" fill="#e0e0e0"/>
        <path id="패스_7330" data-name="패스 7330" d="M430.977,111.636V100.265a1.705,1.705,0,0,0-.776-1.632c-1.33-.67-1.486-1.211-1.486-1.889V94.85h1.122v1.73a1.042,1.042,0,0,0,.665.958,4.518,4.518,0,0,1,.608.293,2.705,2.705,0,0,1,1.33,2.164v11.615a2.232,2.232,0,0,1-1.33,1.836,7.025,7.025,0,0,1-4.67.612C430.094,114.31,430.977,112.758,430.977,111.636Z" transform="translate(-390.904 -77.359)" fill="#ebebeb" opacity="0.3"/>
        <path id="패스_7331" data-name="패스 7331" d="M425.24,92.212v.51a1.02,1.02,0,0,0,.6.843,3.242,3.242,0,0,0,2.914,0,1.384,1.384,0,0,0,.443-.395.781.781,0,0,0,.146-.443v-.519a.723.723,0,0,0,0-.137,1.122,1.122,0,0,0-.585-.705h-.031a3.233,3.233,0,0,0-2.883,0,1.1,1.1,0,0,0-.585.7A.551.551,0,0,0,425.24,92.212Z" transform="translate(-390.236 -75.231)" fill="#e6e6e6"/>
        <ellipse id="타원_59" data-name="타원 59" cx="2.058" cy="1.189" rx="2.058" ry="1.189" transform="translate(35.004 15.788)" fill="#e0e0e0"/>
        <path id="패스_7332" data-name="패스 7332" d="M425.234,88.649v1.286a.5.5,0,0,0,0,.142,1.1,1.1,0,0,0,.6.723,2.94,2.94,0,0,0,1.286.341,3.078,3.078,0,0,0,1.628-.346,1.428,1.428,0,0,0,.443-.39.887.887,0,0,0,.133-.306.768.768,0,0,0,0-.142V88.645a1.02,1.02,0,0,0-.6-.843l-.111-.058a3.233,3.233,0,0,0-2.8.058A1.02,1.02,0,0,0,425.234,88.649Z" transform="translate(-390.23 -73.242)" fill="#e6e6e6"/>
        <path id="패스_7333" data-name="패스 7333" d="M425.24,88.64c0,.656.922,1.184,2.058,1.184s2.058-.528,2.058-1.184-.922-1.18-2.058-1.18S425.24,87.988,425.24,88.64Z" transform="translate(-390.236 -73.246)" fill="#f5f5f5"/>
      </g>
      <g id="freepik--Cans--inject-1--inject-47" transform="translate(0.018)">
        <path id="패스_7334" data-name="패스 7334" d="M77.16,75.43v-2h0a.7.7,0,0,0-.4-.532l-12-6.927a2.049,2.049,0,0,0-1.845,0L28.435,85.887a.67.67,0,0,0-.395.532h0v2h0a.67.67,0,0,0,.395.532l12,6.927a2.049,2.049,0,0,0,1.845,0L76.77,75.962a.687.687,0,0,0,.4-.532Z" transform="translate(-28.04 -59.651)" fill="#f0f0f0"/>
        <path id="패스_7335" data-name="패스 7335" d="M28.455,86.951l12,6.923a2.022,2.022,0,0,0,1.845,0L76.781,73.966a.563.563,0,0,0,0-1.064l-12-6.927a2.049,2.049,0,0,0-1.845,0L28.455,85.887a.563.563,0,0,0,0,1.064Z" transform="translate(-28.06 -59.651)" fill="#fafafa"/>
        <path id="패스_7336" data-name="패스 7336" d="M41.381,119.747v2a1.9,1.9,0,0,1-.922-.222L28.485,114.6a.674.674,0,0,1-.395-.537h0v-2h0a.443.443,0,0,1,.075-.226c-.142.257-.035.554.319.758l11.983,6.927A1.894,1.894,0,0,0,41.381,119.747Z" transform="translate(-28.068 -85.298)" fill="#e0e0e0"/>
        <ellipse id="타원_60" data-name="타원 60" cx="5.619" cy="3.246" rx="5.619" ry="3.246" transform="translate(31.678 9.003)" opacity="0.03"/>
        <path id="패스_7337" data-name="패스 7337" d="M112.2,67.643h0V58.17h-9.482v9.473h0a2.354,2.354,0,0,0,1.384,2.027,7.419,7.419,0,0,0,6.71,0A2.3,2.3,0,0,0,112.2,67.643Z" transform="translate(-69.598 -55.429)" fill="#ebebeb"/>
        <ellipse id="타원_61" data-name="타원 61" cx="4.745" cy="2.741" rx="4.745" ry="2.741" transform="translate(33.119)" fill="#fafafa"/>
        <path id="패스_7338" data-name="패스 7338" d="M104.674,56.806a7.1,7.1,0,0,0,6.3,0c1.738-.98,1.738-2.572,0-3.548a7.122,7.122,0,0,0-6.3,0C102.935,54.233,102.935,55.839,104.674,56.806Z" transform="translate(-69.963 -52.287)" fill="#ebebeb"/>
        <path id="패스_7339" data-name="패스 7339" d="M111,54.274a7.1,7.1,0,0,0-6.3,0,2.342,2.342,0,0,0-1.286,1.548,2.324,2.324,0,0,0,1.286,1.548,7.1,7.1,0,0,0,6.3,0,2.31,2.31,0,0,0,1.286-1.548A2.328,2.328,0,0,0,111,54.274Z" transform="translate(-69.985 -52.85)" fill="#f5f5f5"/>
        <path id="패스_7340" data-name="패스 7340" d="M102.72,67.962a2.335,2.335,0,0,0,1.388,1.951,7.393,7.393,0,0,0,6.71,0,2.347,2.347,0,0,0,1.388-1.934V61.633a2.318,2.318,0,0,1-1.388,1.938,7.419,7.419,0,0,1-6.71,0,2.344,2.344,0,0,1-1.388-1.951Z" transform="translate(-69.601 -57.349)" fill="#e0e0e0"/>
        <path id="패스_7341" data-name="패스 7341" d="M109.383,70.228a7.579,7.579,0,0,1-5.322-.563,2.31,2.31,0,0,1-1.384-2.022h0V58.17a2.318,2.318,0,0,0,1.388,1.938,3.73,3.73,0,0,0,.443.231V68.8C104.545,69.59,107.188,70.512,109.383,70.228Z" transform="translate(-69.576 -55.429)" opacity="0.05"/>
        <path id="패스_7342" data-name="패스 7342" d="M114.732,60.622l-.506-.288c-.408-.235-.514-.554-.244-.714a1.415,1.415,0,0,1,1.255.115l.5.288c.408.235.519.554.244.714a1.419,1.419,0,0,1-1.251-.115Z" transform="translate(-75.786 -56.183)" fill="#e0e0e0"/>
        <path id="패스_7343" data-name="패스 7343" d="M114.531,60.237a.612.612,0,0,0,.541,0,.164.164,0,0,0,0-.31.585.585,0,0,0-.541,0,.164.164,0,0,0,0,.31Z" transform="translate(-76.112 -56.37)" fill="#f5f5f5"/>
        <path id="패스_7344" data-name="패스 7344" d="M116.772,61.456a.612.612,0,0,0,.541,0,.164.164,0,0,0,0-.315.612.612,0,0,0-.541,0,.164.164,0,0,0,0,.315Z" transform="translate(-77.356 -57.048)" fill="#f5f5f5"/>
        <ellipse id="타원_62" data-name="타원 62" cx="5.619" cy="3.246" rx="5.619" ry="3.246" transform="translate(23.025 13.987)" opacity="0.03"/>
        <path id="패스_7345" data-name="패스 7345" d="M92.689,78.887h0V69.41H83.207v9.477h0a2.3,2.3,0,0,0,1.384,2.022,7.419,7.419,0,0,0,6.71,0A2.309,2.309,0,0,0,92.689,78.887Z" transform="translate(-58.74 -61.685)" fill="#ebebeb"/>
        <path id="패스_7346" data-name="패스 7346" d="M84.6,67.915a7.419,7.419,0,0,0,6.71,0c1.854-1.069,1.854-2.8,0-3.872a7.419,7.419,0,0,0-6.71,0C82.742,65.113,82.742,66.847,84.6,67.915Z" transform="translate(-58.74 -58.252)" fill="#fafafa"/>
        <ellipse id="타원_63" data-name="타원 63" cx="4.453" cy="2.515" rx="4.453" ry="2.515" transform="translate(24.755 5.211)" fill="#ebebeb"/>
        <path id="패스_7347" data-name="패스 7347" d="M91.478,65.518a7.122,7.122,0,0,0-6.3,0,2.328,2.328,0,0,0-1.286,1.548,2.324,2.324,0,0,0,1.286,1.552,7.122,7.122,0,0,0,6.3,0,2.319,2.319,0,0,0,1.282-1.552A2.319,2.319,0,0,0,91.478,65.518Z" transform="translate(-59.122 -59.11)" fill="#f5f5f5"/>
        <path id="패스_7348" data-name="패스 7348" d="M83.21,79.206A2.34,2.34,0,0,0,84.6,81.158a7.419,7.419,0,0,0,6.71,0A2.359,2.359,0,0,0,92.7,79.219V72.878a2.312,2.312,0,0,1-1.388,1.934,7.393,7.393,0,0,1-6.71,0A2.338,2.338,0,0,1,83.21,72.86Z" transform="translate(-58.743 -63.605)" fill="#e0e0e0"/>
        <path id="패스_7349" data-name="패스 7349" d="M89.9,81.468a7.518,7.518,0,0,1-5.3-.559,2.3,2.3,0,0,1-1.384-2.027h0V69.41a2.321,2.321,0,0,0,1.393,1.942,4.369,4.369,0,0,0,.443.226V80.04C85.057,80.83,87.705,81.774,89.9,81.468Z" transform="translate(-58.746 -61.685)" opacity="0.05"/>
        <path id="패스_7350" data-name="패스 7350" d="M95.21,71.884,94.7,71.6c-.408-.253-.537-.554-.244-.7a1.428,1.428,0,0,1,1.237.142l.5.288c.408.239.519.559.244.714a1.406,1.406,0,0,1-1.233-.16Z" transform="translate(-64.916 -62.469)" fill="#e0e0e0"/>
        <path id="패스_7351" data-name="패스 7351" d="M95.021,71.527a.585.585,0,0,0,.541,0,.164.164,0,0,0,0-.31.585.585,0,0,0-.541,0,.164.164,0,0,0,0,.31Z" transform="translate(-65.255 -62.653)" fill="#f5f5f5"/>
        <path id="패스_7352" data-name="패스 7352" d="M97.262,72.7a.612.612,0,0,0,.541,0,.169.169,0,0,0,0-.315.612.612,0,0,0-.541,0,.164.164,0,0,0,0,.315Z" transform="translate(-66.498 -63.303)" fill="#f5f5f5"/>
        <path id="패스_7353" data-name="패스 7353" d="M62.1,100.312a8.775,8.775,0,0,0,7.947,0c2.182-1.268,2.217-3.317,0-4.586a8.775,8.775,0,0,0-7.947,0C59.918,96.995,59.9,99.048,62.1,100.312Z" transform="translate(-46.082 -75.801)" opacity="0.03"/>
        <path id="패스_7354" data-name="패스 7354" d="M73.169,90.124h0V80.66H63.687v9.464h0a2.3,2.3,0,0,0,1.384,2.022,7.419,7.419,0,0,0,6.71,0A2.277,2.277,0,0,0,73.169,90.124Z" transform="translate(-47.877 -67.945)" fill="#ebebeb"/>
        <path id="패스_7355" data-name="패스 7355" d="M65.088,79.135a7.393,7.393,0,0,0,6.728,0c1.849-1.069,1.849-2.8,0-3.872a7.419,7.419,0,0,0-6.71,0C63.234,76.341,63.234,78.075,65.088,79.135Z" transform="translate(-47.886 -64.496)" fill="#fafafa"/>
        <ellipse id="타원_64" data-name="타원 64" cx="4.453" cy="2.515" rx="4.453" ry="2.515" transform="translate(16.103 10.2)" fill="#ebebeb"/>
        <path id="패스_7356" data-name="패스 7356" d="M71.973,76.755a7.1,7.1,0,0,0-6.3,0,2.324,2.324,0,0,0-1.286,1.552,2.328,2.328,0,0,0,1.286,1.548,7.1,7.1,0,0,0,6.3,0,2.315,2.315,0,0,0,1.286-1.548A2.315,2.315,0,0,0,71.973,76.755Z" transform="translate(-48.27 -65.362)" fill="#f5f5f5"/>
        <path id="패스_7357" data-name="패스 7357" d="M63.69,90.452A2.338,2.338,0,0,0,65.082,92.4a7.419,7.419,0,0,0,6.71,0,2.359,2.359,0,0,0,1.388-1.938V84.123a2.323,2.323,0,0,1-1.388,1.938,7.419,7.419,0,0,1-6.71,0A2.355,2.355,0,0,1,63.69,84.11Z" transform="translate(-47.88 -69.865)" fill="#e0e0e0"/>
        <path id="패스_7358" data-name="패스 7358" d="M70.386,92.718a7.519,7.519,0,0,1-5.3-.563,2.294,2.294,0,0,1-1.384-2.022h0V80.66A2.32,2.32,0,0,0,65.1,82.6a3.99,3.99,0,0,0,.443.226v8.462C65.547,92.075,68.191,93.02,70.386,92.718Z" transform="translate(-47.888 -67.945)" opacity="0.05"/>
        <path id="패스_7359" data-name="패스 7359" d="M75.705,83.108l-.5-.293c-.408-.235-.519-.554-.244-.714a1.432,1.432,0,0,1,1.233.142l.506.293c.408.235.519.554.244.71A1.424,1.424,0,0,1,75.705,83.108Z" transform="translate(-54.068 -68.703)" fill="#e0e0e0"/>
        <path id="패스_7360" data-name="패스 7360" d="M75.508,82.721a.585.585,0,0,0,.541,0c.146-.084.146-.222,0-.31a.612.612,0,0,0-.541,0C75.357,82.5,75.357,82.637,75.508,82.721Z" transform="translate(-54.394 -68.885)" fill="#f5f5f5"/>
        <path id="패스_7361" data-name="패스 7361" d="M77.761,83.937a.6.6,0,0,0,.537,0,.164.164,0,0,0,0-.31.576.576,0,0,0-.537,0,.164.164,0,0,0,0,.31Z" transform="translate(-55.649 -69.56)" fill="#f5f5f5"/>
        <path id="패스_7362" data-name="패스 7362" d="M42.59,111.556a8.8,8.8,0,0,0,7.947,0c2.182-1.264,2.191-3.322,0-4.59a8.775,8.775,0,0,0-7.947,0C40.408,108.235,40.395,110.288,42.59,111.556Z" transform="translate(-35.224 -82.056)" opacity="0.03"/>
        <path id="패스_7363" data-name="패스 7363" d="M53.659,101.373h0V91.9H44.177v9.473h0a2.294,2.294,0,0,0,1.384,2.022,7.384,7.384,0,0,0,6.705,0A2.289,2.289,0,0,0,53.659,101.373Z" transform="translate(-37.019 -74.201)" fill="#ebebeb"/>
        <ellipse id="타원_65" data-name="타원 65" cx="4.745" cy="2.741" rx="4.745" ry="2.741" transform="translate(7.158 14.959)" fill="#fafafa"/>
        <path id="패스_7364" data-name="패스 7364" d="M46.14,90.533a7.1,7.1,0,0,0,6.3,0c1.743-.985,1.743-2.577,0-3.548a7.1,7.1,0,0,0-6.3,0C44.4,87.957,44.4,89.549,46.14,90.533Z" transform="translate(-37.385 -71.056)" fill="#ebebeb"/>
        <path id="패스_7365" data-name="패스 7365" d="M52.483,88.005a7.1,7.1,0,0,0-6.3,0A2.311,2.311,0,0,0,44.9,89.553,2.328,2.328,0,0,0,46.186,91.1a7.1,7.1,0,0,0,6.3,0,2.328,2.328,0,0,0,1.286-1.548A2.31,2.31,0,0,0,52.483,88.005Z" transform="translate(-37.423 -71.623)" fill="#f5f5f5"/>
        <path id="패스_7366" data-name="패스 7366" d="M44.18,101.692a2.332,2.332,0,0,0,1.393,1.951,7.411,7.411,0,0,0,6.705,0,2.365,2.365,0,0,0,1.393-1.938V95.363A2.32,2.32,0,0,1,52.278,97.3a7.411,7.411,0,0,1-6.705,0A2.355,2.355,0,0,1,44.18,95.35Z" transform="translate(-37.022 -76.121)" fill="#e0e0e0"/>
        <path id="패스_7367" data-name="패스 7367" d="M50.876,103.958a7.516,7.516,0,0,1-5.3-.563,2.294,2.294,0,0,1-1.384-2.022h0V91.9a2.32,2.32,0,0,0,1.393,1.938,3.992,3.992,0,0,0,.443.231v8.457C46.037,103.32,48.681,104.26,50.876,103.958Z" transform="translate(-37.03 -74.201)" opacity="0.05"/>
        <path id="패스_7368" data-name="패스 7368" d="M56.2,94.349l-.5-.293c-.408-.235-.519-.554-.244-.71a1.415,1.415,0,0,1,1.233.137l.506.293c.408.235.514.554.244.714A1.441,1.441,0,0,1,56.2,94.349Z" transform="translate(-43.21 -74.96)" fill="#e0e0e0"/>
        <path id="패스_7369" data-name="패스 7369" d="M55.994,93.966a.612.612,0,0,0,.541,0,.164.164,0,0,0,0-.315.612.612,0,0,0-.541,0,.169.169,0,0,0,0,.315Z" transform="translate(-43.537 -75.14)" fill="#f5f5f5"/>
        <path id="패스_7370" data-name="패스 7370" d="M58.241,95.177a.585.585,0,0,0,.541,0,.164.164,0,0,0,0-.31.585.585,0,0,0-.541,0,.164.164,0,0,0,0,.31Z" transform="translate(-44.786 -75.815)" fill="#f5f5f5"/>
      </g>
      <g id="freepik--cans--inject-1--inject-47-2" data-name="freepik--cans--inject-1--inject-47" transform="translate(0 28.205)">
        <path id="패스_7371" data-name="패스 7371" d="M31.2,164.42a.479.479,0,0,0-.089.129A.745.745,0,0,1,31.2,164.42Z" transform="translate(-29.731 -142.765)" fill="#e0e0e0"/>
        <path id="패스_7372" data-name="패스 7372" d="M77.138,139.034v-2h0a.7.7,0,0,0-.4-.532l-12-6.927a2.049,2.049,0,0,0-1.845,0L28.412,149.487a.679.679,0,0,0-.412.554h0v2h0a.67.67,0,0,0,.395.532l12.023,6.9a2.049,2.049,0,0,0,1.845,0l34.485-19.908a.7.7,0,0,0,.4-.532Z" transform="translate(-28 -123.251)" fill="#f0f0f0"/>
        <path id="패스_7373" data-name="패스 7373" d="M28.46,150.551l12,6.927a2.049,2.049,0,0,0,1.845,0l34.485-19.912a.563.563,0,0,0,0-1.064l-12-6.927a2.049,2.049,0,0,0-1.845,0L28.469,149.487a.563.563,0,0,0-.009,1.064Z" transform="translate(-28.048 -123.251)" fill="#fafafa"/>
        <path id="패스_7374" data-name="패스 7374" d="M41.381,183.375v2a1.9,1.9,0,0,1-.922-.222l-11.974-6.923a.674.674,0,0,1-.395-.532h0v-1.978h0a.443.443,0,0,1,.075-.226c-.142.257-.035.554.319.758l11.983,6.9A1.894,1.894,0,0,0,41.381,183.375Z" transform="translate(-28.05 -148.926)" fill="#e0e0e0"/>
        <ellipse id="타원_66" data-name="타원 66" cx="5.619" cy="3.246" rx="5.619" ry="3.246" transform="translate(31.695 9.003)" opacity="0.03"/>
        <path id="패스_7375" data-name="패스 7375" d="M112.2,131.247h0V121.77h-9.482v9.477h0a2.353,2.353,0,0,0,1.384,2.022,7.419,7.419,0,0,0,6.71,0A2.3,2.3,0,0,0,112.2,131.247Z" transform="translate(-69.58 -119.029)" fill="#ebebeb"/>
        <ellipse id="타원_67" data-name="타원 67" cx="4.745" cy="2.741" rx="4.745" ry="2.741" transform="translate(33.137)" fill="#fafafa"/>
        <ellipse id="타원_68" data-name="타원 68" cx="4.453" cy="2.515" rx="4.453" ry="2.515" transform="translate(33.429 0.226)" fill="#ebebeb"/>
        <path id="패스_7376" data-name="패스 7376" d="M111,117.878a7.122,7.122,0,0,0-6.3,0,1.574,1.574,0,0,0,0,3.1,7.1,7.1,0,0,0,6.3,0,1.574,1.574,0,0,0,0-3.1Z" transform="translate(-69.967 -116.454)" fill="#f5f5f5"/>
        <path id="패스_7377" data-name="패스 7377" d="M102.72,131.562a2.33,2.33,0,0,0,1.388,1.951,7.393,7.393,0,0,0,6.71,0,2.347,2.347,0,0,0,1.388-1.934v-6.342a2.312,2.312,0,0,1-1.388,1.934,7.419,7.419,0,0,1-6.71,0,2.344,2.344,0,0,1-1.388-1.951Z" transform="translate(-69.583 -120.949)" fill="#e0e0e0"/>
        <path id="패스_7378" data-name="패스 7378" d="M109.383,133.846a7.6,7.6,0,0,1-5.322-.559,2.316,2.316,0,0,1-1.384-2.027h0v-9.49a2.312,2.312,0,0,0,1.388,1.938,3.73,3.73,0,0,0,.443.231V132.4C104.545,133.19,107.188,134.134,109.383,133.846Z" transform="translate(-69.559 -119.029)" opacity="0.05"/>
        <path id="패스_7379" data-name="패스 7379" d="M114.732,124.221l-.506-.288c-.408-.235-.514-.554-.244-.714a1.428,1.428,0,0,1,1.237.142l.5.288c.408.235.519.554.244.714a1.406,1.406,0,0,1-1.233-.142Z" transform="translate(-75.768 -119.791)" fill="#e0e0e0"/>
        <path id="패스_7380" data-name="패스 7380" d="M114.531,123.837a.585.585,0,0,0,.541,0,.164.164,0,0,0,0-.31.585.585,0,0,0-.541,0,.164.164,0,0,0,0,.31Z" transform="translate(-76.095 -119.97)" fill="#f5f5f5"/>
        <path id="패스_7381" data-name="패스 7381" d="M116.772,125.056a.612.612,0,0,0,.541,0,.164.164,0,0,0,0-.315.612.612,0,0,0-.541,0,.164.164,0,0,0,0,.315Z" transform="translate(-77.338 -120.648)" fill="#f5f5f5"/>
        <path id="패스_7382" data-name="패스 7382" d="M81.61,152.674a8.775,8.775,0,0,0,7.947,0c2.182-1.268,2.217-3.322,0-4.586a8.788,8.788,0,0,0-7.947,0C79.428,149.357,79.415,151.41,81.61,152.674Z" transform="translate(-56.922 -133.148)" opacity="0.03"/>
        <path id="패스_7383" data-name="패스 7383" d="M92.689,142.482h0V133H83.207v9.473h0a2.3,2.3,0,0,0,1.384,2.022,7.419,7.419,0,0,0,6.71,0A2.293,2.293,0,0,0,92.689,142.482Z" transform="translate(-58.722 -125.279)" fill="#ebebeb"/>
        <ellipse id="타원_69" data-name="타원 69" cx="4.745" cy="2.741" rx="4.745" ry="2.741" transform="translate(24.48 4.989)" fill="#fafafa"/>
        <ellipse id="타원_70" data-name="타원 70" cx="4.453" cy="2.515" rx="4.453" ry="2.515" transform="translate(24.773 5.215)" fill="#ebebeb"/>
        <path id="패스_7384" data-name="패스 7384" d="M91.478,129.078a7.122,7.122,0,0,0-6.3,0,1.577,1.577,0,0,0,0,3.1,7.122,7.122,0,0,0,6.3,0,1.581,1.581,0,0,0,0-3.1Z" transform="translate(-59.104 -122.687)" fill="#f5f5f5"/>
        <path id="패스_7385" data-name="패스 7385" d="M83.21,142.806a2.34,2.34,0,0,0,1.388,1.951,7.419,7.419,0,0,0,6.71,0,2.359,2.359,0,0,0,1.388-1.938v-6.342a2.312,2.312,0,0,1-1.388,1.934,7.393,7.393,0,0,1-6.71,0,2.338,2.338,0,0,1-1.388-1.951Z" transform="translate(-58.725 -127.205)" fill="#e0e0e0"/>
        <path id="패스_7386" data-name="패스 7386" d="M89.9,145.067a7.519,7.519,0,0,1-5.3-.563,2.3,2.3,0,0,1-1.384-2.027h0V133a2.32,2.32,0,0,0,1.393,1.938,4.367,4.367,0,0,0,.443.226v8.479C85.057,144.424,87.705,145.369,89.9,145.067Z" transform="translate(-58.728 -125.279)" opacity="0.05"/>
        <path id="패스_7387" data-name="패스 7387" d="M95.22,135.468l-.506-.293c-.408-.235-.519-.554-.244-.714a1.441,1.441,0,0,1,1.237.142l.5.288c.408.239.519.559.244.714a1.415,1.415,0,0,1-1.233-.137Z" transform="translate(-64.908 -126.048)" fill="#e0e0e0"/>
        <path id="패스_7388" data-name="패스 7388" d="M95.021,135.081a.585.585,0,0,0,.541,0,.164.164,0,0,0,0-.31.612.612,0,0,0-.541,0,.164.164,0,0,0,0,.31Z" transform="translate(-65.237 -126.229)" fill="#f5f5f5"/>
        <path id="패스_7389" data-name="패스 7389" d="M97.268,136.3a.612.612,0,0,0,.541,0c.146-.089.146-.226,0-.31a.585.585,0,0,0-.541,0C97.117,136.071,97.117,136.209,97.268,136.3Z" transform="translate(-66.486 -126.904)" fill="#f5f5f5"/>
        <ellipse id="타원_71" data-name="타원 71" cx="5.619" cy="3.246" rx="5.619" ry="3.246" transform="translate(14.391 18.972)" opacity="0.03"/>
        <path id="패스_7390" data-name="패스 7390" d="M73.169,153.733h0V144.26H63.687v9.473h0a2.294,2.294,0,0,0,1.384,2.022,7.393,7.393,0,0,0,6.71,0A2.291,2.291,0,0,0,73.169,153.733Z" transform="translate(-47.859 -131.545)" fill="#ebebeb"/>
        <path id="패스_7391" data-name="패스 7391" d="M65.085,142.76a7.419,7.419,0,0,0,6.71,0c1.849-1.073,1.849-2.807,0-3.876a7.419,7.419,0,0,0-6.71,0C63.232,139.953,63.232,141.687,65.085,142.76Z" transform="translate(-47.865 -128.107)" fill="#fafafa"/>
        <path id="패스_7392" data-name="패스 7392" d="M65.654,142.893a7.1,7.1,0,0,0,6.3,0c1.743-.985,1.743-2.577,0-3.548a7.1,7.1,0,0,0-6.3,0C63.915,140.317,63.915,141.909,65.654,142.893Z" transform="translate(-48.23 -128.4)" fill="#ebebeb"/>
        <path id="패스_7393" data-name="패스 7393" d="M71.973,140.365a7.1,7.1,0,0,0-6.3,0,1.574,1.574,0,0,0,0,3.1,7.1,7.1,0,0,0,6.3,0,1.574,1.574,0,0,0,0-3.1Z" transform="translate(-48.252 -128.968)" fill="#f5f5f5"/>
        <path id="패스_7394" data-name="패스 7394" d="M63.69,154.042a2.338,2.338,0,0,0,1.393,1.951,7.419,7.419,0,0,0,6.71,0,2.359,2.359,0,0,0,1.388-1.938v-6.342a2.323,2.323,0,0,1-1.388,1.938,7.419,7.419,0,0,1-6.71,0A2.355,2.355,0,0,1,63.69,147.7Z" transform="translate(-47.862 -133.46)" fill="#e0e0e0"/>
        <path id="패스_7395" data-name="패스 7395" d="M70.386,156.318a7.519,7.519,0,0,1-5.3-.563,2.294,2.294,0,0,1-1.384-2.022h0V144.26A2.32,2.32,0,0,0,65.1,146.2a3.365,3.365,0,0,0,.443.226v8.462C65.547,155.675,68.191,156.62,70.386,156.318Z" transform="translate(-47.87 -131.545)" opacity="0.05"/>
        <path id="패스_7396" data-name="패스 7396" d="M75.705,146.708l-.5-.293c-.408-.235-.519-.554-.244-.714a1.432,1.432,0,0,1,1.233.142l.506.293c.408.235.519.554.244.714A1.441,1.441,0,0,1,75.705,146.708Z" transform="translate(-54.05 -132.303)" fill="#e0e0e0"/>
        <path id="패스_7397" data-name="패스 7397" d="M75.5,146.326a.612.612,0,0,0,.541,0,.169.169,0,0,0,0-.315.612.612,0,0,0-.541,0,.164.164,0,0,0,0,.315Z" transform="translate(-54.37 -132.485)" fill="#f5f5f5"/>
        <path id="패스_7398" data-name="패스 7398" d="M77.761,147.527a.577.577,0,0,0,.537,0,.164.164,0,0,0,0-.31.577.577,0,0,0-.537,0,.164.164,0,0,0,0,.31Z" transform="translate(-55.631 -133.154)" fill="#f5f5f5"/>
        <path id="패스_7399" data-name="패스 7399" d="M42.59,175.158a8.8,8.8,0,0,0,7.947,0c2.182-1.264,2.191-3.322,0-4.59a8.788,8.788,0,0,0-7.947,0C40.408,171.832,40.395,173.89,42.59,175.158Z" transform="translate(-35.206 -145.658)" opacity="0.03"/>
        <path id="패스_7400" data-name="패스 7400" d="M53.659,164.973h0V155.5H44.177v9.473h0A2.3,2.3,0,0,0,45.561,167a7.411,7.411,0,0,0,6.705,0A2.3,2.3,0,0,0,53.659,164.973Z" transform="translate(-37.001 -137.801)" fill="#ebebeb"/>
        <ellipse id="타원_72" data-name="타원 72" cx="4.745" cy="2.741" rx="4.745" ry="2.741" transform="translate(7.175 14.959)" fill="#fafafa"/>
        <ellipse id="타원_73" data-name="타원 73" cx="4.453" cy="2.515" rx="4.453" ry="2.515" transform="translate(7.468 15.185)" fill="#ebebeb"/>
        <path id="패스_7401" data-name="패스 7401" d="M52.483,151.605a7.1,7.1,0,0,0-6.3,0,1.574,1.574,0,0,0,0,3.1,7.1,7.1,0,0,0,6.3,0,1.574,1.574,0,0,0,0-3.1Z" transform="translate(-37.405 -135.223)" fill="#f5f5f5"/>
        <path id="패스_7402" data-name="패스 7402" d="M44.18,165.3a2.332,2.332,0,0,0,1.393,1.951,7.41,7.41,0,0,0,6.705,0,2.365,2.365,0,0,0,1.393-1.938v-6.333a2.32,2.32,0,0,1-1.393,1.938,7.41,7.41,0,0,1-6.705,0,2.35,2.35,0,0,1-1.393-1.951Z" transform="translate(-37.004 -139.732)" fill="#e0e0e0"/>
        <path id="패스_7403" data-name="패스 7403" d="M50.876,167.558a7.516,7.516,0,0,1-5.3-.563,2.294,2.294,0,0,1-1.384-2.022h0V155.5a2.32,2.32,0,0,0,1.393,1.938,3.991,3.991,0,0,0,.443.231v8.457C46.037,166.92,48.681,167.86,50.876,167.558Z" transform="translate(-37.013 -137.801)" opacity="0.05"/>
        <path id="패스_7404" data-name="패스 7404" d="M56.2,157.949l-.5-.293c-.408-.235-.519-.554-.244-.71a1.415,1.415,0,0,1,1.233.137l.506.293c.408.235.514.554.244.714a1.441,1.441,0,0,1-1.237-.142Z" transform="translate(-43.192 -138.56)" fill="#e0e0e0"/>
        <path id="패스_7405" data-name="패스 7405" d="M55.994,157.526a.612.612,0,0,0,.541,0,.164.164,0,0,0,0-.315.612.612,0,0,0-.541,0,.169.169,0,0,0,0,.315Z" transform="translate(-43.519 -138.718)" fill="#f5f5f5"/>
        <path id="패스_7406" data-name="패스 7406" d="M58.241,158.781a.585.585,0,0,0,.541,0,.164.164,0,0,0,0-.31.612.612,0,0,0-.541,0,.164.164,0,0,0,0,.31Z" transform="translate(-44.768 -139.419)" fill="#f5f5f5"/>
      </g>
    </g>
    <g id="freepik--Characters--inject-1--inject-47" transform="translate(48.388 59.979)">
      <g id="freepik--characters--inject-1--inject-47-2" data-name="freepik--characters--inject-1--inject-47" transform="translate(0)">
        <path id="freepik--back-arm--inject-1--inject-47" d="M207.64,128.048a5.051,5.051,0,0,1,4.022.918c1.871,1.45,2.546,3.384,3.073,6.83s1.33,9.566,1.33,9.566l11.326,8.054c-.377.231-2.829,3.1-3.051,4.4,0,0-8.945-3.375-12.661-5.41s-3.645-2.954-4.022-4.5-1.934-13.384-1.574-16.027S206.744,128.416,207.64,128.048Z" transform="translate(-147.589 -102.45)" fill="#263238"/>
        <g id="freepik--character-boy--inject-1--inject-47">
          <path id="패스_7407" data-name="패스 7407" d="M78.3,301.009c-.4-.222-1.543.373-1.9.7a4.45,4.45,0,0,0-.8,2.523,6.345,6.345,0,0,1-.248,3.1c-.794,1.942-1.6,3.761-1.33,6.156a5.808,5.808,0,0,0,1.539,3.9,4.186,4.186,0,0,0,3.455,1.459,1.92,1.92,0,0,0,1.61-.887Z" transform="translate(-73.973 -198.536)" fill="#263238"/>
          <path id="패스_7408" data-name="패스 7408" d="M172.77,326.4l5.517,1.118,2.053-9.584-5.521-1.118Z" transform="translate(-128.955 -207.362)" fill="#ffa8a7"/>
          <path id="패스_7409" data-name="패스 7409" d="M137.016,229.065a8.5,8.5,0,0,1-1.251,3.991c-2.093,4.142-4.342,17.695-5,21.491a9.016,9.016,0,0,0,6.417,1.4s9.978-22.937,10.475-24.9c.749-2.962,1.53-16.5,1.774-21.677.3-6.342.812-12.768.812-12.768l-24.214-2.058s-1.534,5.907-2.6,9.4-3.694,13.677-5.237,16.409a7.362,7.362,0,0,1-3.3,2.945c-6.971,2.661-14.883,13.6-18.036,15.965a5.134,5.134,0,0,0,3.672,5.286s21.127-13.4,22.875-14.528c2.661-1.716,4.661-4.368,6.745-8.688,2.311-4.79,6.262-13.921,6.262-13.921S136.617,225.477,137.016,229.065Z" transform="translate(-86.704 -139.311)" fill="#4a95df"/>
          <path id="패스_7410" data-name="패스 7410" d="M137.016,229.065a8.5,8.5,0,0,1-1.251,3.991c-2.093,4.142-4.342,17.695-5,21.491a9.016,9.016,0,0,0,6.417,1.4s9.978-22.937,10.475-24.9c.749-2.962,1.53-16.5,1.774-21.677.3-6.342.812-12.768.812-12.768l-24.214-2.058s-1.534,5.907-2.6,9.4-3.694,13.677-5.237,16.409a7.362,7.362,0,0,1-3.3,2.945c-6.971,2.661-14.883,13.6-18.036,15.965a5.134,5.134,0,0,0,3.672,5.286s21.127-13.4,22.875-14.528c2.661-1.716,4.661-4.368,6.745-8.688,2.311-4.79,6.262-13.921,6.262-13.921S136.617,225.477,137.016,229.065Z" transform="translate(-86.704 -139.311)" opacity="0.5"/>
          <path id="패스_7411" data-name="패스 7411" d="M186,220.154c0,.08.146,16.542.563,21.092l1.091-20.4a10.484,10.484,0,0,0,4.111-3.446,16.508,16.508,0,0,1-5.739,2.754Z" transform="translate(-136.318 -152.033)" opacity="0.2"/>
          <path id="패스_7412" data-name="패스 7412" d="M200.115,259.7c-1.162-.217-2.164-.945-3.353-.971a1.047,1.047,0,0,0-.785.235,4.648,4.648,0,0,0-.953,2.062c-.04.483.084,1.029-.231,1.41s-.754.386-1.135.581a2.515,2.515,0,0,0-.772.679c-.355.443-.643,1.087-.284,1.521a1.366,1.366,0,0,0,1.33.271,2.661,2.661,0,0,1,1.4-.08,1.472,1.472,0,0,1,.807,1.557c-.049.621-.31,1.211-.377,1.832a1.6,1.6,0,0,0,.244,1.149,1.691,1.691,0,0,0,2.271.1,4.515,4.515,0,0,0,1.295-2.058l.887-2.257a5.353,5.353,0,0,1,.807-1.526c.142-1.162.275-2.568.408-4.1A8.461,8.461,0,0,0,200.115,259.7Z" transform="translate(-139.901 -175.031)" opacity="0.05"/>
          <path id="패스_7413" data-name="패스 7413" d="M190.111,248.166a1.663,1.663,0,0,0,.958-1.8,3.065,3.065,0,0,0-1.171-1.814c-.528-.443-1.171-.807-1.388-1.437a2.217,2.217,0,0,1,.248-1.681,6.458,6.458,0,0,0,.692-1.6,1.375,1.375,0,0,0-.63-1.5c-.687-.324-1.486.164-2,.71a6.265,6.265,0,0,0-.514.621c.049,2.346.106,4.878.173,7.193a5.656,5.656,0,0,1,1.237.7A2.779,2.779,0,0,0,190.111,248.166Z" transform="translate(-136.491 -163.623)" opacity="0.05"/>
          <path id="패스_7414" data-name="패스 7414" d="M173.569,223.887a4.062,4.062,0,0,1,.1-2.35,4.794,4.794,0,0,0,.208-2.35,1.925,1.925,0,0,0-2-1.375,1.774,1.774,0,0,0-1.3,1.282,18.834,18.834,0,0,0-.337,1.863,2.155,2.155,0,0,1-.785,1.33,4.879,4.879,0,0,0-1.246.8,2.045,2.045,0,0,0-.6,1.193,1.357,1.357,0,0,0,.359,1.029c.226.244.537.417.692.7.253.443,0,1.016-.075,1.534a2.452,2.452,0,0,0,.585,1.88,3.375,3.375,0,0,0,1.774,1.051c.111.027.226.04.341.058.918-2.009,1.871-4.16,2.661-5.965A3.991,3.991,0,0,1,173.569,223.887Z" transform="translate(-126.073 -152.258)" opacity="0.15"/>
          <path id="패스_7415" data-name="패스 7415" d="M161.589,250.427l-.169-.16a3.738,3.738,0,0,0-2.328-1.02,1.942,1.942,0,0,0-.532,0,1.734,1.734,0,0,0-.665.328,5.061,5.061,0,0,0-.958.8c-.443.51-.71,1.175-1.135,1.712a3.26,3.26,0,0,1-1.774,1.264,3.825,3.825,0,0,0-1.455.368.971.971,0,0,0-.093,1.446c.4.377,1.131.443,1.291.971a1.118,1.118,0,0,1-.306.945c-.2.275-.443.541-.656.8a.958.958,0,0,0-.279.443.612.612,0,0,0,.443.612,1.658,1.658,0,0,0,.82.022,6.209,6.209,0,0,0,3.792-2.186,8.6,8.6,0,0,1,1.246-1.468,3.354,3.354,0,0,1,.337-.217,35.543,35.543,0,0,0,1.774-3.3C161.145,251.367,161.363,250.9,161.589,250.427Z" transform="translate(-117.508 -169.746)" opacity="0.05"/>
          <path id="패스_7416" data-name="패스 7416" d="M180.351,298.711c-.257-.643.333-1.33.208-2.022a1.459,1.459,0,0,0-.328-.643,2.9,2.9,0,0,0-1.459-.936c-.395,1.588-.772,3.308-1.122,5.011a4.373,4.373,0,0,0,3.016.829,1,1,0,0,0,.807-.443c.151-.337-.089-.718-.364-.971A2.532,2.532,0,0,1,180.351,298.711Z" transform="translate(-131.671 -195.28)" opacity="0.15"/>
          <path id="패스_7417" data-name="패스 7417" d="M203.48,240.667c-.6.377-1.3.887-1.2,1.574s1,1.029,1.734,1.251a11.362,11.362,0,0,1,2.838,1.33,3.525,3.525,0,0,0,.443.257c.266-3.424.5-7.224.661-10.2a2.16,2.16,0,0,0-1.042-.315,1.144,1.144,0,0,0-1.326,1.268c.022.656.31,1.291.279,1.947C205.791,239.048,204.6,239.975,203.48,240.667Z" transform="translate(-145.372 -161.583)" opacity="0.1"/>
          <path id="패스_7418" data-name="패스 7418" d="M194.68,202.776a1.242,1.242,0,0,0-.213-.656,1.854,1.854,0,0,0-.67-.488,18.9,18.9,0,0,0-3.446-1.33,8.945,8.945,0,0,0-2.843-.4,6.3,6.3,0,0,0-2.395.235,1.619,1.619,0,0,0-.918,1.016,1.708,1.708,0,0,0,.137.887,5.4,5.4,0,0,1,.306,2.971,2.267,2.267,0,0,0,.949,2.523,2.594,2.594,0,0,0,2.186.226,4.288,4.288,0,0,0,1.33-.851,7.264,7.264,0,0,1,2.311-1.57,17,17,0,0,0,2.031-.51A2.147,2.147,0,0,0,194.68,202.776Z" transform="translate(-135.309 -142.291)" opacity="0.1"/>
          <path id="패스_7419" data-name="패스 7419" d="M197.149,226.355a8.329,8.329,0,0,1-1.459-.772c-.386-.377-.333-1-.679-1.486a1.1,1.1,0,0,0-.918-.488c-.581.035-.931.643-1.042,1.189a3.768,3.768,0,0,1-.443,1.6,4.717,4.717,0,0,1-.8.71c-1.233,1.055.208,1.641.887,2.315,1.206,1.215-.514,2.8.443,4.045a1.747,1.747,0,0,0,2.089.346,3.251,3.251,0,0,0,1.441-1.672c.3-.679.479-1.4.794-2.075a6.653,6.653,0,0,0,.674-1.61A2.138,2.138,0,0,0,197.149,226.355Z" transform="translate(-139.281 -155.489)" opacity="0.15"/>
          <path id="패스_7420" data-name="패스 7420" d="M186.243,284.85a2.8,2.8,0,0,0,.271-2.461,3.189,3.189,0,0,1-.182-1.7c.337-1.087,1.987-1.628,1.916-2.758-.049-.741-.887-1.228-1.65-1.308s-1.548.111-2.324.071a1.965,1.965,0,0,1-.559-.12,18.108,18.108,0,0,1-.94,2.138,24.461,24.461,0,0,0-1.455,4.138c.714.581,1.064,1.5,1.774,2.1A2.305,2.305,0,0,0,186.243,284.85Z" transform="translate(-133.714 -184.962)" opacity="0.1"/>
          <path id="패스_7421" data-name="패스 7421" d="M194.319,288.026a3.548,3.548,0,0,0-1.02,2.8c.049,1.193.443,2.528-.31,3.495-.443.559-1.242,1.029-1.1,1.712.106.519.714.767,1.237.931a9.684,9.684,0,0,0,1.357.35c1.459-3.406,3.007-7.038,4.173-9.854C197.091,287.063,195.224,287.21,194.319,288.026Z" transform="translate(-139.586 -190.905)" opacity="0.15"/>
          <path id="패스_7422" data-name="패스 7422" d="M206.536,205.712a17.494,17.494,0,0,1-.825,2.661,6.151,6.151,0,0,1-1.628,1.73,2.661,2.661,0,0,0-.834.927,1.96,1.96,0,0,0,.958,2.217c.736.506,1.636.718,2.4,1.166.523.306.98.71,1.512,1a3.236,3.236,0,0,0,.417.191c0-.346.031-.665.044-.962.186-3.991.443-7.983.634-10.431-.106-.044-.213-.089-.324-.124C207.675,203.686,206.895,204.741,206.536,205.712Z" transform="translate(-145.86 -144.576)" opacity="0.05"/>
          <path id="패스_7423" data-name="패스 7423" d="M157.3,203.187a12.079,12.079,0,0,0,2.311,1.3,4.435,4.435,0,0,1,1.557,1.534,2.848,2.848,0,0,0,.6.838,1.45,1.45,0,0,0,1.907-.288,2.089,2.089,0,0,0,.288-1.956,6.063,6.063,0,0,1-.368-1.224,2.854,2.854,0,0,1,1.193-2.146,4.648,4.648,0,0,0,1.561-1.982,2.457,2.457,0,0,0-.585-2.138,6,6,0,0,0-1.88-1.393,16.509,16.509,0,0,0-2.1-.98l-2.115-.182S158.342,199.639,157.3,203.187Z" transform="translate(-120.346 -139.327)" opacity="0.05"/>
          <path id="패스_7424" data-name="패스 7424" d="M139.28,270.185a7.237,7.237,0,0,0-1.02-.288,1.1,1.1,0,0,1-.776-.634c-.106-.355.12-.665.257-.976a3.823,3.823,0,0,0,.35-1.3,1.734,1.734,0,0,0-.616-1.521,1.956,1.956,0,0,0-.971-.328,2.328,2.328,0,0,0-2.111.865,3.424,3.424,0,0,0-.443,1.264,3.167,3.167,0,0,1-.479,1.251,4.654,4.654,0,0,1-1.663.909,1.33,1.33,0,0,0-.909,1.166c-.053,1.02,1.583,1.574,1.508,2.59a2.581,2.581,0,0,1-.475,1.02,2.741,2.741,0,0,0-.346,1.6,2.015,2.015,0,0,0,.058.319c3.166-2.009,6.266-3.991,8.329-5.291A1.543,1.543,0,0,0,139.28,270.185Z" transform="translate(-105.652 -178.59)" opacity="0.15"/>
          <path id="패스_7425" data-name="패스 7425" d="M150.08,229.762c.124.572.031,1.171.115,1.747a1.619,1.619,0,0,0,.63,1.153,1.552,1.552,0,0,0,1.144.182,2.572,2.572,0,0,0,1.774-.958,3.548,3.548,0,0,0,.563-2.271,9.585,9.585,0,0,1-.142-1.224,4.727,4.727,0,0,1,1.441-2.661c.665-.807,1.33-1.774,1.069-2.75a2.767,2.767,0,0,0-.665-1.135,8.821,8.821,0,0,0-3.739-2.266c-.7,2.452-1.69,6.045-2.661,9.145A2.98,2.98,0,0,1,150.08,229.762Z" transform="translate(-116.066 -153.246)" opacity="0.1"/>
          <path id="패스_7426" data-name="패스 7426" d="M135.557,253.58a13.023,13.023,0,0,0-1.557.714,5.217,5.217,0,0,0,.2,1.113,1.029,1.029,0,0,0,.568.745c.443.142.86-.266,1.193-.59a5.011,5.011,0,0,1,1.774-1.122,12.044,12.044,0,0,1,1.885-.319,2.452,2.452,0,0,0,1.845-2.346,3.224,3.224,0,0,0-1.583-2.661c-.093-.058-.191-.115-.288-.164a13.949,13.949,0,0,1-.745,1.659A7.362,7.362,0,0,1,135.557,253.58Z" transform="translate(-107.379 -169.591)" opacity="0.15"/>
          <path id="패스_7427" data-name="패스 7427" d="M114,269.444a1.251,1.251,0,0,0,.244.266c.4.333,1.042.475,1.206.962a1.113,1.113,0,0,1-.253.958,2.874,2.874,0,0,0-.523.887,1.381,1.381,0,0,0,1.029,1.495,3.41,3.41,0,0,0,2.013-.129c.953-.3,1.96-.865,2.169-1.8a2.8,2.8,0,0,0-.679-2.151,1.774,1.774,0,0,1-.3-.532,1.33,1.33,0,0,1,.2-.967,14.5,14.5,0,0,1,1.774-2.173,3.389,3.389,0,0,0,.985-2.523,1.361,1.361,0,0,0-.412-.816A44.489,44.489,0,0,0,114,269.444Z" transform="translate(-96.249 -177.366)" opacity="0.1"/>
          <path id="패스_7428" data-name="패스 7428" d="M164.588,129.523a7.068,7.068,0,0,0-1.051,4.129v12.861L161,158.3c3.326,3.672,21.354,7.477,24.657,2.142,0,0,2.962-19.145,2.949-22.87,0-2.577-.727-8.426-5.229-10.107l-9.9-.248-2.541-.341C168.473,126.973,166.481,127.093,164.588,129.523Z" transform="translate(-122.405 -101.657)" fill="#37474f"/>
          <circle id="타원_74" data-name="타원 74" cx="6.785" cy="6.785" r="6.785" transform="matrix(0.744, -0.668, 0.668, 0.744, 51.128, 9.061)" fill="#263238"/>
          <path id="패스_7429" data-name="패스 7429" d="M183.87,101a58.339,58.339,0,0,0,1.211,6.089,2.328,2.328,0,0,0,1.291,1.162l.12-3.632Z" transform="translate(-135.133 -87.254)" fill="#263238"/>
          <path id="패스_7430" data-name="패스 7430" d="M184.459,84.5a2.554,2.554,0,0,0-2.164.647c-.953.887-.6,3.8.368,6.692l2.053.35Z" transform="translate(-133.943 -78.049)" fill="#263238"/>
          <path id="패스_7431" data-name="패스 7431" d="M183.879,88.853c-.443.226-.976-.6-1.459-1.166a1.8,1.8,0,0,0-3.042.324c-.931,1.712.51,4.191,1.8,4.674,2.217.838,2.661-.6,2.661-.6l-.271,8.182c1.836,2.288,8.9,4.355,7.384.182l.129-2.483a8.914,8.914,0,0,0,2.563.333,4.136,4.136,0,0,0,3.5-2.949c1.18-2.94,1.552-5.965,1.41-11.171-.169-6.3-7.672-6.745-11.73-4.492S183.879,88.853,183.879,88.853Z" transform="translate(-132.467 -74.703)" fill="#ffa8a7"/>
          <path id="패스_7432" data-name="패스 7432" d="M187.779,86.79c-.186-.1-.931-1.366-1.424-1.863-.679-.692.563-6.537.563-6.537a2.8,2.8,0,0,1,.851-2.945,6.209,6.209,0,0,1,2.661-1.579,8.709,8.709,0,0,1,4.306.231,17.012,17.012,0,0,0,4.652.594,8.532,8.532,0,0,0,3.495-.976,1.29,1.29,0,0,1,.705-.226c.528.044.621.647.568,1.069a4.253,4.253,0,0,1-.927,2.146c.373-.053.887-.04.989.319a.59.59,0,0,1,0,.328,2.111,2.111,0,0,1-.5.887c-1.543,1.814-4.364,2.5-6.674,2.368-1.934-.115-3.778-.936-5.716-1.016a1.934,1.934,0,0,0-.781.084,1.521,1.521,0,0,0-.794.758,3.827,3.827,0,0,0-.324,1.078c-.244,1.295-.231,2.608-.417,3.911C188.923,86.076,188.693,87.291,187.779,86.79Z" transform="translate(-136.403 -71.944)" fill="#263238"/>
          <path id="패스_7433" data-name="패스 7433" d="M184.775,82.81l-2.435-1.486a1.388,1.388,0,0,1,1.934-.523A1.5,1.5,0,0,1,184.775,82.81Z" transform="translate(-134.281 -75.902)" fill="#263238"/>
          <path id="패스_7434" data-name="패스 7434" d="M197.773,117.952a28.6,28.6,0,0,1-4.94-1.716,4.271,4.271,0,0,1-1.7-1.876,5.916,5.916,0,0,0,.909,2.155c.887,1.264,5.681,2.426,5.681,2.426Z" transform="translate(-139.173 -94.689)" fill="#f28f8f"/>
          <path id="패스_7435" data-name="패스 7435" d="M206.014,99.585a.745.745,0,1,1-.705-.816.758.758,0,0,1,.705.816Z" transform="translate(-146.629 -86.012)" fill="#263238"/>
          <path id="패스_7436" data-name="패스 7436" d="M204.334,94.109l-1.641.794a.958.958,0,0,1,.443-1.251.887.887,0,0,1,1.2.457Z" transform="translate(-145.561 -83.117)" fill="#263238"/>
          <path id="패스_7437" data-name="패스 7437" d="M205.813,112.32l2.053.887a1.1,1.1,0,0,1-1.463.616A1.175,1.175,0,0,1,205.813,112.32Z" transform="translate(-147.297 -93.554)" fill="#f28f8f"/>
          <path id="패스_7438" data-name="패스 7438" d="M219.123,95.761l-1.393-1.184A.887.887,0,0,1,219,94.453.967.967,0,0,1,219.123,95.761Z" transform="translate(-153.977 -83.491)" fill="#263238"/>
          <path id="패스_7439" data-name="패스 7439" d="M218.464,100.11a.758.758,0,0,1-.785.732.776.776,0,1,1,.785-.732Z" transform="translate(-153.522 -86.302)" fill="#263238"/>
          <path id="패스_7440" data-name="패스 7440" d="M211.967,99.34l-.647,4.479,2.736-.146Z" transform="translate(-150.409 -86.33)" fill="#f28f8f"/>
          <path id="패스_7441" data-name="패스 7441" d="M167.624,347.3c-.293.151-.341.5-.271,1.175a3.32,3.32,0,0,0,2.4,2.35c1.561.5,3.331.368,4.089.718,1.113.514,1.871,1.521,4.222,2.7a9.659,9.659,0,0,0,5.818.953,3.038,3.038,0,0,0,2.4-1.189s.537-1.33.137-1.632S167.624,347.3,167.624,347.3Z" transform="translate(-125.925 -224.325)" fill="#263238"/>
          <path id="패스_7442" data-name="패스 7442" d="M172.288,306.265c-1.33-.067-.98.767-1.282,3.441-.315,2.816-.47,6.151-1.33,8.794S168,322.918,168,324.772a4.82,4.82,0,0,0,2.559,2.027c1.774.585,3.069.443,4.142.914,1.738.745,2.687,2.368,5.765,3a8.233,8.233,0,0,0,6.333-.794s.443-2.044-.674-3.007c-2.6-1.33-6.794-4.395-7.721-6.009s.373-3.991,1.539-7.641c1.069-3.357,1.934-3.991.887-4.461l-.355.807s-.94.186-4.249-.785-4.084-1.716-4.084-1.716Z" transform="translate(-126.301 -201.486)" fill="#37474f"/>
          <path id="패스_7443" data-name="패스 7443" d="M91.746,280.785a.96.96,0,0,0-1.557.071c-.887.931-4.031,5-6.027,6.209a28.41,28.41,0,0,1-4.577,2.63,4.173,4.173,0,0,0-1.206,3.517,8.556,8.556,0,0,1-1.047,4.9,7.719,7.719,0,0,0,.479,6.736,6.209,6.209,0,0,0,2.883,2.572c1.774,0,3.5-.16,3.468-3.175a19.207,19.207,0,0,1,1.135-7.238c1.024-3,2.479-3.02,5.765-5.158s6.466-3.286,5.969-4.364l-.71.443a11.067,11.067,0,0,1-4.559-3.694c-1.184-1.526-.856-2.546-.856-2.546Z" transform="translate(-75.529 -187.107)" fill="#37474f"/>
        </g>
        <g id="freepik--shopping-cart--inject-1--inject-47" transform="translate(63.715 40.839)">
          <path id="패스_7444" data-name="패스 7444" d="M280.59,411.443a6.7,6.7,0,0,0-3.033-5.251,2.064,2.064,0,0,0-2.217-.16h0l-2.049,1.175,4.351,7.388,2.027-1.166h0A2.081,2.081,0,0,0,280.59,411.443Z" transform="translate(-248.896 -298.694)" fill="#455a64"/>
          <path id="패스_7445" data-name="패스 7445" d="M274.341,408.95a6.7,6.7,0,0,1,3.051,5.251c0,1.934-1.357,2.719-3.033,1.752a6.705,6.705,0,0,1-3.029-5.255C271.312,408.763,272.669,407.983,274.341,408.95Z" transform="translate(-247.805 -300.227)" fill="#37474f"/>
          <path id="패스_7446" data-name="패스 7446" d="M275.81,414.871c0-.758.443-1.1,1.029-.776a2.457,2.457,0,0,1,1.024,1.96c0,.754-.443,1.1-1.024.776a2.461,2.461,0,0,1-1.029-1.96Z" transform="translate(-250.298 -303.252)" fill="#455a64"/>
          <path id="패스_7447" data-name="패스 7447" d="M282.761,402.19s0,3.459-1.65,4.683c-.31.231-.643.39-.838.554-.421.35-.142.993.372,1.268.741.4,4.79-.679,6.506-3.969Z" transform="translate(-252.668 -296.696)" fill="#37474f"/>
          <path id="패스_7448" data-name="패스 7448" d="M279.22,404.23s0,3.459-1.654,4.683c-.31.231-.639.39-.834.554-.421.35-.142.993.368,1.264.745.4,4.794-.679,6.51-3.969Z" transform="translate(-250.697 -297.831)" fill="#263238"/>
          <path id="패스_7449" data-name="패스 7449" d="M277.763,416.56a.63.63,0,0,1,.288.5c0,.186-.129.262-.288.169a.639.639,0,0,1-.293-.506C277.47,416.542,277.6,416.467,277.763,416.56Z" transform="translate(-251.222 -304.671)" fill="#263238"/>
          <path id="패스_7450" data-name="패스 7450" d="M332.851,381.27a6.714,6.714,0,0,0-3.029-5.255,2.063,2.063,0,0,0-2.217-.155h0l-2.044,1.166,4.346,7.388,2.031-1.166h0A2.1,2.1,0,0,0,332.851,381.27Z" transform="translate(-277.985 -281.901)" fill="#455a64"/>
          <path id="패스_7451" data-name="패스 7451" d="M326.593,378.771a6.7,6.7,0,0,1,3.033,5.251c0,1.934-1.357,2.719-3.033,1.752a6.7,6.7,0,0,1-3.033-5.251C323.56,378.589,324.917,377.8,326.593,378.771Z" transform="translate(-276.872 -283.432)" fill="#37474f"/>
          <path id="패스_7452" data-name="패스 7452" d="M328.09,384.721c0-.754.443-1.1,1.024-.776a2.457,2.457,0,0,1,1.024,1.96c0,.758-.443,1.1-1.024.776a2.457,2.457,0,0,1-1.024-1.96Z" transform="translate(-279.393 -286.474)" fill="#455a64"/>
          <path id="패스_7453" data-name="패스 7453" d="M335.036,372s0,3.464-1.65,4.688c-.31.231-.639.39-.834.55-.421.35-.142,1,.368,1.268.745.4,4.794-.679,6.506-3.969Z" transform="translate(-281.762 -279.894)" fill="#37474f"/>
          <path id="패스_7454" data-name="패스 7454" d="M331.493,374.05s0,3.459-1.65,4.683c-.31.231-.643.39-.838.554-.417.35-.142.993.373,1.268.741.4,4.79-.679,6.506-3.991Z" transform="translate(-279.789 -281.035)" fill="#263238"/>
          <path id="패스_7455" data-name="패스 7455" d="M330.033,386.38a.652.652,0,0,1,.293.506c0,.182-.133.257-.293.164a.643.643,0,0,1-.293-.5C329.74,386.362,329.855,386.287,330.033,386.38Z" transform="translate(-280.311 -287.875)" fill="#263238"/>
          <path id="패스_7456" data-name="패스 7456" d="M234.025,384.893a6.71,6.71,0,0,0-3.033-5.251,2.065,2.065,0,0,0-2.217-.16h0l-2.044,1.166,4.351,7.393,2.027-1.166h0A2.177,2.177,0,0,0,234.025,384.893Z" transform="translate(-222.984 -283.918)" fill="#455a64"/>
          <path id="패스_7457" data-name="패스 7457" d="M227.743,382.351a6.71,6.71,0,0,1,3.033,5.255c0,1.934-1.357,2.719-3.033,1.752a6.705,6.705,0,0,1-3.033-5.255C224.71,382.169,226.067,381.384,227.743,382.351Z" transform="translate(-221.86 -285.424)" fill="#37474f"/>
          <path id="패스_7458" data-name="패스 7458" d="M229.24,388.3c0-.754.443-1.1,1.024-.776a2.461,2.461,0,0,1,1.029,1.965c0,.754-.443,1.1-1.029.776a2.457,2.457,0,0,1-1.024-1.965Z" transform="translate(-224.381 -288.468)" fill="#455a64"/>
          <path id="패스_7459" data-name="패스 7459" d="M236.174,375.6s0,3.459-1.65,4.683c-.31.231-.639.39-.834.554-.443.35-.142.993.368,1.268.745.4,4.794-.683,6.506-3.991Z" transform="translate(-226.738 -281.898)" fill="#37474f"/>
          <path id="패스_7460" data-name="패스 7460" d="M232.623,377.63s0,3.464-1.65,4.688c-.31.231-.643.39-.838.55-.417.35-.142.993.373,1.268.741.4,4.79-.678,6.506-3.969Z" transform="translate(-224.766 -283.028)" fill="#263238"/>
          <path id="패스_7461" data-name="패스 7461" d="M231.183,389.956a.652.652,0,0,1,.293.506c0,.186-.133.262-.293.169a.652.652,0,0,1-.293-.506A.182.182,0,0,1,231.183,389.956Z" transform="translate(-225.299 -289.868)" fill="#263238"/>
          <path id="패스_7462" data-name="패스 7462" d="M286.3,354.676a6.7,6.7,0,0,0-3.033-5.251,2.063,2.063,0,0,0-2.217-.155h0L279,350.436l4.351,7.388,2.027-1.166h0A2.123,2.123,0,0,0,286.3,354.676Z" transform="translate(-252.074 -267.103)" fill="#455a64"/>
          <path id="패스_7463" data-name="패스 7463" d="M280.025,352.181a6.7,6.7,0,0,1,3.033,5.251c0,1.934-1.357,2.719-3.033,1.752A6.705,6.705,0,0,1,277,353.932C277,352,278.353,351.214,280.025,352.181Z" transform="translate(-250.961 -268.634)" fill="#37474f"/>
          <path id="패스_7464" data-name="패스 7464" d="M281.51,358.131c0-.758.443-1.1,1.029-.776a2.47,2.47,0,0,1,1.024,1.96c0,.754-.443,1.1-1.024.776a2.461,2.461,0,0,1-1.029-1.96Z" transform="translate(-253.47 -271.675)" fill="#455a64"/>
          <path id="패스_7465" data-name="패스 7465" d="M288.448,345.42s0,3.459-1.65,4.688c-.31.231-.643.39-.838.55-.443.35-.142.993.372,1.268.741.4,4.79-.679,6.506-3.969Z" transform="translate(-255.828 -265.102)" fill="#e0e0e0"/>
          <path id="패스_7466" data-name="패스 7466" d="M284.92,347.46s0,3.459-1.654,4.683c-.31.231-.639.39-.834.554-.421.35-.142.993.368,1.268.745.395,4.794-.683,6.51-3.991Z" transform="translate(-253.87 -266.237)" fill="#263238"/>
          <path id="패스_7467" data-name="패스 7467" d="M283.463,359.79a.639.639,0,0,1,.288.5c0,.186-.129.262-.288.169a.639.639,0,0,1-.293-.506C283.17,359.772,283.3,359.7,283.463,359.79Z" transform="translate(-254.394 -273.077)" fill="#263238"/>
          <path id="패스_7468" data-name="패스 7468" d="M261.593,344.345a6.453,6.453,0,0,1-3.166-.754l-29.558-16.932c-1.663-.958-3.459-3.308-3.459-5.437V292.706H227v28.516a5.7,5.7,0,0,0,2.661,4.062L259.216,342.2a5.442,5.442,0,0,0,4.776,0L281.63,332c.47-.271.749-.612.749-.909s-.266-.621-.732-.887L252,313.3c-1.663-.958-3.455-3.308-3.455-5.437V287.34h1.583v20.538a5.7,5.7,0,0,0,2.661,4.062l29.651,16.9a2.661,2.661,0,0,1,1.526,2.257,2.723,2.723,0,0,1-1.539,2.284l-17.637,10.2A6.484,6.484,0,0,1,261.593,344.345Z" transform="translate(-222.25 -232.779)" fill="#37474f"/>
          <path id="패스_7469" data-name="패스 7469" d="M247.6,291.94,223.34,305.945l39.421,22.764L287.019,314.7Z" transform="translate(-221.098 -235.339)" fill="#4a95df"/>
          <path id="패스_7470" data-name="패스 7470" d="M247.6,291.94,223.34,305.945l39.421,22.764L287.019,314.7Z" transform="translate(-221.098 -235.339)" opacity="0.1"/>
          <path id="패스_7471" data-name="패스 7471" d="M218.388,213.677a5.268,5.268,0,0,1,2.337-5.49l17.832-10.369a2.673,2.673,0,0,1,4.1,1.849l2.107,8.635-2.1,1.215-2.1-8.049a1.428,1.428,0,0,0-2.217-.918l-15.965,9.34a3.468,3.468,0,0,0-1.526,3.548l1.774,7.641-2.138,1.233Z" transform="translate(-218.284 -182.719)" fill="#e0e0e0"/>
          <path id="패스_7472" data-name="패스 7472" d="M259.276,193.9c-.528,1.144-3.255,2.359-4.532,2.528a4.931,4.931,0,0,1-2.869-1.051l1.064-.625a1.508,1.508,0,0,0-.86-2.16l-1.02.59c-.829-.652-.971-1.8-2.169-2.594a14.724,14.724,0,0,0-1.61-.86c.115-1.295,2.364-4.133,3.007-4.435.741.488,1.623,1.051,2.124,1.33,0,0,6,1.455,6.945,3.468A8.925,8.925,0,0,1,259.276,193.9Z" transform="translate(-234.421 -175.986)" fill="#ffa8a7"/>
          <path id="패스_7473" data-name="패스 7473" d="M223.34,236.005,247.6,222v31.017L223.34,267.022Z" transform="translate(-221.098 -196.416)" fill="#4a95df"/>
          <path id="패스_7474" data-name="패스 7474" d="M223.34,236.005,247.6,222v31.017L223.34,267.022Z" transform="translate(-221.098 -196.416)" fill="#fff" opacity="0.2"/>
          <path id="패스_7475" data-name="패스 7475" d="M278,222v31.017l39.421,22.759,9.1-25.766Zm12.9,31.159a2.12,2.12,0,0,1-2.577-1.521l-5.22-16.223a2,2,0,1,1,3.778-1.215l5.22,16.218a2.124,2.124,0,0,1-1.184,2.741Zm11.264,6.093a2.12,2.12,0,0,1-2.572-1.521l-5.224-16.218a2,2,0,1,1,3.778-1.215l5.22,16.223a2.115,2.115,0,0,1-1.2,2.732Zm11.251,6.089a2.124,2.124,0,0,1-2.577-1.521L305.62,247.6a2,2,0,1,1,3.778-1.211l5.22,16.222a2.115,2.115,0,0,1-1.2,2.723Z" transform="translate(-251.517 -196.416)" fill="#4a95df"/>
          <path id="패스_7476" data-name="패스 7476" d="M278,222v31.017l39.421,22.759,9.1-25.766Zm12.9,31.159a2.12,2.12,0,0,1-2.577-1.521l-5.22-16.223a2,2,0,1,1,3.778-1.215l5.22,16.218a2.124,2.124,0,0,1-1.184,2.741Zm11.264,6.093a2.12,2.12,0,0,1-2.572-1.521l-5.224-16.218a2,2,0,1,1,3.778-1.215l5.22,16.223a2.115,2.115,0,0,1-1.2,2.732Zm11.251,6.089a2.124,2.124,0,0,1-2.577-1.521L305.62,247.6a2,2,0,1,1,3.778-1.211l5.22,16.222a2.115,2.115,0,0,1-1.2,2.723Z" transform="translate(-251.517 -196.416)" fill="#fff" opacity="0.55"/>
          <g id="freepik--Character--inject-1--inject-47" transform="translate(11.014)">
            <path id="패스_7477" data-name="패스 7477" d="M359.709,213.2c-.408-.958-2.133.04-3.934,1.113-1.659.985-4.878,2.874-5.14,2.55s-.2-1.774-.7-2.687-1.632-1.1-1.557-.266c.044.479-.115,2.1-.151,2.843a2.855,2.855,0,0,1-.82,2.24c-.687.5-14.564,3.867-14.564,3.867s-11.5-5.561-13.854-6.856-4.262-2.559-7.566-2.111c-4.222,1.934-2.413,5.818-.324,8.227,1.144,1.33,1.716.39,5.654,1.676,4.759,1.552,12.142,5.943,16.089,6.209,4.346-.816,15.619-5.029,16.732-5.322,1.33-.337,2.217-.146,3.291-.443a9.853,9.853,0,0,0,3.548-1.375,1.366,1.366,0,0,0,.661-.931c0-.2-.049-.4-.035-.6a6.93,6.93,0,0,0,.169-.985c-.04-.443-.55-.794-.563-1.224,0-.186.235-.718.164-.887-.151-.373-.337-.443-.519-.732-.1-.151-.381-.4-.222-.594s.758-.51,1.947-1.49S359.988,213.848,359.709,213.2Z" transform="translate(-279.709 -191.302)" fill="#9a4a4d"/>
            <path id="패스_7478" data-name="패스 7478" d="M299.259,321.741c-5.539,4.311-15.291,2.475-20.271-.887-4.479-3.011-9.708-9.863-9.708-9.863s-.381-3.654,1.495-4.191Z" transform="translate(-257.661 -243.609)" fill="#4a95df"/>
            <path id="패스_7479" data-name="패스 7479" d="M299.259,321.741c-5.539,4.311-15.291,2.475-20.271-.887-4.479-3.011-9.708-9.863-9.708-9.863s-.381-3.654,1.495-4.191Z" transform="translate(-257.661 -243.609)" opacity="0.5"/>
            <path id="패스_7480" data-name="패스 7480" d="M269.828,308.69a3.468,3.468,0,0,0-.408,1.5,32.652,32.652,0,0,0,6.949,5.881c6.364,4.1,10.781,4.435,10.781,4.435a52.554,52.554,0,0,1-10.377-5.468C272.813,312.375,270.937,310.53,269.828,308.69Z" transform="translate(-257.756 -244.661)" opacity="0.2"/>
            <path id="패스_7481" data-name="패스 7481" d="M249.4,303.048a5.276,5.276,0,0,1-4.754-1.543,4.753,4.753,0,0,1-.763-6.049c1.379-2.058,2.829-3,3.619-4.284s1.18-3.308,2.067-4.382a3.77,3.77,0,0,1,2.847-1.33,2.284,2.284,0,0,1,1.818.843l.443.514Z" transform="translate(-243.119 -231.733)" fill="#263238"/>
            <path id="패스_7482" data-name="패스 7482" d="M270.765,311.216s-4.736-5.073-6.852-7.242-3.158-2.661-2.639-5.118,4.147-4.346,4.147-4.346l4.528,5.273,5.153,6.382A5.972,5.972,0,0,0,270.765,311.216Z" transform="translate(-253.15 -236.77)" fill="#37474f"/>
            <path id="패스_7483" data-name="패스 7483" d="M255.358,299.881l-2.47.04s.266,2.878-.528,3.5c-1.18.931-2.177.741-4.151-.736-2.262-1.685-2.9-3.774-2.129-5.512,1.091-2.479,4.129-3.548,4.741-6.089s2.94-5.481,5.725-2.98c1.982,1.725,2.878,7.353,2.878,7.353Z" transform="translate(-244.594 -232.677)" fill="#37474f"/>
            <path id="패스_7484" data-name="패스 7484" d="M260.491,296.254h-.3a5.37,5.37,0,0,1-3.614-1.512l.408-.337-.2.169.2-.173a4.986,4.986,0,0,0,3.255,1.33c2.293.213,4.98-2.612,5.007-2.661l.386.364C265.521,293.562,262.975,296.254,260.491,296.254Z" transform="translate(-250.61 -235.968)" fill="#263238"/>
            <path id="패스_7485" data-name="패스 7485" d="M248.451,314.846c-.763,0-1.858-.093-2.381.679a6.821,6.821,0,0,0,2.12,2.661c1.978,1.477,3.158,1.588,4.337.656.794-.625.528-3.5.528-3.5C251.1,315.444,249.667,314.815,248.451,314.846Z" transform="translate(-244.761 -248.085)" fill="#263238"/>
            <path id="패스_7486" data-name="패스 7486" d="M261.631,314.219c-.514-.253-1.1-.257-1.614-.559a2.057,2.057,0,0,1-.665-.572c-.111-.142-.186-.275-.381-.288-.1,0-.24.04-.222.164.182,1.22,1.871,1.7,2.874,1.393a.071.071,0,0,0,.009-.138Z" transform="translate(-251.816 -246.948)" fill="#263238"/>
            <path id="패스_7487" data-name="패스 7487" d="M265.711,312.174c.124-.16.257-.244.319-.443a.1.1,0,0,0-.062-.106c-.577-.213-1.007.8-.967,1.588l-.31-.182a2.711,2.711,0,0,1-.6-.5,2.107,2.107,0,0,1-.408-.63c-.062-.186,0-.443-.1-.6a.2.2,0,0,0-.288,0c-.4.5.089,1.228.443,1.61a1.641,1.641,0,0,0,1.308.585.634.634,0,0,0,.532.554c.053,0,.142-.027.1-.1a2.421,2.421,0,0,1-.16-1.14A1.069,1.069,0,0,1,265.711,312.174Z" transform="translate(-254.26 -246.078)" fill="#263238"/>
            <path id="패스_7488" data-name="패스 7488" d="M270.165,314.154c.044-.058,0-.115-.062-.133-.488-.173-.794.67-.887.989-.1.443-.115,1.486.51,1.463.044,0,.142-.027.129-.089a3.8,3.8,0,0,1-.182-1.282,2.16,2.16,0,0,1,.492-.949Z" transform="translate(-257.614 -247.615)" fill="#263238"/>
            <path id="패스_7489" data-name="패스 7489" d="M272.547,316.539c.044-.058,0-.115-.067-.137-.483-.173-.789.674-.887.993-.1.421-.115,1.481.51,1.459.04,0,.137-.027.129-.089a3.681,3.681,0,0,1-.186-1.282,2.084,2.084,0,0,1,.5-.945Z" transform="translate(-258.936 -248.94)" fill="#263238"/>
            <path id="패스_7490" data-name="패스 7490" d="M274.935,318.924c.044-.058,0-.115-.062-.133-.488-.173-.794.67-.887.989-.1.443-.115,1.486.51,1.463.044,0,.142-.027.129-.089a3.8,3.8,0,0,1-.182-1.282A2.16,2.16,0,0,1,274.935,318.924Z" transform="translate(-260.269 -250.27)" fill="#263238"/>
            <path id="패스_7491" data-name="패스 7491" d="M277.345,321.313c.044-.058,0-.115-.066-.133-.483-.177-.789.67-.865.989-.1.421-.115,1.486.51,1.459.04,0,.137-.027.129-.089a3.787,3.787,0,0,1-.186-1.282A2.107,2.107,0,0,1,277.345,321.313Z" transform="translate(-261.619 -251.598)" fill="#263238"/>
            <path id="패스_7492" data-name="패스 7492" d="M279.745,323.7c.044-.058,0-.12-.062-.137-.488-.173-.794.67-.887.989-.1.443-.115,1.486.514,1.463.04,0,.137-.027.124-.089a3.8,3.8,0,0,1-.182-1.282A2.12,2.12,0,0,1,279.745,323.7Z" transform="translate(-262.946 -252.924)" fill="#263238"/>
            <path id="패스_7493" data-name="패스 7493" d="M307.491,295.6c-.443-1.9-4.107-6.164-7.677-9.158s-9.264-8.014-9.264-8.014h0L267.675,279.8a11.555,11.555,0,0,0-1.082,8.559c1.069,3.455,2.076,5.557,8.386,9.854a52.553,52.553,0,0,0,10.391,5.473c3.007,1.175,4.825,3.056,5.512,3.2a10.2,10.2,0,0,0,5.322-.142,3.861,3.861,0,0,0,2.386-5h0c.443.04.851.062,1.246.067h1.215a10.2,10.2,0,0,0,3.548-.537C307.127,300.342,308.125,298.356,307.491,295.6Z" transform="translate(-255.972 -227.821)" fill="#4a95df"/>
            <path id="패스_7494" data-name="패스 7494" d="M307.491,295.6c-.443-1.9-4.107-6.164-7.677-9.158s-9.264-8.014-9.264-8.014h0L267.675,279.8a11.555,11.555,0,0,0-1.082,8.559c1.069,3.455,2.076,5.557,8.386,9.854a52.553,52.553,0,0,0,10.391,5.473c3.007,1.175,4.825,3.056,5.512,3.2a10.2,10.2,0,0,0,5.322-.142,3.861,3.861,0,0,0,2.386-5h0c.443.04.851.062,1.246.067h1.215a10.2,10.2,0,0,0,3.548-.537C307.127,300.342,308.125,298.356,307.491,295.6Z" transform="translate(-255.972 -227.821)" opacity="0.5"/>
            <path id="패스_7495" data-name="패스 7495" d="M321.976,287.333a3.741,3.741,0,0,1-2.186,1.6c-.887.244-2,.266-2.35,1.1-.372.887.616,1.774,1.539,2.1s2.036.51,2.5,1.37a6.9,6.9,0,0,1,.346,1.007,2.661,2.661,0,0,0,4.688.674,10.233,10.233,0,0,1,.714-1.055c.887-.909,2.377-.63,3.548-.16a6.064,6.064,0,0,0,1.029.333,42.9,42.9,0,0,0-3.517-3.331c-1.53-1.286-3.441-2.936-5.135-4.4a2.311,2.311,0,0,0-1.175.763Z" transform="translate(-284.435 -232.351)" opacity="0.05"/>
            <path id="패스_7496" data-name="패스 7496" d="M283.686,299.1a3.358,3.358,0,0,0,2.945,2.958,6.572,6.572,0,0,0,4.293-1.131,4.564,4.564,0,0,0,1.37-1.162,2,2,0,0,0,.359-1.707,2.453,2.453,0,0,0-1.1-1.264,6.085,6.085,0,0,0-2.435-.914,16.473,16.473,0,0,1-1.69-.231c-1.579-.408-2.878-1.18-4.528-1.33-1.064-.115-3.277.443-2.217,2.067.67,1.024,2.63.8,2.94,1.991A3.207,3.207,0,0,1,283.686,299.1Z" transform="translate(-263.871 -236.657)" opacity="0.15"/>
            <path id="패스_7497" data-name="패스 7497" d="M299.842,318.263c.2.572.949.705,1.557.723,2.071.053,5.073-1.055,6.555.993.359.492.572,1.149,1.135,1.384a1.286,1.286,0,0,0,1.33-.337,2.723,2.723,0,0,0,.661-1.291,4.776,4.776,0,0,0-.1-2.936,3.153,3.153,0,0,0-2.133-1.934,4.437,4.437,0,0,1-1.774-.443c-1.091-.887.089-2.262-1.233-2.993-1.663-.927-6.16.106-5.765,2.6a2.155,2.155,0,0,0,.1.412c.164.47.541.887.55,1.37C300.773,316.7,299.545,317.407,299.842,318.263Z" transform="translate(-274.661 -245.999)" opacity="0.05"/>
            <path id="패스_7498" data-name="패스 7498" d="M325.2,332.526a4.129,4.129,0,0,0-3.1.639c-.545.6-.386,1.455-.683,2.16a2.505,2.505,0,0,1-1.623,1.33,6.58,6.58,0,0,1-2.146.169,2.018,2.018,0,0,0-1.565.359,1.228,1.228,0,0,0-.155,1.33,14.507,14.507,0,0,0,8.608-2.044,3.65,3.65,0,0,0,1.876-3.1A2.3,2.3,0,0,0,325.2,332.526Z" transform="translate(-283.563 -257.884)" opacity="0.05"/>
            <path id="패스_7499" data-name="패스 7499" d="M269.787,292.742c1.055-.7,1.1-2.217.887-3.486s-.572-2.625.062-3.725c.581-1,1.9-1.619,1.978-2.776a2.249,2.249,0,0,0-1.1-1.845l-4.519.266a11.554,11.554,0,0,0-1.082,8.559,16.258,16.258,0,0,0,1.206,3.051c.106.044.213.089.324.124A2.7,2.7,0,0,0,269.787,292.742Z" transform="translate(-255.649 -229.201)" opacity="0.05"/>
            <path id="패스_7500" data-name="패스 7500" d="M305.809,279.941a13.163,13.163,0,0,0-7.49.962c-.537.244-1.2.142-1.557.687-1.774,2.71,2.506,4.825,4.612,4.741a2.4,2.4,0,0,0,1.113-.271c.887-.5,1.144-1.774,2.1-2.1.6-.191,1.277.084,1.872-.129a2.492,2.492,0,0,0,.914-3.113A2.217,2.217,0,0,0,305.809,279.941Z" transform="translate(-272.738 -228.564)" opacity="0.1"/>
            <path id="패스_7501" data-name="패스 7501" d="M350.615,311.768a1.342,1.342,0,0,0-.058-.284,13.774,13.774,0,0,0-2.958-4.515,2.967,2.967,0,0,1-1.273.443,3.472,3.472,0,0,0-1.619.284,1.441,1.441,0,0,0-.395,2.018c.585.772,1.938.927,2.1,1.876.049.288-.035.585,0,.887a1.33,1.33,0,0,0,.506.741,2.155,2.155,0,0,0,2.484.173,4.311,4.311,0,0,0,1.211-1.623Z" transform="translate(-299.295 -243.704)" opacity="0.05"/>
            <path id="패스_7502" data-name="패스 7502" d="M282.731,318.741a2.661,2.661,0,0,0,1.388-.443,2.415,2.415,0,0,0,.443-3,1.978,1.978,0,0,0-1.149-1.073c-.523-.151-1.087.022-1.614-.089a1.583,1.583,0,0,1-1.166-1.029c-.151-.443-.1-.936-.271-1.366a2.04,2.04,0,0,0-1.33-1.082,3.809,3.809,0,0,0-3.393.444,2.455,2.455,0,0,0-.914,2.364,3.45,3.45,0,0,0,1.118,1.521C277.844,316.843,279.693,319.029,282.731,318.741Z" transform="translate(-260.676 -245.647)" opacity="0.05"/>
            <path id="패스_7503" data-name="패스 7503" d="M341.811,320.56a2.654,2.654,0,0,0-.035-.271,4.248,4.248,0,0,0-2.661-2.7c-.887-.408-1.987-.887-2.115-1.871-.035-.262,0-.532-.035-.794a1.774,1.774,0,0,0-1.171-1.206c-1.2-.492-2.918-.532-3.366.838-.741,2.262,1.259,3.1,2.044,4.794.208.443.386.931.612,1.379a5.312,5.312,0,0,0,.279.488h0c.443.04.851.062,1.246.067h1.215a10.2,10.2,0,0,0,3.548-.537Q341.6,320.654,341.811,320.56Z" transform="translate(-292.731 -247.285)" opacity="0.05"/>
            <path id="패스_7504" data-name="패스 7504" d="M287.486,335a21.1,21.1,0,0,0,7.335,2.923,3.846,3.846,0,0,0,2.031-1.157,1.409,1.409,0,0,0-.293-2.076c-.8-.381-1.654.355-2.5.612a2.408,2.408,0,0,1-2.24-.466,9.218,9.218,0,0,1-.922-1.069c-.914-1.047-5.1-2.51-5.916-.749A22.541,22.541,0,0,0,287.486,335Z" transform="translate(-266.416 -257.744)" opacity="0.05"/>
            <path id="패스_7505" data-name="패스 7505" d="M323.922,309.82c-.395,0-.82-.027-1.246-.066-2.244-4.785-12.533-12.857-13.185-13.393l-.031-.031c.022-.031.049-.049.075-.08l.475-.683h0a18.268,18.268,0,0,1,1.619-2.736,17.738,17.738,0,0,1-1.087,3.18c1.512,1.353,7.193,6.147,8.892,7.756A16.448,16.448,0,0,1,323.922,309.82Z" transform="translate(-280.039 -235.835)" opacity="0.2"/>
            <path id="패스_7506" data-name="패스 7506" d="M288.884,215.25a13.854,13.854,0,0,1,4.5,5.716c1.561,3.406,1.477,6.266-1.455,10.138a59.847,59.847,0,0,1-1.521,6.142s1.357,5.583,1.33,6.027c0,0-1.579,4.594-9.588,5.246-7.6.616-11-.807-13.792-3.2a47.828,47.828,0,0,1,5.127-9.7c-.266-5.2-1.987-11.916-1.49-13.814.616-2.359,4.563-4.936,5.539-5.029l6.763-1.2Z" transform="translate(-257.166 -192.66)" fill="#37474f"/>
            <path id="패스_7507" data-name="패스 7507" d="M272.109,250.438c-.51-2.293,2.1-6.8,2.1-6.8l2.337,2.084a17.768,17.768,0,0,1-1.361-9.136s11.819,3.694,16.054,4.031a20.612,20.612,0,0,0,.661-3.042c.04-.049.071-.1.106-.146l-2.661-2.373-11.375-6.909-5.322-1.268a4.4,4.4,0,0,0-.71,1.4c-.5,1.9,1.224,8.612,1.49,13.814a47.828,47.828,0,0,0-5.127,9.7c2.794,2.39,6.209,3.814,13.792,3.2C282.119,254.992,272.6,252.726,272.109,250.438Z" transform="translate(-257.133 -199.132)" fill="#263238"/>
            <path id="패스_7508" data-name="패스 7508" d="M294.6,184.7l-.887.053a10.2,10.2,0,0,1-10.79-9.579h0a10.2,10.2,0,0,1,9.6-10.794l.887-.049a10.2,10.2,0,0,1,10.768,9.6h0A10.2,10.2,0,0,1,294.6,184.7Z" transform="translate(-265.263 -164.312)" fill="#263238"/>
            <path id="패스_7509" data-name="패스 7509" d="M269.516,198.68h0a7.22,7.22,0,0,0,6.794-7.619l-.621-10.861h0a7.22,7.22,0,0,0-6.794,7.619Z" transform="translate(-257.457 -173.154)" fill="#263238"/>
            <path id="패스_7510" data-name="패스 7510" d="M282.139,176.825a1.612,1.612,0,0,1-2.244-2.315Z" transform="translate(-263.313 -169.987)" fill="#263238"/>
            <path id="패스_7511" data-name="패스 7511" d="M302.664,175.14c1.113.745,3.743,3.8,3.268,9.872-.4,5.144-2.142,6.328-3,6.652s-2.466,0-4.022-.337l-.129,2.337a5.591,5.591,0,0,1,1.353,2.217c.146,1.419-2.421,1.548-4.47.718a7.7,7.7,0,0,1-3.388-2.683l.377-7.1a2.529,2.529,0,0,1-2.71.044,2.981,2.981,0,0,1-.643-4.435c1.064-.985,3.224-.523,3.548.914,0,0,2.107.661,5.548-.993S302.332,177.127,302.664,175.14Z" transform="translate(-268.418 -170.338)" fill="#b16668"/>
            <path id="패스_7512" data-name="패스 7512" d="M310.641,188.6l-1.388.763a.829.829,0,0,1,.328-1.1.767.767,0,0,1,1.06.341Z" transform="translate(-279.872 -177.588)" fill="#263238"/>
            <path id="패스_7513" data-name="패스 7513" d="M314.688,203.64l1.477.563a.776.776,0,0,1-1.007.488A.829.829,0,0,1,314.688,203.64Z" transform="translate(-282.921 -186.199)" fill="#9a4a4d"/>
            <path id="패스_7514" data-name="패스 7514" d="M324.625,192.479a.652.652,0,1,1-.647-.679A.665.665,0,0,1,324.625,192.479Z" transform="translate(-287.753 -179.609)" fill="#263238"/>
            <path id="패스_7515" data-name="패스 7515" d="M312.988,193.143a.656.656,0,0,1-.652.665.674.674,0,1,1,.652-.665Z" transform="translate(-281.252 -179.977)" fill="#263238"/>
            <path id="패스_7516" data-name="패스 7516" d="M319.271,192.12l-.111,3.907,2.089-.523Z" transform="translate(-285.437 -179.788)" fill="#9a4a4d"/>
            <path id="패스_7517" data-name="패스 7517" d="M306.315,209.025c-1.3-.222-3.885-1.162-4.435-2.075a2.468,2.468,0,0,0,.8,1.468c.8.865,3.548,1.61,3.548,1.61Z" transform="translate(-275.821 -188.041)" fill="#9a4a4d"/>
            <path id="패스_7518" data-name="패스 7518" d="M317.733,173.288a13.821,13.821,0,0,1-.643,7.654s4.954.581,5.433-3.162a7.89,7.89,0,0,0-2.169-5.06Z" transform="translate(-284.285 -168.991)" fill="#263238"/>
            <path id="패스_7519" data-name="패스 7519" d="M281.717,218.7c-3.65.51-5.934,2.621-5.841,5.521s3.273,4.634,6.59,6.28c4.311,2.142,13.176,5.167,15.6,5.291s12.342-14.245,12.342-14.245l-5.375-2.1L296.92,228.1l-10.75-4.834A16.768,16.768,0,0,0,281.717,218.7Z" transform="translate(-261.348 -194.58)" fill="#b16668"/>
            <path id="패스_7520" data-name="패스 7520" d="M355.778,193.895a1.388,1.388,0,0,0-1.406.133,4.435,4.435,0,0,0-1.991,3.455,1.41,1.41,0,0,0,.559,1.273c.12.071.887.5,1.016.563a1.41,1.41,0,0,0,1.41-.137,4.435,4.435,0,0,0,1.991-3.455,1.4,1.4,0,0,0-.572-1.277C356.669,194.378,355.893,193.957,355.778,193.895Z" transform="translate(-303.921 -180.702)" fill="#455a64"/>
            <path id="패스_7521" data-name="패스 7521" d="M354.62,198.714c0,1.273.887,1.774,2,1.153a4.435,4.435,0,0,0,1.991-3.455c0-1.268-.887-1.774-1.991-1.149A4.4,4.4,0,0,0,354.62,198.714Z" transform="translate(-305.172 -181.388)" fill="#37474f"/>
            <path id="패스_7522" data-name="패스 7522" d="M369.837,200.312l-11.482-4.173h0a.541.541,0,0,0-.235-.049,1.362,1.362,0,0,0-.643.2,3.938,3.938,0,0,0-1.747,3.029c0,.235.04.727.377.887l10.267,6.138Z" transform="translate(-305.789 -181.997)" fill="#4a95df"/>
            <path id="패스_7523" data-name="패스 7523" d="M369.837,200.312l-11.482-4.173h0a.541.541,0,0,0-.235-.049,1.362,1.362,0,0,0-.643.2,3.938,3.938,0,0,0-1.747,3.029c0,.235.04.727.377.887l10.267,6.138Z" transform="translate(-305.789 -181.997)" opacity="0.5"/>
            <path id="패스_7524" data-name="패스 7524" d="M378.8,202.167a2.084,2.084,0,0,0-2.107.2,6.59,6.59,0,0,0-2.985,5.167,2.118,2.118,0,0,0,.843,1.911c.177.106,1.33.741,1.517.838a2.094,2.094,0,0,0,2.107-.2,6.6,6.6,0,0,0,2.985-5.171A2.092,2.092,0,0,0,380.3,203C380.136,202.895,378.97,202.265,378.8,202.167Z" transform="translate(-315.796 -185.267)" fill="#455a64"/>
            <path id="패스_7525" data-name="패스 7525" d="M377.06,209.391c0,1.9,1.33,2.661,2.98,1.725a6.6,6.6,0,0,0,2.985-5.171c0-1.9-1.33-2.661-2.985-1.721A6.6,6.6,0,0,0,377.06,209.391Z" transform="translate(-317.66 -186.3)" fill="#37474f"/>
            <path id="패스_7526" data-name="패스 7526" d="M379.628,211.705c-.829,0-.918-.976-.918-1.4a5.885,5.885,0,0,1,2.617-4.532,2.045,2.045,0,0,1,.967-.306c.825,0,.918.976.918,1.393a5.889,5.889,0,0,1-2.617,4.532A2,2,0,0,1,379.628,211.705Z" transform="translate(-318.578 -187.217)" fill="#263238"/>
            <path id="패스_7527" data-name="패스 7527" d="M382.215,205.888a3.013,3.013,0,0,0-.031-.408,2.142,2.142,0,0,0-.887.3,5.885,5.885,0,0,0-2.616,4.532,3.012,3.012,0,0,0,.031.408,2.08,2.08,0,0,0,.887-.3A5.872,5.872,0,0,0,382.215,205.888Z" transform="translate(-318.562 -187.223)" fill="#4a95df"/>
            <path id="패스_7528" data-name="패스 7528" d="M382.215,205.888a3.013,3.013,0,0,0-.031-.408,2.142,2.142,0,0,0-.887.3,5.885,5.885,0,0,0-2.616,4.532,3.012,3.012,0,0,0,.031.408,2.08,2.08,0,0,0,.887-.3A5.872,5.872,0,0,0,382.215,205.888Z" transform="translate(-318.562 -187.223)" opacity="0.3"/>
            <path id="패스_7529" data-name="패스 7529" d="M381.366,207.305c.559-.679,1.282-.887,1.4-.652a5.1,5.1,0,0,1-2.6,4.133,8.324,8.324,0,0,0,1.9-2.492C382.422,207.478,382.089,206.813,381.366,207.305Z" transform="translate(-319.385 -187.824)" fill="#e0e0e0"/>
            <path id="패스_7530" data-name="패스 7530" d="M344.563,200.367a1.388,1.388,0,0,0-1.406.137,4.4,4.4,0,0,0-2,3.45,1.415,1.415,0,0,0,.563,1.277c.12.071.887.492,1.011.559a1.4,1.4,0,0,0,1.41-.137,4.408,4.408,0,0,0,2-3.45,1.415,1.415,0,0,0-.572-1.282Z" transform="translate(-297.677 -184.305)" fill="#455a64"/>
            <path id="패스_7531" data-name="패스 7531" d="M343.41,205.191c0,1.268.887,1.774,1.991,1.149a4.408,4.408,0,0,0,2-3.45c0-1.273-.887-1.774-2-1.153A4.4,4.4,0,0,0,343.41,205.191Z" transform="translate(-298.933 -184.992)" fill="#37474f"/>
            <path id="패스_7532" data-name="패스 7532" d="M356.649,207.94l-9.446-5.322h-.031a.519.519,0,0,0-.231-.049,1.331,1.331,0,0,0-.647.208,3.934,3.934,0,0,0-1.747,3.029,1.1,1.1,0,0,0,.284.825l8.342,7.34Z" transform="translate(-299.564 -185.603)" fill="#4a95df"/>
            <path id="패스_7533" data-name="패스 7533" d="M356.649,207.94l-9.446-5.322h-.031a.519.519,0,0,0-.231-.049,1.331,1.331,0,0,0-.647.208,3.934,3.934,0,0,0-1.747,3.029,1.1,1.1,0,0,0,.284.825l8.342,7.34Z" transform="translate(-299.564 -185.603)" opacity="0.5"/>
            <path id="패스_7534" data-name="패스 7534" d="M367.118,209.684a1.774,1.774,0,0,1-.377-1.2,4.67,4.67,0,0,1,.82-2.452l-3.991,2.293a1.774,1.774,0,0,1,.59-.177l3.064,1.721Z" transform="translate(-310.153 -187.529)" fill="#263238"/>
            <path id="패스_7535" data-name="패스 7535" d="M363.1,211.23a2.086,2.086,0,0,0-2.107.208A6.586,6.586,0,0,0,358,216.605a2.1,2.1,0,0,0,.843,1.907c.177.106,1.33.741,1.517.838a2.084,2.084,0,0,0,2.107-.2,6.59,6.59,0,0,0,2.985-5.167,2.092,2.092,0,0,0-.856-1.916C364.426,211.957,363.264,211.328,363.1,211.23Z" transform="translate(-307.053 -190.312)" fill="#455a64"/>
            <path id="패스_7536" data-name="패스 7536" d="M361.36,218.459c0,1.9,1.33,2.661,2.98,1.721a6.59,6.59,0,0,0,2.985-5.167c0-1.9-1.33-2.661-2.985-1.725A6.608,6.608,0,0,0,361.36,218.459Z" transform="translate(-308.923 -191.345)" fill="#37474f"/>
            <path id="패스_7537" data-name="패스 7537" d="M363.928,220.765c-.829,0-.918-.976-.918-1.393a5.872,5.872,0,0,1,2.617-4.532,1.991,1.991,0,0,1,.967-.31c.825,0,.918.976.918,1.4a5.9,5.9,0,0,1-2.617,4.532,2.045,2.045,0,0,1-.967.306Z" transform="translate(-309.841 -192.259)" fill="#263238"/>
            <path id="패스_7538" data-name="패스 7538" d="M366.565,214.958a3.012,3.012,0,0,0-.031-.408,2.08,2.08,0,0,0-.887.3,5.872,5.872,0,0,0-2.617,4.532,3.012,3.012,0,0,0,.031.408,2.142,2.142,0,0,0,.887-.3,5.885,5.885,0,0,0,2.617-4.532Z" transform="translate(-309.852 -192.27)" fill="#4a95df"/>
            <path id="패스_7539" data-name="패스 7539" d="M366.565,214.958a3.012,3.012,0,0,0-.031-.408,2.08,2.08,0,0,0-.887.3,5.872,5.872,0,0,0-2.617,4.532,3.012,3.012,0,0,0,.031.408,2.142,2.142,0,0,0,.887-.3,5.885,5.885,0,0,0,2.617-4.532Z" transform="translate(-309.852 -192.27)" opacity="0.3"/>
            <path id="패스_7540" data-name="패스 7540" d="M365.666,216.365c.559-.679,1.282-.887,1.4-.652a5.114,5.114,0,0,1-2.6,4.138,8.307,8.307,0,0,0,1.9-2.5C366.722,216.543,366.389,215.873,365.666,216.365Z" transform="translate(-310.648 -192.866)" fill="#e0e0e0"/>
            <path id="패스_7541" data-name="패스 7541" d="M358.58,200.79l3.978,2.319-3.978,2.3-4-2.306Z" transform="translate(-305.149 -184.613)" fill="#37474f"/>
            <path id="패스_7542" data-name="패스 7542" d="M341.62,210.462c1.734-1.8,1.033-3.907,1.743-5.406s3.7-2.754,4.98-2.452,5.215,2.719,4.55,3.739a2.725,2.725,0,0,0-.483.124l-.443-.235a4.914,4.914,0,0,0-2.763,1.8c-.993,1.446-1,1.725-1.02,2.257s.7,1.33.7,1.33c-.532.51-1.463.443-2.288,1.486-.887,1.091-1.415,1.876-1.415,1.876Z" transform="translate(-297.937 -185.597)" fill="#b16668"/>
          </g>
          <path id="패스_7543" data-name="패스 7543" d="M223.34,253.58V284.6l39.421,22.759,9.1-25.762Zm12.9,31.163a2.12,2.12,0,0,1-2.572-1.521L228.444,267a2,2,0,1,1,3.774-1.215l5.224,16.223a2.12,2.12,0,0,1-1.206,2.736Zm11.251,6.089a2.124,2.124,0,0,1-2.577-1.521l-5.22-16.218a2,2,0,1,1,3.778-1.22l5.22,16.222a2.115,2.115,0,0,1-1.2,2.736Zm11.251,6.093a2.129,2.129,0,0,1-2.577-1.526l-5.22-16.218a2,2,0,1,1,3.778-1.215l5.22,16.218a2.129,2.129,0,0,1-1.2,2.741Z" transform="translate(-221.098 -213.991)" fill="#4a95df"/>
          <path id="패스_7544" data-name="패스 7544" d="M223.34,253.58V284.6l39.421,22.759,9.1-25.762Zm12.9,31.163a2.12,2.12,0,0,1-2.572-1.521L228.444,267a2,2,0,1,1,3.774-1.215l5.224,16.223a2.12,2.12,0,0,1-1.206,2.736Zm11.251,6.089a2.124,2.124,0,0,1-2.577-1.521l-5.22-16.218a2,2,0,1,1,3.778-1.22l5.22,16.222a2.115,2.115,0,0,1-1.2,2.736Zm11.251,6.093a2.129,2.129,0,0,1-2.577-1.526l-5.22-16.218a2,2,0,1,1,3.778-1.215l5.22,16.218a2.129,2.129,0,0,1-1.2,2.741Z" transform="translate(-221.098 -213.991)" fill="#fff" opacity="0.65"/>
          <path id="패스_7545" data-name="패스 7545" d="M321.33,299.181l24.258-14-9.1,25.762L312.23,324.947Z" transform="translate(-270.567 -231.577)" fill="#4a95df"/>
          <path id="패스_7546" data-name="패스 7546" d="M321.33,299.181l24.258-14-9.1,25.762L312.23,324.947Z" transform="translate(-270.567 -231.577)" fill="#fff" opacity="0.3"/>
        </g>
        <g id="freepik--front-arm--inject-1--inject-47" transform="translate(40.734 24.969)">
          <path id="패스_7547" data-name="패스 7547" d="M172.472,126.88c-1.934,0-6.058,3.064-5.473,8.533.306,2.856,6.847,15.118,8.524,17.886s15.207,11.145,16.409,11.934,1.33,1.947,2.169,2.594l1.02-.59a1.517,1.517,0,0,1,.86,2.164l-1.073.625a4.677,4.677,0,0,0,2.874,1.051c1.273-.173,3.991-1.388,4.528-2.528a8.837,8.837,0,0,0,.08-3.805c-.94-2.013-6.945-3.468-6.945-3.468l-12.688-12.169Z" transform="translate(-166.544 -126.844)" fill="#ffa8a7"/>
          <path id="패스_7548" data-name="패스 7548" d="M173.017,126.834a6.174,6.174,0,0,0-5.322,2.036c-1.854,2.275-2.08,5.725-1.02,8.8s6.311,13.7,7.269,15.579,11.491,8.071,11.491,8.071,1.33-4.031,4.355-5.025l-7.149-7.45L175.257,133A9.731,9.731,0,0,0,173.017,126.834Z" transform="translate(-166.043 -126.798)" fill="#263238"/>
        </g>
      </g>
    </g>
  </g>
</svg>
