<svg xmlns="http://www.w3.org/2000/svg" width="18" height="24" viewBox="0 0 18 24">
  <path id="패스_1461" data-name="패스 1461" d="M1101.364,2135.714h-6.545v-.857a.819.819,0,1,0-1.636,0v.857h-6.545a1.682,1.682,0,0,0-1.636,1.715v1.714a1.682,1.682,0,0,0,1.636,1.714v15.429a1.682,1.682,0,0,0,1.636,1.714h11.455a1.682,1.682,0,0,0,1.636-1.714v-15.429a1.682,1.682,0,0,0,1.636-1.714v-1.714A1.682,1.682,0,0,0,1101.364,2135.714Zm-1.636,19.715a.792.792,0,0,1-.818.857h-9.818a.792.792,0,0,1-.818-.857v-14.572h1.636v12.857a.819.819,0,1,0,1.636,0v-12.857h1.636v12.857a.819.819,0,1,0,1.636,0v-12.857h1.636v12.857a.819.819,0,1,0,1.636,0v-12.857h1.636Zm1.636-16.715a.4.4,0,0,1-.409.429h-13.909a.4.4,0,0,1-.409-.429v-.857a.4.4,0,0,1,.409-.428h13.909a.4.4,0,0,1,.409.428Z" transform="translate(-1085 -2134)" fill="#414141"/>
</svg>
