<svg xmlns="http://www.w3.org/2000/svg" width="127.457" height="62" viewBox="0 0 127.457 62">
  <g id="그룹_2281" data-name="그룹 2281" transform="translate(-313.142 -252.296)">
    <path id="패스_4227" data-name="패스 4227" d="M360.22,340.738h-4l1.745-6.232h.488Zm-1.138-8.073h-2.425l-4.326,14.5h1.393a.891.891,0,0,0,.9-.7l1.087-3.911h5.021l1.3,4.609h2.032L360,333.394a.926.926,0,0,0-.92-.729" transform="translate(-16.042 -32.984)" fill="#00b5ef"/>
    <path id="패스_4228" data-name="패스 4228" d="M380.39,334.136a.477.477,0,0,0,.521.528H384.3v12.567h1.4a.488.488,0,0,0,.538-.544V334.664h3.423a.478.478,0,0,0,.522-.528v-1.312h-9.79Z" transform="translate(-27.522 -33.048)" fill="#00b5ef"/>
    <path id="패스_4229" data-name="패스 4229" d="M417.984,339.752c0,3.676-1.321,5.542-3.928,5.542-2.629,0-3.962-1.866-3.962-5.542s1.333-5.542,3.962-5.542c2.607,0,3.928,1.864,3.928,5.542m-3.928-7.4c-3.847,0-5.881,2.559-5.881,7.4s2.034,7.4,5.881,7.4c2.675,0,5.863-1.284,5.863-7.4s-3.188-7.4-5.863-7.4" transform="translate(-38.903 -32.857)" fill="#00b5ef"/>
    <path id="패스_4230" data-name="패스 4230" d="M449.563,333.655l-2.867,8.566-.089.311-.093-.32-3.2-8.864a.922.922,0,0,0-.884-.685h-2.055v14.5h1.382a.491.491,0,0,0,.539-.547V335.4l.194.625,3.321,9.16.03.086h.853a.957.957,0,0,0,.97-.691l2.9-8.563.178-.588v11.736h1.414a.487.487,0,0,0,.521-.547V332.664h-1.8a1.218,1.218,0,0,0-1.306.991" transform="translate(-52.086 -32.984)" fill="#00b5ef"/>
    <path id="패스_4231" data-name="패스 4231" d="M482.991,332.664a1.188,1.188,0,0,0-1.265.843l-2.864,5.847-3.265-6.616-.039-.073h-2.171l4.5,8.877v5.625h1.482c.183,0,.488-.071.488-.546v-3.969a3.885,3.885,0,0,1,.458-1.963l4.024-8.024Z" transform="translate(-65.592 -32.984)" fill="#00b5ef"/>
    <path id="패스_4232" data-name="패스 4232" d="M325.623,272.36c5.728,0,7.747,5.876,7.747,10.857s-2.019,10.879-7.747,10.879-7.748-5.883-7.748-10.879,2.017-10.857,7.748-10.857m.115,26.312c6.365,0,7.913-4.6,7.913-4.6v2.5a2.04,2.04,0,0,0,2.207,2.1,2,2,0,0,0,2.207-2.1V269.563a2.035,2.035,0,0,0-2.207-2.208,2.011,2.011,0,0,0-2.207,2.208v1.87s-1.974-4.078-7.913-4.078c-8.073,0-12.6,7.542-12.6,15.656s4.522,15.66,12.6,15.66" transform="translate(0 -6.08)" fill="#00b5ef"/>
    <path id="패스_4233" data-name="패스 4233" d="M359.861,265.645h3.4v24.844a2.385,2.385,0,0,0,4.737,0V265.645h3.414c1.556,0,2.365-.8,2.365-2.188s-.809-2.178-2.365-2.178H368v-6.6c0-1.067-.215-2.386-2.368-2.386a2.128,2.128,0,0,0-2.369,2.386v6.6h-3.4c-1.57,0-2.367.792-2.367,2.178s.8,2.188,2.367,2.188" transform="translate(-18.166 0)" fill="#00b5ef"/>
    <path id="패스_4234" data-name="패스 4234" d="M394.042,272.042c5.8,0,7.848,5.984,7.848,11.06,0,5.1-2.043,11.077-7.848,11.077s-7.862-5.98-7.862-11.077c0-5.076,2.048-11.06,7.862-11.06m0,26.631c8.069,0,12.6-7.535,12.6-15.66s-4.526-15.654-12.6-15.654-12.6,7.541-12.6,15.654,4.532,15.66,12.6,15.66" transform="translate(-28.007 -6.081)" fill="#00b5ef"/>
    <path id="패스_4235" data-name="패스 4235" d="M506.683,292.4c-6.082,0-7.749-3.023-8.024-3.458h7.529a2,2,0,0,0,2.121-2.264,2.053,2.053,0,0,0-2.121-2.271h-9.217v-1.59h9.278a2.044,2.044,0,0,0,2.258-2.123,2.1,2.1,0,0,0-2.258-2.148h-9.278v-1.4h8.13a1.91,1.91,0,0,0,2.11-1.979,1.946,1.946,0,0,0-2.11-1.971h-8.13v-1.476h10.147a1.986,1.986,0,0,0,2.11-2.261,2.048,2.048,0,0,0-2.11-2.274h-5.27s2.257-2.277.686-3.689a1.954,1.954,0,0,0-2.879.251l-3.105,3.439h-3.467l-3.111-3.439a1.948,1.948,0,0,0-2.873-.251c-1.57,1.412.69,3.689.69,3.689h-5.27a2.051,2.051,0,0,0-2.115,2.274,1.989,1.989,0,0,0,2.115,2.261h10.143V273.2h-8.129a1.948,1.948,0,0,0-2.112,1.971,1.911,1.911,0,0,0,2.112,1.979h8.129v1.4h-9.275a2.1,2.1,0,0,0-2.253,2.148,2.041,2.041,0,0,0,2.253,2.123h9.275v1.59h-9.217a2.05,2.05,0,0,0-2.118,2.271,1.993,1.993,0,0,0,2.118,2.264h7.52c-.266.435-1.931,3.458-8.019,3.458-2.542,0-2.683,1.735-2.482,2.832a2.165,2.165,0,0,0,2.157,1.615s8.006.561,12.2-5.386c4.2,5.947,12.195,5.386,12.195,5.386a2.148,2.148,0,0,0,2.151-1.615c.2-1.1.063-2.832-2.482-2.832" transform="translate(-68.631 -4.3)" fill="#00b5ef"/>
    <path id="패스_4236" data-name="패스 4236" d="M456.769,274.352c0-4.233-4.064-6.883-7.792-6.883-3.138,0-5.844,1.313-7,3.19a6.062,6.062,0,0,0-5.514-3.19,6.278,6.278,0,0,0-4.913,2.233c-.013-1.7-.651-2.344-1.933-2.344-1.493,0-2.114.685-2.114,2.469l0,26.742a2.114,2.114,0,0,0,2.265,2.1h.013a2.041,2.041,0,0,0,2.257-2.1V276.377c0-.736.261-3.39,3.939-3.39,3.477,0,3.9,2.138,3.9,3.39v20.192a2.07,2.07,0,0,0,2.27,2.1,2.014,2.014,0,0,0,2.255-2.1V276.377c0-1.591.928-3.39,3.913-3.39,3.6,0,3.928,2.138,3.928,3.39v20.192a2.037,2.037,0,0,0,2.272,2.1,1.989,1.989,0,0,0,2.263-2.1Z" transform="translate(-46.925 -6.081)" fill="#00b5ef"/>
  </g>
</svg>
