<svg xmlns="http://www.w3.org/2000/svg" width="65" height="31.619" viewBox="0 0 65 31.619">
  <g id="그룹_2281" data-name="그룹 2281" transform="translate(-313.142 -252.296)">
    <path id="패스_4227" data-name="패스 4227" d="M356.32,336.747H354.3l.883-3.151h.247Zm-.576-4.082h-1.226L352.331,340h.7a.451.451,0,0,0,.456-.353l.55-1.978h2.539l.656,2.33h1.028l-2.054-6.965a.468.468,0,0,0-.465-.368" transform="translate(-27.375 -56.14)" fill="#fff"/>
    <path id="패스_4228" data-name="패스 4228" d="M380.39,333.488a.241.241,0,0,0,.263.267h1.713v6.355h.706a.247.247,0,0,0,.272-.275v-6.079h1.731a.242.242,0,0,0,.264-.267v-.664h-4.95Z" transform="translate(-46.975 -56.252)" fill="#fff"/>
    <path id="패스_4229" data-name="패스 4229" d="M413.135,336.093c0,1.859-.668,2.8-1.986,2.8s-2-.944-2-2.8.674-2.8,2-2.8,1.986.943,1.986,2.8m-1.986-3.743c-1.945,0-2.973,1.294-2.973,3.743s1.028,3.742,2.973,3.742c1.353,0,2.965-.649,2.965-3.742s-1.612-3.743-2.965-3.743" transform="translate(-66.383 -55.92)" fill="#fff"/>
    <path id="패스_4230" data-name="패스 4230" d="M445.019,333.165l-1.45,4.331-.045.157-.047-.162-1.62-4.482a.466.466,0,0,0-.447-.346h-1.039V340h.7a.248.248,0,0,0,.272-.276v-5.673l.1.316L443.12,339l.015.043h.431a.484.484,0,0,0,.49-.349l1.465-4.33.09-.3V340h.715a.246.246,0,0,0,.263-.276v-7.058h-.911a.616.616,0,0,0-.66.5" transform="translate(-88.873 -56.14)" fill="#fff"/>
    <path id="패스_4231" data-name="패스 4231" d="M478.243,332.664a.6.6,0,0,0-.64.426l-1.448,2.956L474.5,332.7l-.02-.037h-1.1l2.274,4.489V340h.749c.093,0,.247-.036.247-.276v-2.007a1.964,1.964,0,0,1,.232-.993l2.035-4.057Z" transform="translate(-111.935 -56.14)" fill="#fff"/>
    <path id="패스_4232" data-name="패스 4232" d="M319.453,269.886c2.9,0,3.917,2.971,3.917,5.49s-1.021,5.5-3.917,5.5-3.917-2.975-3.917-5.5,1.02-5.49,3.917-5.49m.058,13.3c3.218,0,4-2.328,4-2.328v1.265a1.032,1.032,0,0,0,1.116,1.063,1.014,1.014,0,0,0,1.116-1.063V268.471a1.029,1.029,0,0,0-1.116-1.116,1.017,1.017,0,0,0-1.116,1.116v.946a4.314,4.314,0,0,0-4-2.062c-4.082,0-6.369,3.814-6.369,7.916s2.287,7.919,6.369,7.919" transform="translate(0 -10.519)" fill="#fff"/>
    <path id="패스_4233" data-name="패스 4233" d="M358.691,259.046h1.719v12.562a1.206,1.206,0,0,0,2.4,0V259.046h1.726c.787,0,1.2-.406,1.2-1.106s-.409-1.1-1.2-1.1h-1.726V253.5c0-.539-.109-1.207-1.2-1.207a1.076,1.076,0,0,0-1.2,1.207v3.336h-1.719c-.794,0-1.2.4-1.2,1.1s.4,1.106,1.2,1.106" transform="translate(-30.981)" fill="#fff"/>
    <path id="패스_4234" data-name="패스 4234" d="M387.811,269.727c2.935,0,3.968,3.026,3.968,5.592s-1.033,5.6-3.968,5.6-3.975-3.024-3.975-5.6,1.036-5.592,3.975-5.592m0,13.466c4.08,0,6.369-3.81,6.369-7.918s-2.289-7.915-6.369-7.915-6.374,3.813-6.374,7.915,2.291,7.918,6.374,7.918" transform="translate(-47.706 -10.521)" fill="#fff"/>
    <path id="패스_4235" data-name="패스 4235" d="M493.69,277.839c-3.075,0-3.918-1.529-4.057-1.748h3.807a1.009,1.009,0,0,0,1.073-1.145,1.038,1.038,0,0,0-1.073-1.148h-4.661v-.8h4.691a1.034,1.034,0,0,0,1.142-1.074,1.062,1.062,0,0,0-1.142-1.086h-4.691v-.706h4.111a.966.966,0,0,0,1.067-1,.984.984,0,0,0-1.067-1h-4.111v-.746h5.131a1,1,0,0,0,1.067-1.143,1.036,1.036,0,0,0-1.067-1.15h-2.665s1.141-1.151.347-1.865a.988.988,0,0,0-1.456.127l-1.57,1.739h-1.753l-1.573-1.739a.985.985,0,0,0-1.453-.127c-.794.714.349,1.865.349,1.865h-2.665a1.037,1.037,0,0,0-1.069,1.15,1.006,1.006,0,0,0,1.069,1.143H486.6v.746h-4.11a.985.985,0,0,0-1.068,1,.966.966,0,0,0,1.068,1h4.11v.706h-4.69a1.061,1.061,0,0,0-1.139,1.086,1.032,1.032,0,0,0,1.139,1.074h4.69v.8H481.94a1.037,1.037,0,0,0-1.071,1.148,1.008,1.008,0,0,0,1.071,1.145h3.8c-.135.22-.977,1.748-4.055,1.748-1.285,0-1.357.877-1.255,1.432a1.1,1.1,0,0,0,1.091.817s4.048.284,6.168-2.723c2.123,3.007,6.166,2.723,6.166,2.723a1.086,1.086,0,0,0,1.088-.817c.1-.555.032-1.432-1.255-1.432" transform="translate(-116.836 -7.439)" fill="#fff"/>
    <path id="패스_4236" data-name="패스 4236" d="M442.3,270.894c0-2.14-2.055-3.48-3.94-3.48a4.154,4.154,0,0,0-3.542,1.613,3.065,3.065,0,0,0-2.788-1.613,3.174,3.174,0,0,0-2.484,1.129c-.006-.862-.329-1.185-.977-1.185-.755,0-1.069.346-1.069,1.249l0,13.522a1.069,1.069,0,0,0,1.145,1.064h.007a1.032,1.032,0,0,0,1.141-1.064v-10.21c0-.372.132-1.714,1.992-1.714,1.758,0,1.971,1.081,1.971,1.714v10.21a1.047,1.047,0,0,0,1.148,1.064,1.018,1.018,0,0,0,1.14-1.064v-10.21c0-.8.469-1.714,1.979-1.714,1.82,0,1.986,1.081,1.986,1.714v10.21a1.03,1.03,0,0,0,1.149,1.064,1.006,1.006,0,0,0,1.144-1.064Z" transform="translate(-79.879 -10.521)" fill="#fff"/>
  </g>
</svg>